Roman_opsz9.ufo
<glyph name="exclam" format="2">
	<unicode hex="0021"/>
	<advance width="570"/>
	<outline>
		<contour>
			<point x="284" y="378" type="curve" smooth="yes"/>
			<point x="310" y="378"/>
			<point x="312" y="392"/>
			<point x="314" y="420" type="curve" smooth="yes"/>
			<point x="340" y="722"/>
			<point x="366" y="1025"/>
			<point x="392" y="1328" type="curve"/>
			<point x="392" y="1398"/>
			<point x="332" y="1432"/>
			<point x="284" y="1432" type="curve" smooth="yes"/>
			<point x="236" y="1432"/>
			<point x="176" y="1398"/>
			<point x="176" y="1328" type="curve"/>
			<point x="202" y="1026"/>
			<point x="228" y="723"/>
			<point x="254" y="420" type="curve" smooth="yes"/>
			<point x="256" y="392"/>
			<point x="258" y="378"/>
		</contour>
		<contour>
			<point x="284" y="0" type="curve" smooth="yes"/>
			<point x="344" y="0"/>
			<point x="392" y="48"/>
			<point x="392" y="108" type="curve" smooth="yes"/>
			<point x="392" y="168"/>
			<point x="344" y="216"/>
			<point x="284" y="216" type="curve" smooth="yes"/>
			<point x="224" y="216"/>
			<point x="176" y="168"/>
			<point x="176" y="108" type="curve" smooth="yes"/>
			<point x="176" y="48"/>
			<point x="224" y="0"/>
		</contour>
	</outline>
</glyph>
<glyph name="numbersign" format="2">
	<unicode hex="0023"/>
	<advance width="1712"/>
	<outline>
		<contour>
			<point x="386" y="-388" type="curve" smooth="yes"/>
			<point x="416" y="-388"/>
			<point x="424" y="-364"/>
			<point x="430" y="-340" type="curve" smooth="yes"/>
			<point x="596" y="254" type="line"/>
			<point x="976" y="254" type="line"/>
			<point x="924" y="67"/>
			<point x="872" y="-120"/>
			<point x="820" y="-308" type="curve"/>
			<point x="812" y="-332"/>
			<point x="812" y="-336"/>
			<point x="812" y="-344" type="curve" smooth="yes"/>
			<point x="812" y="-370"/>
			<point x="830" y="-388"/>
			<point x="856" y="-388" type="curve" smooth="yes"/>
			<point x="886" y="-388"/>
			<point x="894" y="-364"/>
			<point x="900" y="-340" type="curve" smooth="yes"/>
			<point x="1066" y="254" type="line"/>
			<point x="1522" y="254" type="line" smooth="yes"/>
			<point x="1552" y="254"/>
			<point x="1596" y="254"/>
			<point x="1596" y="298" type="curve" smooth="yes"/>
			<point x="1596" y="340"/>
			<point x="1558" y="340"/>
			<point x="1530" y="340" type="curve" smooth="yes"/>
			<point x="1090" y="340" type="line"/>
			<point x="1178" y="662" type="line"/>
			<point x="1530" y="662" type="line" smooth="yes"/>
			<point x="1558" y="662"/>
			<point x="1596" y="662"/>
			<point x="1596" y="704" type="curve" smooth="yes"/>
			<point x="1596" y="748"/>
			<point x="1552" y="748"/>
			<point x="1522" y="748" type="curve" smooth="yes"/>
			<point x="1204" y="748" type="line"/>
			<point x="1360" y="1308" type="line"/>
			<point x="1368" y="1332"/>
			<point x="1368" y="1336"/>
			<point x="1368" y="1344" type="curve" smooth="yes"/>
			<point x="1368" y="1370"/>
			<point x="1350" y="1388"/>
			<point x="1324" y="1388" type="curve" smooth="yes"/>
			<point x="1294" y="1388"/>
			<point x="1286" y="1364"/>
			<point x="1280" y="1340" type="curve" smooth="yes"/>
			<point x="1114" y="748" type="line"/>
			<point x="734" y="748" type="line"/>
			<point x="890" y="1308" type="line"/>
			<point x="898" y="1332"/>
			<point x="898" y="1336"/>
			<point x="898" y="1344" type="curve" smooth="yes"/>
			<point x="898" y="1370"/>
			<point x="880" y="1388"/>
			<point x="854" y="1388" type="curve" smooth="yes"/>
			<point x="824" y="1388"/>
			<point x="816" y="1364"/>
			<point x="810" y="1340" type="curve" smooth="yes"/>
			<point x="644" y="748" type="line"/>
			<point x="188" y="748" type="line" smooth="yes"/>
			<point x="158" y="748"/>
			<point x="114" y="748"/>
			<point x="114" y="704" type="curve" smooth="yes"/>
			<point x="114" y="662"/>
			<point x="154" y="662"/>
			<point x="180" y="662" type="curve" smooth="yes"/>
			<point x="620" y="662" type="line"/>
			<point x="532" y="340" type="line"/>
			<point x="180" y="340" type="line" smooth="yes"/>
			<point x="154" y="340"/>
			<point x="114" y="340"/>
			<point x="114" y="298" type="curve" smooth="yes"/>
			<point x="114" y="254"/>
			<point x="158" y="254"/>
			<point x="188" y="254" type="curve" smooth="yes"/>
			<point x="506" y="254" type="line"/>
			<point x="454" y="67"/>
			<point x="402" y="-120"/>
			<point x="350" y="-308" type="curve"/>
			<point x="342" y="-332"/>
			<point x="342" y="-336"/>
			<point x="342" y="-344" type="curve" smooth="yes"/>
			<point x="342" y="-370"/>
			<point x="360" y="-388"/>
		</contour>
		<contour>
			<point x="620" y="340" type="line"/>
			<point x="708" y="662" type="line"/>
			<point x="1090" y="662" type="line"/>
			<point x="1002" y="340" type="line"/>
		</contour>
	</outline>
</glyph>
<glyph name="dollar" format="2">
	<unicode hex="0024"/>
	<advance width="1026"/>
	<outline>
		<contour>
			<point x="482" y="-112" type="line"/>
			<point x="544" y="-112" type="line"/>
			<point x="544" y="-20" type="line"/>
			<point x="766" y="0"/>
			<point x="912" y="188"/>
			<point x="912" y="390" type="curve" smooth="yes"/>
			<point x="912" y="538"/>
			<point x="838" y="636"/>
			<point x="806" y="672" type="curve" smooth="yes"/>
			<point x="716" y="768"/>
			<point x="638" y="784"/>
			<point x="544" y="806" type="curve"/>
			<point x="544" y="1348" type="line"/>
			<point x="676" y="1340"/>
			<point x="808" y="1280"/>
			<point x="844" y="1140" type="curve"/>
			<point x="838" y="1142"/>
			<point x="826" y="1144"/>
			<point x="820" y="1144" type="curve" smooth="yes"/>
			<point x="774" y="1144"/>
			<point x="726" y="1112"/>
			<point x="726" y="1050" type="curve" smooth="yes"/>
			<point x="726" y="996"/>
			<point x="766" y="958"/>
			<point x="818" y="958" type="curve" smooth="yes"/>
			<point x="860" y="958"/>
			<point x="912" y="980"/>
			<point x="912" y="1060" type="curve" smooth="yes"/>
			<point x="912" y="1224"/>
			<point x="806" y="1394"/>
			<point x="544" y="1410" type="curve"/>
			<point x="544" y="1500" type="line"/>
			<point x="482" y="1500" type="line"/>
			<point x="482" y="1408" type="line"/>
			<point x="252" y="1390"/>
			<point x="114" y="1206"/>
			<point x="114" y="1026" type="curve" smooth="yes"/>
			<point x="114" y="908"/>
			<point x="166" y="818"/>
			<point x="230" y="756" type="curve" smooth="yes"/>
			<point x="302" y="684"/>
			<point x="352" y="672"/>
			<point x="482" y="636" type="curve"/>
			<point x="482" y="42" type="line"/>
			<point x="364" y="48"/>
			<point x="222" y="102"/>
			<point x="180" y="276" type="curve"/>
			<point x="182" y="276"/>
			<point x="196" y="272"/>
			<point x="206" y="272" type="curve" smooth="yes"/>
			<point x="254" y="272"/>
			<point x="300" y="304"/>
			<point x="300" y="366" type="curve" smooth="yes"/>
			<point x="300" y="420"/>
			<point x="260" y="458"/>
			<point x="208" y="458" type="curve" smooth="yes"/>
			<point x="172" y="458"/>
			<point x="114" y="440"/>
			<point x="114" y="356" type="curve" smooth="yes"/>
			<point x="114" y="172"/>
			<point x="228" y="-6"/>
			<point x="482" y="-22" type="curve"/>
		</contour>
		<contour>
			<point x="482" y="822" type="line"/>
			<point x="226" y="872"/>
			<point x="218" y="1050"/>
			<point x="218" y="1086" type="curve" smooth="yes"/>
			<point x="218" y="1202"/>
			<point x="312" y="1328"/>
			<point x="482" y="1346" type="curve"/>
		</contour>
		<contour>
			<point x="544" y="42" type="curve"/>
			<point x="544" y="235"/>
			<point x="544" y="428"/>
			<point x="544" y="622" type="curve"/>
			<point x="796" y="570"/>
			<point x="808" y="372"/>
			<point x="808" y="330" type="curve" smooth="yes"/>
			<point x="808" y="190"/>
			<point x="702" y="58"/>
		</contour>
	</outline>
</glyph>
<glyph name="percent" format="2">
	<unicode hex="0025"/>
	<advance width="1712"/>
	<outline>
		<contour>
			<point x="1408" y="1420" type="line" smooth="yes"/>
			<point x="1418" y="1434"/>
			<point x="1424" y="1442"/>
			<point x="1424" y="1456" type="curve" smooth="yes"/>
			<point x="1424" y="1484"/>
			<point x="1400" y="1500"/>
			<point x="1382" y="1500" type="curve" smooth="yes"/>
			<point x="1360" y="1500"/>
			<point x="1350" y="1488"/>
			<point x="1338" y="1470" type="curve"/>
			<point x="1210" y="1302"/>
			<point x="1042" y="1280"/>
			<point x="950" y="1280" type="curve" smooth="yes"/>
			<point x="756" y="1280"/>
			<point x="628" y="1376"/>
			<point x="558" y="1442" type="curve" smooth="yes"/>
			<point x="504" y="1490"/>
			<point x="452" y="1500"/>
			<point x="416" y="1500" type="curve" smooth="yes"/>
			<point x="262" y="1500"/>
			<point x="114" y="1334"/>
			<point x="114" y="1098" type="curve" smooth="yes"/>
			<point x="114" y="854"/>
			<point x="266" y="694"/>
			<point x="416" y="694" type="curve" smooth="yes"/>
			<point x="564" y="694"/>
			<point x="684" y="870"/>
			<point x="684" y="1096" type="curve" smooth="yes"/>
			<point x="684" y="1126"/>
			<point x="684" y="1216"/>
			<point x="644" y="1314" type="curve"/>
			<point x="768" y="1244"/>
			<point x="880" y="1230"/>
			<point x="950" y="1230" type="curve" smooth="yes"/>
			<point x="1038" y="1230"/>
			<point x="1130" y="1250"/>
			<point x="1214" y="1296" type="curve"/>
			<point x="1216" y="1294" type="line"/>
			<point x="304" y="-28" type="line"/>
			<point x="302" y="-32"/>
			<point x="286" y="-54"/>
			<point x="286" y="-68" type="curve" smooth="yes"/>
			<point x="286" y="-94"/>
			<point x="306" y="-112"/>
			<point x="330" y="-112" type="curve" smooth="yes"/>
			<point x="352" y="-112"/>
			<point x="362" y="-96"/>
			<point x="374" y="-80" type="curve" smooth="yes"/>
		</contour>
		<contour>
			<point x="420" y="744" type="curve" smooth="yes"/>
			<point x="378" y="744"/>
			<point x="246" y="770"/>
			<point x="246" y="1096" type="curve" smooth="yes"/>
			<point x="246" y="1426"/>
			<point x="378" y="1450"/>
			<point x="420" y="1450" type="curve" smooth="yes"/>
			<point x="526" y="1450"/>
			<point x="628" y="1302"/>
			<point x="628" y="1098" type="curve" smooth="yes"/>
			<point x="628" y="886"/>
			<point x="522" y="744"/>
		</contour>
		<contour>
			<point x="1332" y="-62" type="curve" smooth="yes"/>
			<point x="1290" y="-62"/>
			<point x="1158" y="-36"/>
			<point x="1158" y="290" type="curve" smooth="yes"/>
			<point x="1158" y="620"/>
			<point x="1290" y="644"/>
			<point x="1332" y="644" type="curve" smooth="yes"/>
			<point x="1438" y="644"/>
			<point x="1540" y="496"/>
			<point x="1540" y="292" type="curve" smooth="yes"/>
			<point x="1540" y="80"/>
			<point x="1434" y="-62"/>
		</contour>
		<contour>
			<point x="1596" y="290" type="curve" smooth="yes"/>
			<point x="1596" y="524"/>
			<point x="1474" y="694"/>
			<point x="1328" y="694" type="curve" smooth="yes"/>
			<point x="1174" y="694"/>
			<point x="1026" y="528"/>
			<point x="1026" y="292" type="curve" smooth="yes"/>
			<point x="1026" y="48"/>
			<point x="1178" y="-112"/>
			<point x="1328" y="-112" type="curve" smooth="yes"/>
			<point x="1476" y="-112"/>
			<point x="1596" y="64"/>
		</contour>
	</outline>
</glyph>
<glyph name="parenright" format="2">
	<unicode hex="0029"/>
	<advance width="798"/>
	<outline>
		<contour>
			<point x="596" y="502" type="curve" smooth="yes"/>
			<point x="596" y="666"/>
			<point x="572" y="886"/>
			<point x="468" y="1108" type="curve" smooth="yes"/>
			<point x="350" y="1354"/>
			<point x="164" y="1500"/>
			<point x="140" y="1500" type="curve" smooth="yes"/>
			<point x="120" y="1500"/>
			<point x="116" y="1484"/>
			<point x="116" y="1478" type="curve" smooth="yes"/>
			<point x="116" y="1468"/>
			<point x="120" y="1462"/>
			<point x="134" y="1448" type="curve"/>
			<point x="250" y="1344"/>
			<point x="470" y="1072"/>
			<point x="470" y="502" type="curve" smooth="yes"/>
			<point x="470" y="216"/>
			<point x="418" y="-182"/>
			<point x="128" y="-452" type="curve"/>
			<point x="124" y="-458"/>
			<point x="116" y="-466"/>
			<point x="116" y="-476" type="curve" smooth="yes"/>
			<point x="116" y="-482"/>
			<point x="120" y="-498"/>
			<point x="140" y="-498" type="curve" smooth="yes"/>
			<point x="164" y="-498"/>
			<point x="344" y="-354"/>
			<point x="452" y="-136" type="curve" smooth="yes"/>
			<point x="548" y="56"/>
			<point x="596" y="262"/>
		</contour>
	</outline>
</glyph>
<glyph name="asterisk" format="2">
	<unicode hex="002A"/>
	<advance width="1026"/>
	<outline>
		<contour>
			<point x="512" y="638" type="curve" smooth="yes"/>
			<point x="554" y="638"/>
			<point x="572" y="670"/>
			<point x="572" y="692" type="curve"/>
			<point x="561" y="802"/>
			<point x="551" y="912"/>
			<point x="540" y="1022" type="curve"/>
			<point x="790" y="844" type="line" smooth="yes"/>
			<point x="816" y="824"/>
			<point x="820" y="824"/>
			<point x="834" y="824" type="curve" smooth="yes"/>
			<point x="870" y="824"/>
			<point x="892" y="856"/>
			<point x="892" y="884" type="curve" smooth="yes"/>
			<point x="892" y="920"/>
			<point x="868" y="930"/>
			<point x="848" y="940" type="curve" smooth="yes"/>
			<point x="566" y="1068" type="line"/>
			<point x="848" y="1198" type="line" smooth="yes"/>
			<point x="868" y="1208"/>
			<point x="892" y="1218"/>
			<point x="892" y="1254" type="curve" smooth="yes"/>
			<point x="892" y="1282"/>
			<point x="870" y="1314"/>
			<point x="834" y="1314" type="curve" smooth="yes"/>
			<point x="824" y="1314"/>
			<point x="814" y="1314"/>
			<point x="790" y="1296" type="curve" smooth="yes"/>
			<point x="540" y="1114" type="line"/>
			<point x="551" y="1225"/>
			<point x="561" y="1335"/>
			<point x="572" y="1446" type="curve"/>
			<point x="572" y="1472"/>
			<point x="548" y="1500"/>
			<point x="514" y="1500" type="curve" smooth="yes"/>
			<point x="472" y="1500"/>
			<point x="454" y="1468"/>
			<point x="454" y="1446" type="curve"/>
			<point x="465" y="1336"/>
			<point x="475" y="1226"/>
			<point x="486" y="1116" type="curve"/>
			<point x="236" y="1294" type="line" smooth="yes"/>
			<point x="210" y="1314"/>
			<point x="206" y="1314"/>
			<point x="192" y="1314" type="curve" smooth="yes"/>
			<point x="156" y="1314"/>
			<point x="134" y="1282"/>
			<point x="134" y="1254" type="curve" smooth="yes"/>
			<point x="134" y="1218"/>
			<point x="158" y="1208"/>
			<point x="178" y="1198" type="curve" smooth="yes"/>
			<point x="460" y="1070" type="line"/>
			<point x="178" y="940" type="line" smooth="yes"/>
			<point x="158" y="930"/>
			<point x="134" y="920"/>
			<point x="134" y="884" type="curve" smooth="yes"/>
			<point x="134" y="856"/>
			<point x="156" y="824"/>
			<point x="192" y="824" type="curve" smooth="yes"/>
			<point x="202" y="824"/>
			<point x="212" y="824"/>
			<point x="236" y="842" type="curve" smooth="yes"/>
			<point x="486" y="1024" type="line"/>
			<point x="475" y="913"/>
			<point x="465" y="803"/>
			<point x="454" y="692" type="curve"/>
			<point x="454" y="666"/>
			<point x="478" y="638"/>
		</contour>
	</outline>
</glyph>
<glyph name="plus" format="2">
	<unicode hex="002B"/>
	<advance width="1598"/>
	<outline>
		<contour>
			<point x="842" y="458" type="line"/>
			<point x="1412" y="458" type="line" smooth="yes"/>
			<point x="1440" y="458"/>
			<point x="1482" y="458"/>
			<point x="1482" y="500" type="curve" smooth="yes"/>
			<point x="1482" y="544"/>
			<point x="1444" y="544"/>
			<point x="1412" y="544" type="curve" smooth="yes"/>
			<point x="842" y="544" type="line"/>
			<point x="842" y="1116" type="line" smooth="yes"/>
			<point x="842" y="1148"/>
			<point x="842" y="1186"/>
			<point x="798" y="1186" type="curve" smooth="yes"/>
			<point x="756" y="1186"/>
			<point x="756" y="1144"/>
			<point x="756" y="1116" type="curve" smooth="yes"/>
			<point x="756" y="544" type="line"/>
			<point x="184" y="544" type="line" smooth="yes"/>
			<point x="156" y="544"/>
			<point x="114" y="544"/>
			<point x="114" y="502" type="curve" smooth="yes"/>
			<point x="114" y="458"/>
			<point x="152" y="458"/>
			<point x="184" y="458" type="curve" smooth="yes"/>
			<point x="756" y="458" type="line"/>
			<point x="756" y="-114" type="line" smooth="yes"/>
			<point x="756" y="-146"/>
			<point x="756" y="-184"/>
			<point x="800" y="-184" type="curve" smooth="yes"/>
			<point x="842" y="-184"/>
			<point x="842" y="-142"/>
			<point x="842" y="-114" type="curve" smooth="yes"/>
		</contour>
	</outline>
</glyph>
<glyph name="comma" format="2">
	<unicode hex="002C"/>
	<advance width="570"/>
	<outline>
		<contour>
			<point x="176" y="108" type="curve" smooth="yes"/>
			<point x="176" y="54"/>
			<point x="214" y="0"/>
			<point x="284" y="0" type="curve" smooth="yes"/>
			<point x="334" y="0"/>
			<point x="364" y="30"/>
			<point x="364" y="32" type="curve"/>
			<point x="364" y="-34"/>
			<point x="364" y="-198"/>
			<point x="212" y="-342" type="curve"/>
			<point x="204" y="-352"/>
			<point x="204" y="-360"/>
			<point x="204" y="-362" type="curve" smooth="yes"/>
			<point x="204" y="-372"/>
			<point x="216" y="-386"/>
			<point x="230" y="-386" type="curve" smooth="yes"/>
			<point x="252" y="-386"/>
			<point x="414" y="-232"/>
			<point x="414" y="4" type="curve" smooth="yes"/>
			<point x="414" y="142"/>
			<point x="362" y="216"/>
			<point x="284" y="216" type="curve" smooth="yes"/>
			<point x="214" y="216"/>
			<point x="176" y="162"/>
		</contour>
	</outline>
</glyph>
<glyph name="hyphen" format="2">
	<unicode hex="002D"/>
	<advance width="684"/>
	<outline>
		<contour>
			<point x="570" y="370" type="line"/>
			<point x="570" y="494" type="line"/>
			<point x="22" y="494" type="line"/>
			<point x="22" y="370" type="line"/>
		</contour>
	</outline>
</glyph>
<glyph name="period" format="2">
	<unicode hex="002E"/>
	<advance width="570"/>
	<outline>
		<contour>
			<point x="392" y="108" type="curve" smooth="yes"/>
			<point x="392" y="166"/>
			<point x="344" y="216"/>
			<point x="284" y="216" type="curve" smooth="yes"/>
			<point x="224" y="216"/>
			<point x="176" y="166"/>
			<point x="176" y="108" type="curve" smooth="yes"/>
			<point x="176" y="48"/>
			<point x="224" y="0"/>
			<point x="284" y="0" type="curve" smooth="yes"/>
			<point x="344" y="0"/>
			<point x="392" y="48"/>
		</contour>
	</outline>
</glyph>
<glyph name="slash" format="2">
	<unicode hex="002F"/>
	<advance width="1026"/>
	<outline>
		<contour>
			<point x="902" y="1422" type="line" smooth="yes"/>
			<point x="908" y="1440"/>
			<point x="912" y="1448"/>
			<point x="912" y="1456" type="curve" smooth="yes"/>
			<point x="912" y="1486"/>
			<point x="888" y="1500"/>
			<point x="870" y="1500" type="curve" smooth="yes"/>
			<point x="838" y="1500"/>
			<point x="830" y="1478"/>
			<point x="822" y="1454" type="curve" smooth="yes"/>
			<point x="124" y="-422" type="line" smooth="yes"/>
			<point x="118" y="-440"/>
			<point x="114" y="-448"/>
			<point x="114" y="-456" type="curve" smooth="yes"/>
			<point x="114" y="-486"/>
			<point x="138" y="-500"/>
			<point x="156" y="-500" type="curve" smooth="yes"/>
			<point x="188" y="-500"/>
			<point x="196" y="-478"/>
			<point x="204" y="-454" type="curve" smooth="yes"/>
		</contour>
	</outline>
</glyph>
<glyph name="zero" format="2">
	<unicode hex="0030"/>
	<advance width="513"/>
	<outline>
		<contour>
			<point x="256" y="-22" type="curve" smooth="yes"/>
			<point x="321" y="-22"/>
			<point x="395" y="6"/>
			<point x="437" y="98" type="curve" smooth="yes"/>
			<point x="467" y="165"/>
			<point x="473" y="240"/>
			<point x="473" y="320" type="curve" smooth="yes"/>
			<point x="473" y="387"/>
			<point x="470" y="473"/>
			<point x="435" y="548" type="curve" smooth="yes"/>
			<point x="391" y="642"/>
			<point x="315" y="666"/>
			<point x="257" y="666" type="curve" smooth="yes"/>
			<point x="197" y="666"/>
			<point x="121" y="642"/>
			<point x="77" y="546" type="curve" smooth="yes"/>
			<point x="45" y="477"/>
			<point x="40" y="396"/>
			<point x="40" y="320" type="curve" smooth="yes"/>
			<point x="40" y="255"/>
			<point x="42" y="158"/>
			<point x="85" y="79" type="curve" smooth="yes"/>
			<point x="132" y="-6"/>
			<point x="210" y="-22"/>
		</contour>
		<contour>
			<point x="257" y="3" type="curve" smooth="yes"/>
			<point x="227" y="3"/>
			<point x="155" y="17"/>
			<point x="136" y="130" type="curve" smooth="yes"/>
			<point x="126" y="189"/>
			<point x="126" y="275"/>
			<point x="126" y="332" type="curve" smooth="yes"/>
			<point x="126" y="400"/>
			<point x="126" y="479"/>
			<point x="138" y="534" type="curve" smooth="yes"/>
			<point x="158" y="623"/>
			<point x="222" y="641"/>
			<point x="256" y="641" type="curve" smooth="yes"/>
			<point x="294" y="641"/>
			<point x="357" y="621"/>
			<point x="376" y="528" type="curve" smooth="yes"/>
			<point x="387" y="473"/>
			<point x="387" y="395"/>
			<point x="387" y="332" type="curve" smooth="yes"/>
			<point x="387" y="270"/>
			<point x="387" y="186"/>
			<point x="377" y="127" type="curve" smooth="yes"/>
			<point x="356" y="13"/>
			<point x="282" y="3"/>
		</contour>
	</outline>
</glyph>
<glyph name="one" format="2">
	<unicode hex="0031"/>
	<advance width="1026"/>
	<outline>
		<contour>
			<point x="454" y="1194" type="curve"/>
			<point x="454" y="160" type="line" smooth="yes"/>
			<point x="454" y="86"/>
			<point x="448" y="62"/>
			<point x="262" y="62" type="curve" smooth="yes"/>
			<point x="198" y="62" type="line"/>
			<point x="198" y="0" type="line"/>
			<point x="270" y="6"/>
			<point x="448" y="6"/>
			<point x="530" y="6" type="curve" smooth="yes"/>
			<point x="612" y="6"/>
			<point x="792" y="6"/>
			<point x="864" y="0" type="curve"/>
			<point x="864" y="62" type="line"/>
			<point x="800" y="62" type="line" smooth="yes"/>
			<point x="614" y="62"/>
			<point x="608" y="86"/>
			<point x="608" y="160" type="curve" smooth="yes"/>
			<point x="608" y="1278" type="line" smooth="yes"/>
			<point x="608" y="1328"/>
			<point x="606" y="1332"/>
			<point x="556" y="1332" type="curve"/>
			<point x="556" y="1332"/>
			<point x="556" y="1332"/>
			<point x="556" y="1332" type="curve"/>
			<point x="432" y="1204"/>
			<point x="248" y="1204"/>
			<point x="186" y="1204" type="curve" smooth="yes"/>
			<point x="186" y="1204"/>
			<point x="186" y="1204"/>
			<point x="186" y="1204" type="curve"/>
			<point x="186" y="1183"/>
			<point x="186" y="1163"/>
			<point x="186" y="1142" type="curve"/>
			<point x="186" y="1142" type="line"/>
			<point x="224" y="1142"/>
			<point x="346" y="1142"/>
		</contour>
	</outline>
</glyph>
<glyph name="two" format="2">
  <advance width="513"/>
  <unicode hex="0032"/>
  <outline>
    <contour>
      <point x="51" y="0" type="curve"/>
      <point x="434" y="0" type="line"/>
      <point x="462" y="177" type="line"/>
      <point x="434" y="177" type="line"/>
      <point x="432" y="164"/>
      <point x="424" y="105"/>
      <point x="411" y="89" type="curve"/>
      <point x="405" y="80"/>
      <point x="336" y="80"/>
      <point x="316" y="80" type="curve" smooth="yes"/>
      <point x="138" y="80" type="line"/>
      <point x="237" y="174" type="line" smooth="yes"/>
      <point x="401" y="316"/>
      <point x="462" y="369"/>
      <point x="462" y="471" type="curve" smooth="yes"/>
      <point x="462" y="586"/>
      <point x="367" y="666"/>
      <point x="244" y="666" type="curve" smooth="yes"/>
      <point x="129" y="666"/>
      <point x="51" y="575"/>
      <point x="51" y="484" type="curve" smooth="yes"/>
      <point x="51" y="434"/>
      <point x="94" y="429"/>
      <point x="103" y="429" type="curve" smooth="yes"/>
      <point x="125" y="429"/>
      <point x="155" y="445"/>
      <point x="155" y="481" type="curve" smooth="yes"/>
      <point x="155" y="516"/>
      <point x="126" y="539"/>
      <point x="91" y="532" type="curve"/>
      <point x="115" y="603"/>
      <point x="179" y="635"/>
      <point x="233" y="635" type="curve" smooth="yes"/>
      <point x="335" y="635"/>
      <point x="370" y="540"/>
      <point x="370" y="471" type="curve" smooth="yes"/>
      <point x="370" y="369"/>
      <point x="293" y="286"/>
      <point x="245" y="234" type="curve" smooth="yes"/>
      <point x="62" y="36" type="line" smooth="yes"/>
      <point x="51" y="25"/>
      <point x="51" y="23"/>
    </contour>
  </outline>
</glyph>
<glyph name="three" format="2">
	<unicode hex="0033"/>
	<advance width="513"/>
	<outline>
		<contour>
			<point x="252" y="-22" type="curve" smooth="yes"/>
			<point x="377" y="-22"/>
			<point x="470" y="68"/>
			<point x="470" y="170" type="curve" smooth="yes"/>
			<point x="470" y="257"/>
			<point x="401" y="331"/>
			<point x="305" y="352" type="curve"/>
			<point x="398" y="387"/>
			<point x="442" y="460"/>
			<point x="442" y="529" type="curve" smooth="yes"/>
			<point x="442" y="606"/>
			<point x="357" y="666"/>
			<point x="253" y="666" type="curve" smooth="yes"/>
			<point x="149" y="666"/>
			<point x="71" y="607"/>
			<point x="71" y="531" type="curve" smooth="yes"/>
			<point x="71" y="498"/>
			<point x="93" y="479"/>
			<point x="122" y="479" type="curve" smooth="yes"/>
			<point x="151" y="479"/>
			<point x="172" y="500"/>
			<point x="172" y="529" type="curve" smooth="yes"/>
			<point x="172" y="564"/>
			<point x="148" y="579"/>
			<point x="114" y="579" type="curve"/>
			<point x="140" y="621"/>
			<point x="201" y="641"/>
			<point x="250" y="641" type="curve" smooth="yes"/>
			<point x="333" y="641"/>
			<point x="349" y="575"/>
			<point x="349" y="528" type="curve" smooth="yes"/>
			<point x="349" y="466"/>
			<point x="327" y="370"/>
			<point x="230" y="363" type="curve" smooth="yes"/>
			<point x="198" y="361"/>
			<point x="196" y="361"/>
			<point x="188" y="361" type="curve"/>
			<point x="179" y="360"/>
			<point x="171" y="359"/>
			<point x="171" y="348" type="curve" smooth="yes"/>
			<point x="171" y="335"/>
			<point x="179" y="335"/>
			<point x="196" y="335" type="curve" smooth="yes"/>
			<point x="243" y="335" type="line" smooth="yes"/>
			<point x="330" y="335"/>
			<point x="368" y="265"/>
			<point x="368" y="170" type="curve" smooth="yes"/>
			<point x="368" y="42"/>
			<point x="300" y="6"/>
			<point x="249" y="6" type="curve" smooth="yes"/>
			<point x="230" y="6"/>
			<point x="133" y="11"/>
			<point x="88" y="85" type="curve"/>
			<point x="124" y="80"/>
			<point x="152" y="105"/>
			<point x="152" y="139" type="curve" smooth="yes"/>
			<point x="152" y="172"/>
			<point x="127" y="193"/>
			<point x="98" y="193" type="curve" smooth="yes"/>
			<point x="73" y="193"/>
			<point x="43" y="178"/>
			<point x="43" y="136" type="curve" smooth="yes"/>
			<point x="43" y="47"/>
			<point x="136" y="-22"/>
		</contour>
	</outline>
</glyph>
<glyph name="four" format="2">
	<unicode hex="0034"/>
	<advance width="1026"/>
	<outline>
		<contour>
			<point x="604" y="330" type="line"/>
			<point x="604" y="158" type="line" smooth="yes"/>
			<point x="604" y="84"/>
			<point x="598" y="62"/>
			<point x="448" y="62" type="curve" smooth="yes"/>
			<point x="404" y="62" type="line"/>
			<point x="404" y="0" type="line"/>
			<point x="530" y="6"/>
			<point x="670" y="6"/>
			<point x="684" y="6" type="curve" smooth="yes"/>
			<point x="694" y="6"/>
			<point x="838" y="6"/>
			<point x="964" y="0" type="curve"/>
			<point x="964" y="62" type="line"/>
			<point x="920" y="62" type="line" smooth="yes"/>
			<point x="770" y="62"/>
			<point x="764" y="84"/>
			<point x="764" y="158" type="curve" smooth="yes"/>
			<point x="764" y="330" type="line"/>
			<point x="968" y="330" type="line"/>
			<point x="968" y="392" type="line"/>
			<point x="764" y="392" type="line"/>
			<point x="764" y="1300" type="line" smooth="yes"/>
			<point x="764" y="1340"/>
			<point x="764" y="1354"/>
			<point x="726" y="1354" type="curve" smooth="yes"/>
			<point x="702" y="1354"/>
			<point x="700" y="1352"/>
			<point x="682" y="1324" type="curve" smooth="yes"/>
			<point x="58" y="392" type="line"/>
			<point x="58" y="330" type="line"/>
		</contour>
		<contour>
			<point x="122" y="392" type="line"/>
			<point x="616" y="1132" type="line"/>
			<point x="616" y="392" type="line"/>
		</contour>
	</outline>
</glyph>
<glyph name="six" format="2">
	<unicode hex="0036"/>
	<advance width="1026"/>
	<outline>
		<contour>
			<point x="86" y="632" type="curve" smooth="yes"/>
			<point x="86" y="356"/>
			<point x="149" y="186"/>
			<point x="236" y="85" type="curve" smooth="yes"/>
			<point x="320" y="-12"/>
			<point x="426" y="-44"/>
			<point x="518" y="-44" type="curve" smooth="yes"/>
			<point x="622" y="-44"/>
			<point x="722" y="-3"/>
			<point x="798" y="68" type="curve" smooth="yes"/>
			<point x="884" y="148"/>
			<point x="940" y="266"/>
			<point x="940" y="406" type="curve" smooth="yes"/>
			<point x="940" y="546"/>
			<point x="884" y="667"/>
			<point x="797" y="747" type="curve" smooth="yes"/>
			<point x="725" y="813"/>
			<point x="632" y="852"/>
			<point x="530" y="852" type="curve" smooth="yes"/>
			<point x="410" y="852"/>
			<point x="324" y="782"/>
			<point x="268" y="662" type="curve"/>
			<point x="268" y="866"/>
			<point x="290" y="980"/>
			<point x="344" y="1084" type="curve" smooth="yes"/>
			<point x="384" y="1166"/>
			<point x="482" y="1282"/>
			<point x="630" y="1282" type="curve" smooth="yes"/>
			<point x="670" y="1282"/>
			<point x="762" y="1274"/>
			<point x="808" y="1202" type="curve"/>
			<point x="734" y="1202"/>
			<point x="702" y="1164"/>
			<point x="702" y="1110" type="curve" smooth="yes"/>
			<point x="702" y="1058"/>
			<point x="738" y="1018"/>
			<point x="794" y="1018" type="curve" smooth="yes"/>
			<point x="850" y="1018"/>
			<point x="888" y="1054"/>
			<point x="888" y="1114" type="curve" smooth="yes"/>
			<point x="888" y="1226"/>
			<point x="808" y="1332"/>
			<point x="626" y="1332" type="curve" smooth="yes"/>
			<point x="368" y="1332"/>
			<point x="86" y="1078"/>
		</contour>
		<contour>
			<point x="516" y="12" type="curve" smooth="yes"/>
			<point x="402" y="12"/>
			<point x="336" y="106"/>
			<point x="312" y="164" type="curve" smooth="yes"/>
			<point x="274" y="254"/>
			<point x="272" y="420"/>
			<point x="272" y="452" type="curve" smooth="yes"/>
			<point x="272" y="586"/>
			<point x="334" y="802"/>
			<point x="526" y="802" type="curve" smooth="yes"/>
			<point x="558" y="802"/>
			<point x="656" y="802"/>
			<point x="720" y="678" type="curve" smooth="yes"/>
			<point x="758" y="602"/>
			<point x="758" y="504"/>
			<point x="758" y="408" type="curve" smooth="yes"/>
			<point x="758" y="312"/>
			<point x="758" y="214"/>
			<point x="720" y="140" type="curve" smooth="yes"/>
			<point x="658" y="26"/>
			<point x="570" y="12"/>
		</contour>
	</outline>
</glyph>
<glyph name="seven" format="2">
  <advance width="513"/>
  <unicode hex="0037"/>
  <outline>
    <contour>
      <point x="490" y="610" type="line"/>
      <point x="499" y="621"/>
      <point x="499" y="623"/>
      <point x="499" y="644" type="curve"/>
      <point x="250" y="644" type="line"/>
      <point x="250" y="644"/>
      <point x="250" y="644"/>
      <point x="250" y="644" type="curve"/>
      <point x="124" y="644"/>
      <point x="121" y="657"/>
      <point x="118" y="676" type="curve"/>
      <point x="90" y="676" type="line"/>
      <point x="57" y="467" type="line"/>
      <point x="85" y="467" type="line"/>
      <point x="89" y="490"/>
      <point x="97" y="546"/>
      <point x="110" y="558" type="curve" smooth="yes"/>
      <point x="117" y="564"/>
      <point x="196" y="564"/>
      <point x="210" y="564" type="curve" smooth="yes"/>
      <point x="420" y="564" type="line"/>
      <point x="324" y="433" type="line" smooth="yes"/>
      <point x="194" y="254"/>
      <point x="182" y="91"/>
      <point x="182" y="34" type="curve" smooth="yes"/>
      <point x="182" y="23"/>
      <point x="182" y="-22"/>
      <point x="228" y="-22" type="curve" smooth="yes"/>
      <point x="275" y="-22"/>
      <point x="275" y="22"/>
      <point x="275" y="35" type="curve" smooth="yes"/>
      <point x="275" y="84" type="line" smooth="yes"/>
      <point x="275" y="231"/>
      <point x="297" y="347"/>
      <point x="350" y="419" type="curve" smooth="yes"/>
    </contour>
  </outline>
</glyph>
<glyph name="eight" format="2">
	<unicode hex="0038"/>
	<advance width="1026"/>
	<outline>
		<contour>
			<point x="512" y="-44" type="curve" smooth="yes"/>
			<point x="744" y="-44"/>
			<point x="940" y="120"/>
			<point x="940" y="336" type="curve" smooth="yes"/>
			<point x="940" y="502"/>
			<point x="852" y="602"/>
			<point x="638" y="724" type="curve"/>
			<point x="738" y="772"/>
			<point x="884" y="872"/>
			<point x="884" y="1034" type="curve" smooth="yes"/>
			<point x="884" y="1222"/>
			<point x="696" y="1332"/>
			<point x="516" y="1332" type="curve" smooth="yes"/>
			<point x="306" y="1332"/>
			<point x="142" y="1182"/>
			<point x="142" y="998" type="curve" smooth="yes"/>
			<point x="142" y="922"/>
			<point x="170" y="850"/>
			<point x="218" y="792" type="curve" smooth="yes"/>
			<point x="252" y="754"/>
			<point x="264" y="746"/>
			<point x="380" y="672" type="curve"/>
			<point x="204" y="588"/>
			<point x="86" y="466"/>
			<point x="86" y="302" type="curve" smooth="yes"/>
			<point x="86" y="90"/>
			<point x="296" y="-44"/>
		</contour>
		<contour>
			<point x="514" y="12" type="curve" smooth="yes"/>
			<point x="340" y="12"/>
			<point x="194" y="136"/>
			<point x="194" y="302" type="curve" smooth="yes"/>
			<point x="194" y="446"/>
			<point x="294" y="566"/>
			<point x="434" y="638" type="curve"/>
			<point x="518" y="586"/>
			<point x="602" y="534"/>
			<point x="686" y="482" type="curve" smooth="yes"/>
			<point x="732" y="452"/>
			<point x="832" y="388"/>
			<point x="832" y="266" type="curve" smooth="yes"/>
			<point x="832" y="108"/>
			<point x="672" y="12"/>
		</contour>
		<contour>
			<point x="588" y="756" type="curve"/>
			<point x="507" y="807"/>
			<point x="425" y="857"/>
			<point x="344" y="908" type="curve" smooth="yes"/>
			<point x="284" y="946"/>
			<point x="238" y="1000"/>
			<point x="238" y="1074" type="curve" smooth="yes"/>
			<point x="238" y="1204"/>
			<point x="378" y="1282"/>
			<point x="510" y="1282" type="curve" smooth="yes"/>
			<point x="664" y="1282"/>
			<point x="788" y="1174"/>
			<point x="788" y="1034" type="curve" smooth="yes"/>
			<point x="788" y="894"/>
			<point x="668" y="802"/>
		</contour>
	</outline>
</glyph>
<glyph name="nine" format="2">
	<unicode hex="0039"/>
	<advance width="513"/>
	<outline>
		<contour>
			<point x="212" y="-22" type="curve" smooth="yes"/>
			<point x="341" y="-22"/>
			<point x="470" y="110"/>
			<point x="470" y="329" type="curve" smooth="yes"/>
			<point x="470" y="600"/>
			<point x="350" y="666"/>
			<point x="260" y="666" type="curve" smooth="yes"/>
			<point x="202.7645" y="666"/>
			<point x="148.74916877" y="642.96340803"/>
			<point x="108.9261864421" y="603.6707848458" type="curve" smooth="yes"/>
			<point x="68.73513958" y="564.01499898"/>
			<point x="43" y="507.8013"/>
			<point x="43" y="442" type="curve" smooth="yes"/>
			<point x="43" y="376"/>
			<point x="68.06372583" y="317.8700858775"/>
			<point x="108.0952771586" y="277.715933288" type="curve" smooth="yes"/>
			<point x="144.7598678525" y="240.93905304"/>
			<point x="193.98035" y="219"/>
			<point x="248" y="219" type="curve" smooth="yes"/>
			<point x="321" y="219"/>
			<point x="361" y="272"/>
			<point x="379" y="315" type="curve"/>
			<point x="380" y="157"/>
			<point x="345.71247" y="86.03886"/>
			<point x="306.2344474133" y="47.0269533542" type="curve" smooth="yes"/>
			<point x="273.6222938776" y="14.7998495692"/>
			<point x="236.78566" y="6"/>
			<point x="211" y="6" type="curve" smooth="yes"/>
			<point x="188" y="6"/>
			<point x="137" y="10"/>
			<point x="111" y="43" type="curve"/>
			<point x="124" y="40"/>
			<point x="162" y="49"/>
			<point x="162" y="89" type="curve" smooth="yes"/>
			<point x="162" y="115"/>
			<point x="144" y="135"/>
			<point x="116" y="135" type="curve" smooth="yes"/>
			<point x="88" y="135"/>
			<point x="69" y="117"/>
			<point x="69" y="87" type="curve" smooth="yes"/>
			<point x="69" y="21"/>
			<point x="122" y="-22"/>
		</contour>
		<contour>
			<point x="250" y="244" type="curve" smooth="yes"/>
			<point x="234" y="244"/>
			<point x="185" y="244"/>
			<point x="153" y="306" type="curve" smooth="yes"/>
			<point x="134" y="344"/>
			<point x="134" y="393"/>
			<point x="134" y="441" type="curve" smooth="yes"/>
			<point x="134" y="489"/>
			<point x="134" y="539"/>
			<point x="155" y="577" type="curve" smooth="yes"/>
			<point x="185" y="628"/>
			<point x="224" y="641"/>
			<point x="260" y="641" type="curve" smooth="yes"/>
			<point x="328" y="641"/>
			<point x="355" y="572"/>
			<point x="359" y="562" type="curve" smooth="yes"/>
			<point x="373" y="525"/>
			<point x="377" y="464"/>
			<point x="377" y="421" type="curve" smooth="yes"/>
			<point x="377" y="348"/>
			<point x="344" y="244"/>
		</contour>
	</outline>
</glyph>
<glyph name="colon" format="2">
	<unicode hex="003A"/>
	<advance width="570"/>
	<outline>
		<contour>
			<point x="392" y="754" type="curve" smooth="yes"/>
			<point x="392" y="814"/>
			<point x="344" y="862"/>
			<point x="284" y="862" type="curve" smooth="yes"/>
			<point x="224" y="862"/>
			<point x="176" y="814"/>
			<point x="176" y="754" type="curve" smooth="yes"/>
			<point x="176" y="696"/>
			<point x="224" y="646"/>
			<point x="284" y="646" type="curve" smooth="yes"/>
			<point x="344" y="646"/>
			<point x="392" y="696"/>
		</contour>
		<contour>
			<point x="392" y="108" type="curve" smooth="yes"/>
			<point x="392" y="166"/>
			<point x="344" y="216"/>
			<point x="284" y="216" type="curve" smooth="yes"/>
			<point x="224" y="216"/>
			<point x="176" y="166"/>
			<point x="176" y="108" type="curve" smooth="yes"/>
			<point x="176" y="48"/>
			<point x="224" y="0"/>
			<point x="284" y="0" type="curve" smooth="yes"/>
			<point x="344" y="0"/>
			<point x="392" y="48"/>
		</contour>
	</outline>
</glyph>
<glyph name="semicolon" format="2">
	<unicode hex="003B"/>
	<advance width="570"/>
	<outline>
		<contour>
			<point x="284" y="646" type="curve" smooth="yes"/>
			<point x="344" y="646"/>
			<point x="392" y="696"/>
			<point x="392" y="754" type="curve" smooth="yes"/>
			<point x="392" y="814"/>
			<point x="344" y="862"/>
			<point x="284" y="862" type="curve" smooth="yes"/>
			<point x="224" y="862"/>
			<point x="176" y="814"/>
			<point x="176" y="754" type="curve" smooth="yes"/>
			<point x="176" y="696"/>
			<point x="224" y="646"/>
		</contour>
		<contour>
			<point x="230" y="-386" type="curve" smooth="yes"/>
			<point x="248" y="-386"/>
			<point x="398" y="-232"/>
			<point x="398" y="8" type="curve" smooth="yes"/>
			<point x="398" y="58"/>
			<point x="398" y="216"/>
			<point x="282" y="216" type="curve" smooth="yes"/>
			<point x="220" y="216"/>
			<point x="176" y="168"/>
			<point x="176" y="108" type="curve" smooth="yes"/>
			<point x="176" y="54"/>
			<point x="214" y="0"/>
			<point x="284" y="0" type="curve" smooth="yes"/>
			<point x="324" y="0"/>
			<point x="336" y="8"/>
			<point x="348" y="18" type="curve"/>
			<point x="348" y="-30"/>
			<point x="346" y="-190"/>
			<point x="220" y="-334" type="curve" smooth="yes"/>
			<point x="204" y="-352"/>
			<point x="204" y="-354"/>
			<point x="204" y="-362" type="curve" smooth="yes"/>
			<point x="204" y="-372"/>
			<point x="216" y="-386"/>
		</contour>
	</outline>
</glyph>
<glyph name="equal" format="2">
	<unicode hex="003D"/>
	<advance width="1598"/>
	<outline>
		<contour>
			<point x="1416" y="662" type="line" smooth="yes"/>
			<point x="1444" y="662"/>
			<point x="1482" y="662"/>
			<point x="1482" y="704" type="curve" smooth="yes"/>
			<point x="1482" y="748"/>
			<point x="1438" y="748"/>
			<point x="1408" y="748" type="curve" smooth="yes"/>
			<point x="188" y="748" type="line" smooth="yes"/>
			<point x="158" y="748"/>
			<point x="114" y="748"/>
			<point x="114" y="704" type="curve" smooth="yes"/>
			<point x="114" y="662"/>
			<point x="154" y="662"/>
			<point x="180" y="662" type="curve" smooth="yes"/>
		</contour>
		<contour>
			<point x="1408" y="254" type="line" smooth="yes"/>
			<point x="1438" y="254"/>
			<point x="1482" y="254"/>
			<point x="1482" y="298" type="curve" smooth="yes"/>
			<point x="1482" y="340"/>
			<point x="1444" y="340"/>
			<point x="1416" y="340" type="curve" smooth="yes"/>
			<point x="180" y="340" type="line" smooth="yes"/>
			<point x="154" y="340"/>
			<point x="114" y="340"/>
			<point x="114" y="298" type="curve" smooth="yes"/>
			<point x="114" y="254"/>
			<point x="158" y="254"/>
			<point x="188" y="254" type="curve" smooth="yes"/>
		</contour>
	</outline>
</glyph>
<glyph name="question" format="2">
	<unicode hex="003F"/>
	<advance width="970"/>
	<outline>
		<contour>
			<point x="854" y="1138" type="curve" smooth="yes"/>
			<point x="854" y="1260"/>
			<point x="768" y="1410"/>
			<point x="464" y="1410" type="curve" smooth="yes"/>
			<point x="242" y="1410"/>
			<point x="114" y="1276"/>
			<point x="114" y="1144" type="curve" smooth="yes"/>
			<point x="114" y="1074"/>
			<point x="162" y="1046"/>
			<point x="208" y="1046" type="curve" smooth="yes"/>
			<point x="260" y="1046"/>
			<point x="300" y="1084"/>
			<point x="300" y="1138" type="curve" smooth="yes"/>
			<point x="300" y="1170"/>
			<point x="284" y="1232"/>
			<point x="196" y="1232" type="curve"/>
			<point x="264" y="1346"/>
			<point x="400" y="1360"/>
			<point x="460" y="1360" type="curve" smooth="yes"/>
			<point x="680" y="1360"/>
			<point x="682" y="1228"/>
			<point x="682" y="1148" type="curve" smooth="yes"/>
			<point x="682" y="1034"/>
			<point x="646" y="996"/>
			<point x="612" y="962" type="curve" smooth="yes"/>
			<point x="428" y="774"/>
			<point x="428" y="548"/>
			<point x="428" y="466" type="curve" smooth="yes"/>
			<point x="428" y="447"/>
			<point x="428" y="429"/>
			<point x="428" y="410" type="curve" smooth="yes"/>
			<point x="428" y="396"/>
			<point x="428" y="378"/>
			<point x="456" y="378" type="curve" smooth="yes"/>
			<point x="484" y="378"/>
			<point x="484" y="392"/>
			<point x="484" y="428" type="curve" smooth="yes"/>
			<point x="484" y="488" type="line" smooth="yes"/>
			<point x="484" y="680"/>
			<point x="588" y="826"/>
			<point x="738" y="930" type="curve" smooth="yes"/>
			<point x="800" y="974"/>
			<point x="854" y="1036"/>
		</contour>
		<contour>
			<point x="564" y="108" type="curve" smooth="yes"/>
			<point x="564" y="168"/>
			<point x="516" y="216"/>
			<point x="456" y="216" type="curve" smooth="yes"/>
			<point x="396" y="216"/>
			<point x="348" y="168"/>
			<point x="348" y="108" type="curve" smooth="yes"/>
			<point x="348" y="48"/>
			<point x="396" y="0"/>
			<point x="456" y="0" type="curve" smooth="yes"/>
			<point x="516" y="0"/>
			<point x="564" y="48"/>
		</contour>
	</outline>
</glyph>
<glyph name="at" format="2">
	<unicode hex="0040"/>
	<advance width="1598"/>
	<outline>
		<contour>
			<point x="810" y="-22" type="curve" smooth="yes"/>
			<point x="939" y="-22"/>
			<point x="1087" y="-4"/>
			<point x="1238" y="37" type="curve" smooth="yes"/>
			<point x="1310" y="57"/>
			<point x="1383" y="82"/>
			<point x="1454" y="112" type="curve" smooth="yes"/>
			<point x="1470" y="120"/>
			<point x="1480" y="124"/>
			<point x="1480" y="140" type="curve" smooth="yes"/>
			<point x="1480" y="162"/>
			<point x="1464" y="162"/>
			<point x="1432" y="162" type="curve" smooth="yes"/>
			<point x="1414" y="162" type="line" smooth="yes"/>
			<point x="1384" y="162"/>
			<point x="1380" y="162"/>
			<point x="1352" y="148" type="curve" smooth="yes"/>
			<point x="1180" y="72"/>
			<point x="996" y="28"/>
			<point x="808" y="28" type="curve" smooth="yes"/>
			<point x="430" y="28"/>
			<point x="170" y="344"/>
			<point x="170" y="694" type="curve" smooth="yes"/>
			<point x="170" y="1066"/>
			<point x="456" y="1360"/>
			<point x="798" y="1360" type="curve" smooth="yes"/>
			<point x="1090" y="1360"/>
			<point x="1426" y="1128"/>
			<point x="1426" y="670" type="curve" smooth="yes"/>
			<point x="1426" y="466"/>
			<point x="1400" y="304"/>
			<point x="1278" y="304" type="curve" smooth="yes"/>
			<point x="1220" y="304"/>
			<point x="1208" y="370"/>
			<point x="1208" y="436" type="curve" smooth="yes"/>
			<point x="1208" y="914" type="line" smooth="yes"/>
			<point x="1208" y="964"/>
			<point x="1208" y="966"/>
			<point x="1152" y="966" type="curve" smooth="yes"/>
			<point x="1130" y="966"/>
			<point x="1106" y="966"/>
			<point x="1084" y="966" type="curve"/>
			<point x="1030" y="1052"/>
			<point x="928" y="1134"/>
			<point x="796" y="1134" type="curve" smooth="yes"/>
			<point x="580" y="1134"/>
			<point x="388" y="944"/>
			<point x="388" y="694" type="curve" smooth="yes"/>
			<point x="388" y="444"/>
			<point x="580" y="254"/>
			<point x="796" y="254" type="curve" smooth="yes"/>
			<point x="936" y="254"/>
			<point x="1026" y="344"/>
			<point x="1062" y="390" type="curve"/>
			<point x="1090" y="276"/>
			<point x="1212" y="254"/>
			<point x="1268" y="254" type="curve" smooth="yes"/>
			<point x="1454" y="254"/>
			<point x="1482" y="472"/>
			<point x="1482" y="678" type="curve" smooth="yes"/>
			<point x="1482" y="1134"/>
			<point x="1140" y="1410"/>
			<point x="798" y="1410" type="curve" smooth="yes"/>
			<point x="424" y="1410"/>
			<point x="114" y="1094"/>
			<point x="114" y="694" type="curve" smooth="yes"/>
			<point x="114" y="322"/>
			<point x="394" y="-22"/>
		</contour>
		<contour>
			<point x="800" y="304" type="curve" smooth="yes"/>
			<point x="656" y="304"/>
			<point x="536" y="476"/>
			<point x="536" y="694" type="curve" smooth="yes"/>
			<point x="536" y="912"/>
			<point x="656" y="1084"/>
			<point x="800" y="1084" type="curve" smooth="yes"/>
			<point x="870" y="1084"/>
			<point x="966" y="1048"/>
			<point x="1036" y="944" type="curve" smooth="yes"/>
			<point x="1060" y="906"/>
			<point x="1060" y="904"/>
			<point x="1060" y="866" type="curve" smooth="yes"/>
			<point x="1060" y="508" type="line" smooth="yes"/>
			<point x="1060" y="434"/>
			<point x="932" y="304"/>
		</contour>
	</outline>
</glyph>
<glyph name="A" format="2">
  <advance width="770"/>
  <unicode hex="0041"/>
  <outline>
    <contour>
      <point x="385" y="716" type="curve" smooth="yes"/>
      <point x="369" y="716"/>
      <point x="367" y="710"/>
      <point x="361" y="694" type="curve" smooth="yes"/>
      <point x="146" y="100" type="line" smooth="yes"/>
      <point x="134" y="67"/>
      <point x="111" y="32"/>
      <point x="34" y="31" type="curve"/>
      <point x="34" y="0" type="line"/>
      <point x="72" y="3"/>
      <point x="99" y="3"/>
      <point x="136" y="3" type="curve" smooth="yes"/>
      <point x="171" y="3"/>
      <point x="193" y="2"/>
      <point x="249" y="0" type="curve"/>
      <point x="249" y="31" type="line"/>
      <point x="192" y="32"/>
      <point x="175" y="63"/>
      <point x="175" y="82" type="curve" smooth="yes"/>
      <point x="175" y="91"/>
      <point x="177" y="96"/>
      <point x="179" y="101" type="curve" smooth="yes"/>
      <point x="226" y="230" type="line"/>
      <point x="485" y="230" type="line"/>
      <point x="539" y="79" type="line" smooth="yes"/>
      <point x="543" y="69"/>
      <point x="544" y="66"/>
      <point x="544" y="61" type="curve" smooth="yes"/>
      <point x="544" y="31"/>
      <point x="488" y="31"/>
      <point x="462" y="31" type="curve"/>
      <point x="462" y="0" type="line"/>
      <point x="507" y="3"/>
      <point x="559" y="3"/>
      <point x="605" y="3" type="curve" smooth="yes"/>
      <point x="650" y="3"/>
      <point x="653" y="3"/>
      <point x="736" y="0" type="curve"/>
      <point x="736" y="31" type="line"/>
      <point x="719" y="31" type="line" smooth="yes"/>
      <point x="657" y="31"/>
      <point x="646" y="40"/>
      <point x="636" y="68" type="curve" smooth="yes"/>
      <point x="409" y="695" type="line" smooth="yes"/>
      <point x="404" y="708"/>
      <point x="401" y="716"/>
    </contour>
    <contour>
      <point x="355" y="588" type="line"/>
      <point x="473" y="261" type="line"/>
      <point x="237" y="261" type="line"/>
    </contour>
  </outline>
</glyph>
<glyph name="B" format="2">
	<unicode hex="0042"/>
	<advance width="1454"/>
	<outline>
		<contour>
			<point x="1340" y="364" type="curve" smooth="yes"/>
			<point x="1340" y="544"/>
			<point x="1166" y="690"/>
			<point x="944" y="714" type="curve"/>
			<point x="1142" y="754"/>
			<point x="1282" y="880"/>
			<point x="1282" y="1028" type="curve" smooth="yes"/>
			<point x="1282" y="1204"/>
			<point x="1090" y="1366"/>
			<point x="826" y="1366" type="curve" smooth="yes"/>
			<point x="82" y="1366" type="line"/>
			<point x="82" y="1304" type="line"/>
			<point x="128" y="1304" type="line" smooth="yes"/>
			<point x="282" y="1304"/>
			<point x="286" y="1282"/>
			<point x="286" y="1208" type="curve" smooth="yes"/>
			<point x="286" y="158" type="line" smooth="yes"/>
			<point x="286" y="84"/>
			<point x="282" y="62"/>
			<point x="128" y="62" type="curve" smooth="yes"/>
			<point x="82" y="62" type="line"/>
			<point x="82" y="0" type="line"/>
			<point x="882" y="0" type="line" smooth="yes"/>
			<point x="1152" y="0"/>
			<point x="1340" y="178"/>
		</contour>
		<contour>
			<point x="454" y="736" type="line"/>
			<point x="454" y="1222" type="line" smooth="yes"/>
			<point x="454" y="1290"/>
			<point x="458" y="1304"/>
			<point x="552" y="1304" type="curve" smooth="yes"/>
			<point x="812" y="1304" type="line" smooth="yes"/>
			<point x="1008" y="1304"/>
			<point x="1090" y="1148"/>
			<point x="1090" y="1028" type="curve" smooth="yes"/>
			<point x="1090" y="874"/>
			<point x="956" y="736"/>
			<point x="768" y="736" type="curve" smooth="yes"/>
		</contour>
		<contour>
			<point x="816" y="62" type="curve" smooth="yes"/>
			<point x="552" y="62" type="line" smooth="yes"/>
			<point x="458" y="62"/>
			<point x="454" y="76"/>
			<point x="454" y="144" type="curve" smooth="yes"/>
			<point x="454" y="686" type="line"/>
			<point x="832" y="686" type="line" smooth="yes"/>
			<point x="1064" y="686"/>
			<point x="1142" y="490"/>
			<point x="1142" y="368" type="curve" smooth="yes"/>
			<point x="1142" y="214"/>
			<point x="1022" y="62"/>
		</contour>
	</outline>
</glyph>
<glyph name="C" format="2">
	<unicode hex="0043"/>
	<advance width="742"/>
	<outline>
		<contour>
			<point x="57" y="342" type="curve" smooth="yes"/>
			<point x="57" y="136"/>
			<point x="223" y="-22"/>
			<point x="415" y="-22" type="curve" smooth="yes"/>
			<point x="581" y="-22"/>
			<point x="684" y="115"/>
			<point x="684" y="232" type="curve" smooth="yes"/>
			<point x="684" y="242"/>
			<point x="684" y="251"/>
			<point x="670" y="251" type="curve" smooth="yes"/>
			<point x="657" y="251"/>
			<point x="657" y="244"/>
			<point x="656" y="235" type="curve"/>
			<point x="648" y="83"/>
			<point x="528" y="9"/>
			<point x="425" y="9" type="curve" smooth="yes"/>
			<point x="378.98525" y="9"/>
			<point x="304.83675704" y="24.5321705925"/>
			<point x="246.4999990902" y="83.2012524519" type="curve" smooth="yes"/>
			<point x="197.0751278725" y="132.9076797075"/>
			<point x="159" y="213.578"/>
			<point x="159" y="342" type="curve" smooth="yes"/>
			<point x="159" y="469.3914"/>
			<point x="196.94400792" y="549.66551544"/>
			<point x="246.0826239876" y="599.2908379948" type="curve" smooth="yes"/>
			<point x="304.56252756" y="658.34997132"/>
			<point x="378.8978" y="674"/>
			<point x="424" y="674" type="curve" smooth="yes"/>
			<point x="523" y="674"/>
			<point x="628" y="599"/>
			<point x="652" y="437" type="curve" smooth="yes"/>
			<point x="654" y="424"/>
			<point x="655" y="419"/>
			<point x="668" y="419" type="curve" smooth="yes"/>
			<point x="684" y="419"/>
			<point x="684" y="424"/>
			<point x="684" y="445" type="curve" smooth="yes"/>
			<point x="684" y="679" type="line" smooth="yes"/>
			<point x="684" y="696"/>
			<point x="684" y="705"/>
			<point x="672" y="705" type="curve" smooth="yes"/>
			<point x="665" y="705"/>
			<point x="662" y="702"/>
			<point x="656" y="693" type="curve" smooth="yes"/>
			<point x="605" y="618" type="line"/>
			<point x="573" y="649"/>
			<point x="516" y="705"/>
			<point x="415" y="705" type="curve" smooth="yes"/>
			<point x="221" y="705"/>
			<point x="57" y="544"/>
		</contour>
	</outline>
</glyph>
<glyph name="D" format="2">
	<unicode hex="0044"/>
	<advance width="1570"/>
	<outline>
		<contour>
			<point x="1454" y="672" type="curve" smooth="yes"/>
			<point x="1454" y="1052"/>
			<point x="1176" y="1366"/>
			<point x="824" y="1366" type="curve" smooth="yes"/>
			<point x="80" y="1366" type="line"/>
			<point x="80" y="1304" type="line"/>
			<point x="96" y="1304"/>
			<point x="110" y="1304"/>
			<point x="126" y="1304" type="curve" smooth="yes"/>
			<point x="280" y="1304"/>
			<point x="284" y="1282"/>
			<point x="284" y="1208" type="curve" smooth="yes"/>
			<point x="284" y="158" type="line" smooth="yes"/>
			<point x="284" y="84"/>
			<point x="280" y="62"/>
			<point x="126" y="62" type="curve" smooth="yes"/>
			<point x="110" y="62"/>
			<point x="96" y="62"/>
			<point x="80" y="62" type="curve"/>
			<point x="80" y="0" type="line"/>
			<point x="824" y="0" type="line" smooth="yes"/>
			<point x="1170" y="0"/>
			<point x="1454" y="296"/>
		</contour>
		<contour>
			<point x="556" y="62" type="line" smooth="yes"/>
			<point x="462" y="62"/>
			<point x="458" y="76"/>
			<point x="458" y="144" type="curve" smooth="yes"/>
			<point x="458" y="1222" type="line" smooth="yes"/>
			<point x="458" y="1290"/>
			<point x="462" y="1304"/>
			<point x="556" y="1304" type="curve" smooth="yes"/>
			<point x="770" y="1304" type="line" smooth="yes"/>
			<point x="964" y="1304"/>
			<point x="1084" y="1202"/>
			<point x="1138" y="1130" type="curve" smooth="yes"/>
			<point x="1226" y="1014"/>
			<point x="1256" y="870"/>
			<point x="1256" y="672" type="curve" smooth="yes"/>
			<point x="1256" y="590"/>
			<point x="1256" y="380"/>
			<point x="1146" y="240" type="curve" smooth="yes"/>
			<point x="1042" y="104"/>
			<point x="898" y="62"/>
			<point x="772" y="62" type="curve" smooth="yes"/>
		</contour>
	</outline>
</glyph>
<glyph name="E" format="2">
	<unicode hex="0045"/>
	<advance width="1398"/>
	<outline>
		<contour>
			<point x="1338" y="516" type="line"/>
			<point x="1282" y="516" type="line"/>
			<point x="1232" y="206"/>
			<point x="1180" y="62"/>
			<point x="838" y="62" type="curve" smooth="yes"/>
			<point x="558" y="62" type="line" smooth="yes"/>
			<point x="464" y="62"/>
			<point x="460" y="76"/>
			<point x="460" y="144" type="curve" smooth="yes"/>
			<point x="460" y="676" type="line"/>
			<point x="646" y="676" type="line" smooth="yes"/>
			<point x="842" y="676"/>
			<point x="866" y="614"/>
			<point x="866" y="442" type="curve"/>
			<point x="922" y="442" type="line"/>
			<point x="922" y="972" type="line"/>
			<point x="866" y="972" type="line"/>
			<point x="866" y="800"/>
			<point x="842" y="738"/>
			<point x="646" y="738" type="curve" smooth="yes"/>
			<point x="460" y="738" type="line"/>
			<point x="460" y="1216" type="line" smooth="yes"/>
			<point x="460" y="1284"/>
			<point x="464" y="1298"/>
			<point x="558" y="1298" type="curve" smooth="yes"/>
			<point x="826" y="1298" type="line" smooth="yes"/>
			<point x="1138" y="1298"/>
			<point x="1194" y="1190"/>
			<point x="1226" y="910" type="curve"/>
			<point x="1282" y="910" type="line"/>
			<point x="1226" y="1360" type="line"/>
			<point x="76" y="1360" type="line"/>
			<point x="76" y="1298" type="line"/>
			<point x="122" y="1298" type="line" smooth="yes"/>
			<point x="276" y="1298"/>
			<point x="280" y="1276"/>
			<point x="280" y="1202" type="curve" smooth="yes"/>
			<point x="280" y="158" type="line" smooth="yes"/>
			<point x="280" y="84"/>
			<point x="276" y="62"/>
			<point x="122" y="62" type="curve" smooth="yes"/>
			<point x="76" y="62" type="line"/>
			<point x="76" y="0" type="line"/>
			<point x="1252" y="0" type="line"/>
		</contour>
	</outline>
</glyph>
<glyph name="F" format="2">
	<unicode hex="0046"/>
	<advance width="1340"/>
	<outline>
		<contour>
			<point x="1198" y="1360" type="line"/>
			<point x="76" y="1360" type="line"/>
			<point x="76" y="1298" type="line"/>
			<point x="122" y="1298" type="line" smooth="yes"/>
			<point x="276" y="1298"/>
			<point x="280" y="1276"/>
			<point x="280" y="1202" type="curve" smooth="yes"/>
			<point x="280" y="158" type="line" smooth="yes"/>
			<point x="280" y="84"/>
			<point x="276" y="62"/>
			<point x="122" y="62" type="curve" smooth="yes"/>
			<point x="76" y="62" type="line"/>
			<point x="76" y="0" type="line"/>
			<point x="166" y="6"/>
			<point x="290" y="6"/>
			<point x="382" y="6" type="curve" smooth="yes"/>
			<point x="462" y="6"/>
			<point x="644" y="6"/>
			<point x="714" y="0" type="curve"/>
			<point x="714" y="62" type="line"/>
			<point x="650" y="62" type="line" smooth="yes"/>
			<point x="468" y="62"/>
			<point x="460" y="86"/>
			<point x="460" y="160" type="curve" smooth="yes"/>
			<point x="460" y="650" type="line"/>
			<point x="640" y="650" type="line" smooth="yes"/>
			<point x="834" y="650"/>
			<point x="856" y="586"/>
			<point x="856" y="416" type="curve"/>
			<point x="912" y="416" type="line"/>
			<point x="912" y="946" type="line"/>
			<point x="856" y="946" type="line"/>
			<point x="856" y="776"/>
			<point x="834" y="712"/>
			<point x="640" y="712" type="curve" smooth="yes"/>
			<point x="460" y="712" type="line"/>
			<point x="460" y="1216" type="line" smooth="yes"/>
			<point x="460" y="1284"/>
			<point x="464" y="1298"/>
			<point x="558" y="1298" type="curve" smooth="yes"/>
			<point x="810" y="1298" type="line" smooth="yes"/>
			<point x="1116" y="1298"/>
			<point x="1166" y="1186"/>
			<point x="1198" y="910" type="curve"/>
			<point x="1254" y="910" type="line"/>
		</contour>
	</outline>
</glyph>
<glyph name="G" format="2">
	<unicode hex="0047"/>
	<advance width="1612"/>
	<outline>
		<contour>
			<point x="832" y="-44" type="curve" smooth="yes"/>
			<point x="928" y="-44"/>
			<point x="1012" y="-40"/>
			<point x="1080" y="-8" type="curve" smooth="yes"/>
			<point x="1144" y="22"/>
			<point x="1192" y="78"/>
			<point x="1220" y="126" type="curve"/>
			<point x="1254" y="72"/>
			<point x="1326" y="2"/>
			<point x="1346" y="2" type="curve" smooth="yes"/>
			<point x="1368" y="2"/>
			<point x="1368" y="20"/>
			<point x="1368" y="52" type="curve" smooth="yes"/>
			<point x="1368" y="167"/>
			<point x="1368" y="281"/>
			<point x="1368" y="396" type="curve" smooth="yes"/>
			<point x="1368" y="476"/>
			<point x="1376" y="486"/>
			<point x="1510" y="486" type="curve"/>
			<point x="1510" y="486"/>
			<point x="1510" y="486"/>
			<point x="1510" y="486" type="curve"/>
			<point x="1510" y="507"/>
			<point x="1510" y="527"/>
			<point x="1510" y="548" type="curve"/>
			<point x="1380" y="542"/>
			<point x="1358" y="542"/>
			<point x="1252" y="542" type="curve" smooth="yes"/>
			<point x="1174" y="542"/>
			<point x="1002" y="542"/>
			<point x="932" y="548" type="curve"/>
			<point x="932" y="527"/>
			<point x="932" y="507"/>
			<point x="932" y="486" type="curve"/>
			<point x="953" y="486"/>
			<point x="975" y="486"/>
			<point x="996" y="486" type="curve" smooth="yes"/>
			<point x="1182" y="486"/>
			<point x="1188" y="462"/>
			<point x="1188" y="388" type="curve" smooth="yes"/>
			<point x="1188" y="346"/>
			<point x="1188" y="304"/>
			<point x="1188" y="262" type="curve" smooth="yes"/>
			<point x="1188" y="162"/>
			<point x="1136" y="88"/>
			<point x="1074" y="54" type="curve" smooth="yes"/>
			<point x="984" y="4"/>
			<point x="874" y="18"/>
			<point x="858" y="18" type="curve" smooth="yes"/>
			<point x="767" y="18"/>
			<point x="612" y="48"/>
			<point x="492" y="170" type="curve" smooth="yes"/>
			<point x="394" y="269"/>
			<point x="318" y="429"/>
			<point x="318" y="684" type="curve" smooth="yes"/>
			<point x="318" y="941"/>
			<point x="395" y="1102"/>
			<point x="495" y="1201" type="curve" smooth="yes"/>
			<point x="611" y="1317"/>
			<point x="758" y="1348"/>
			<point x="848" y="1348" type="curve" smooth="yes"/>
			<point x="1046" y="1348"/>
			<point x="1256" y="1198"/>
			<point x="1304" y="874" type="curve" smooth="yes"/>
			<point x="1308" y="848"/>
			<point x="1310" y="838"/>
			<point x="1336" y="838" type="curve" smooth="yes"/>
			<point x="1368" y="838"/>
			<point x="1368" y="848"/>
			<point x="1368" y="890" type="curve" smooth="yes"/>
			<point x="1368" y="1046"/>
			<point x="1368" y="1202"/>
			<point x="1368" y="1358" type="curve" smooth="yes"/>
			<point x="1368" y="1392"/>
			<point x="1368" y="1410"/>
			<point x="1344" y="1410" type="curve" smooth="yes"/>
			<point x="1330" y="1410"/>
			<point x="1324" y="1404"/>
			<point x="1312" y="1386" type="curve" smooth="yes"/>
			<point x="1278" y="1336"/>
			<point x="1244" y="1286"/>
			<point x="1210" y="1236" type="curve"/>
			<point x="1146" y="1298"/>
			<point x="1032" y="1410"/>
			<point x="830" y="1410" type="curve" smooth="yes"/>
			<point x="442" y="1410"/>
			<point x="114" y="1088"/>
			<point x="114" y="684" type="curve" smooth="yes"/>
			<point x="114" y="276"/>
			<point x="440" y="-44"/>
		</contour>
	</outline>
</glyph>
<glyph name="H" format="2">
	<unicode hex="0048"/>
	<advance width="1540"/>
	<outline>
		<contour>
			<point x="76" y="0" type="line"/>
			<point x="166" y="6"/>
			<point x="278" y="6"/>
			<point x="370" y="6" type="curve" smooth="yes"/>
			<point x="462" y="6"/>
			<point x="574" y="6"/>
			<point x="664" y="0" type="curve"/>
			<point x="664" y="62" type="line"/>
			<point x="618" y="62" type="line" smooth="yes"/>
			<point x="464" y="62"/>
			<point x="460" y="84"/>
			<point x="460" y="158" type="curve" smooth="yes"/>
			<point x="460" y="680" type="line"/>
			<point x="1080" y="680" type="line"/>
			<point x="1080" y="158" type="line" smooth="yes"/>
			<point x="1080" y="84"/>
			<point x="1076" y="62"/>
			<point x="922" y="62" type="curve" smooth="yes"/>
			<point x="876" y="62" type="line"/>
			<point x="876" y="0" type="line"/>
			<point x="966" y="6"/>
			<point x="1078" y="6"/>
			<point x="1170" y="6" type="curve" smooth="yes"/>
			<point x="1262" y="6"/>
			<point x="1374" y="6"/>
			<point x="1464" y="0" type="curve"/>
			<point x="1464" y="62" type="line"/>
			<point x="1418" y="62" type="line" smooth="yes"/>
			<point x="1264" y="62"/>
			<point x="1260" y="84"/>
			<point x="1260" y="158" type="curve" smooth="yes"/>
			<point x="1260" y="1208" type="line" smooth="yes"/>
			<point x="1260" y="1282"/>
			<point x="1264" y="1304"/>
			<point x="1418" y="1304" type="curve" smooth="yes"/>
			<point x="1464" y="1304" type="line"/>
			<point x="1464" y="1366" type="line"/>
			<point x="1374" y="1360"/>
			<point x="1262" y="1360"/>
			<point x="1170" y="1360" type="curve" smooth="yes"/>
			<point x="1078" y="1360"/>
			<point x="966" y="1360"/>
			<point x="876" y="1366" type="curve"/>
			<point x="876" y="1304" type="line"/>
			<point x="922" y="1304" type="line" smooth="yes"/>
			<point x="1076" y="1304"/>
			<point x="1080" y="1282"/>
			<point x="1080" y="1208" type="curve" smooth="yes"/>
			<point x="1080" y="742" type="line"/>
			<point x="460" y="742" type="line"/>
			<point x="460" y="1208" type="line" smooth="yes"/>
			<point x="460" y="1282"/>
			<point x="464" y="1304"/>
			<point x="618" y="1304" type="curve" smooth="yes"/>
			<point x="664" y="1304" type="line"/>
			<point x="664" y="1366" type="line"/>
			<point x="574" y="1360"/>
			<point x="462" y="1360"/>
			<point x="370" y="1360" type="curve" smooth="yes"/>
			<point x="278" y="1360"/>
			<point x="166" y="1360"/>
			<point x="76" y="1366" type="curve"/>
			<point x="76" y="1304" type="line"/>
			<point x="122" y="1304" type="line" smooth="yes"/>
			<point x="276" y="1304"/>
			<point x="280" y="1282"/>
			<point x="280" y="1208" type="curve" smooth="yes"/>
			<point x="280" y="158" type="line" smooth="yes"/>
			<point x="280" y="84"/>
			<point x="276" y="62"/>
			<point x="122" y="62" type="curve" smooth="yes"/>
			<point x="76" y="62" type="line"/>
		</contour>
	</outline>
</glyph>
<glyph name="I" format="2">
	<unicode hex="0049"/>
	<advance width="740"/>
	<outline>
		<contour>
			<point x="66" y="0" type="line"/>
			<point x="148" y="6"/>
			<point x="284" y="6"/>
			<point x="370" y="6" type="curve" smooth="yes"/>
			<point x="456" y="6"/>
			<point x="592" y="6"/>
			<point x="674" y="0" type="curve"/>
			<point x="674" y="62" type="line"/>
			<point x="624" y="62" type="line" smooth="yes"/>
			<point x="464" y="62"/>
			<point x="460" y="86"/>
			<point x="460" y="158" type="curve" smooth="yes"/>
			<point x="460" y="1208" type="line" smooth="yes"/>
			<point x="460" y="1280"/>
			<point x="464" y="1304"/>
			<point x="624" y="1304" type="curve" smooth="yes"/>
			<point x="674" y="1304" type="line"/>
			<point x="674" y="1366" type="line"/>
			<point x="592" y="1360"/>
			<point x="456" y="1360"/>
			<point x="370" y="1360" type="curve" smooth="yes"/>
			<point x="284" y="1360"/>
			<point x="148" y="1360"/>
			<point x="66" y="1366" type="curve"/>
			<point x="66" y="1304" type="line"/>
			<point x="116" y="1304" type="line" smooth="yes"/>
			<point x="276" y="1304"/>
			<point x="280" y="1280"/>
			<point x="280" y="1208" type="curve" smooth="yes"/>
			<point x="280" y="158" type="line" smooth="yes"/>
			<point x="280" y="86"/>
			<point x="276" y="62"/>
			<point x="116" y="62" type="curve" smooth="yes"/>
			<point x="66" y="62" type="line"/>
		</contour>
	</outline>
</glyph>
<glyph name="J" format="2">
  <advance width="528"/>
  <unicode hex="004A"/>
  <outline>
    <contour>
      <point x="210" y="-22" type="curve" smooth="yes"/>
      <point x="315" y="-22"/>
      <point x="399" y="50"/>
      <point x="399" y="145" type="curve" smooth="yes"/>
      <point x="399" y="611" type="line" smooth="yes"/>
      <point x="399" y="652"/>
      <point x="414" y="652"/>
      <point x="475" y="652" type="curve"/>
      <point x="475" y="652" type="line"/>
      <point x="475" y="683" type="line"/>
      <point x="409" y="680"/>
      <point x="397" y="680"/>
      <point x="343" y="680" type="curve" smooth="yes"/>
      <point x="303" y="680"/>
      <point x="215" y="680"/>
      <point x="180" y="683" type="curve"/>
      <point x="180" y="652" type="line"/>
      <point x="214" y="652" type="line" smooth="yes"/>
      <point x="309" y="652"/>
      <point x="312" y="640"/>
      <point x="312" y="603" type="curve" smooth="yes"/>
      <point x="312" y="148" type="line" smooth="yes"/>
      <point x="312" y="56"/>
      <point x="260" y="3"/>
      <point x="208" y="3" type="curve" smooth="yes"/>
      <point x="168" y="3"/>
      <point x="120" y="22"/>
      <point x="95" y="60" type="curve"/>
      <point x="134" y="56"/>
      <point x="157" y="83"/>
      <point x="157" y="114" type="curve" smooth="yes"/>
      <point x="157" y="144"/>
      <point x="135" y="168"/>
      <point x="103" y="168" type="curve" smooth="yes"/>
      <point x="72" y="168"/>
      <point x="48" y="147"/>
      <point x="48" y="112" type="curve" smooth="yes"/>
      <point x="48" y="39"/>
      <point x="118" y="-22"/>
    </contour>
  </outline>
</glyph>
<glyph name="K" format="2">
	<unicode hex="004B"/>
	<advance width="1598"/>
	<outline>
		<contour>
			<point x="76" y="0" type="line"/>
			<point x="166" y="6"/>
			<point x="278" y="6"/>
			<point x="370" y="6" type="curve" smooth="yes"/>
			<point x="462" y="6"/>
			<point x="574" y="6"/>
			<point x="664" y="0" type="curve"/>
			<point x="664" y="62" type="line"/>
			<point x="618" y="62" type="line" smooth="yes"/>
			<point x="464" y="62"/>
			<point x="460" y="84"/>
			<point x="460" y="158" type="curve" smooth="yes"/>
			<point x="460" y="500" type="line"/>
			<point x="704" y="726" type="line"/>
			<point x="1078" y="194" type="line" smooth="yes"/>
			<point x="1094" y="172"/>
			<point x="1112" y="142"/>
			<point x="1112" y="120" type="curve" smooth="yes"/>
			<point x="1112" y="62"/>
			<point x="1034" y="62"/>
			<point x="998" y="62" type="curve"/>
			<point x="998" y="0" type="line"/>
			<point x="1086" y="6"/>
			<point x="1186" y="6"/>
			<point x="1276" y="6" type="curve" smooth="yes"/>
			<point x="1328" y="6"/>
			<point x="1408" y="6"/>
			<point x="1510" y="0" type="curve"/>
			<point x="1510" y="62" type="line"/>
			<point x="1384" y="62"/>
			<point x="1356" y="80"/>
			<point x="1292" y="172" type="curve" smooth="yes"/>
			<point x="824" y="836" type="line"/>
			<point x="1198" y="1182" type="line" smooth="yes"/>
			<point x="1324" y="1300"/>
			<point x="1448" y="1302"/>
			<point x="1482" y="1304" type="curve"/>
			<point x="1482" y="1366" type="line"/>
			<point x="1424" y="1360"/>
			<point x="1324" y="1360"/>
			<point x="1304" y="1360" type="curve" smooth="yes"/>
			<point x="1220" y="1360"/>
			<point x="1146" y="1362"/>
			<point x="1056" y="1366" type="curve"/>
			<point x="1056" y="1304" type="line"/>
			<point x="1112" y="1302"/>
			<point x="1142" y="1276"/>
			<point x="1142" y="1238" type="curve" smooth="yes"/>
			<point x="1142" y="1222"/>
			<point x="1136" y="1206"/>
			<point x="1126" y="1192" type="curve"/>
			<point x="460" y="576" type="line"/>
			<point x="460" y="1208" type="line" smooth="yes"/>
			<point x="460" y="1282"/>
			<point x="464" y="1304"/>
			<point x="618" y="1304" type="curve" smooth="yes"/>
			<point x="664" y="1304" type="line"/>
			<point x="664" y="1366" type="line"/>
			<point x="574" y="1360"/>
			<point x="462" y="1360"/>
			<point x="370" y="1360" type="curve" smooth="yes"/>
			<point x="278" y="1360"/>
			<point x="166" y="1360"/>
			<point x="76" y="1366" type="curve"/>
			<point x="76" y="1304" type="line"/>
			<point x="122" y="1304" type="line" smooth="yes"/>
			<point x="276" y="1304"/>
			<point x="280" y="1282"/>
			<point x="280" y="1208" type="curve" smooth="yes"/>
			<point x="280" y="158" type="line" smooth="yes"/>
			<point x="280" y="84"/>
			<point x="276" y="62"/>
			<point x="122" y="62" type="curve" smooth="yes"/>
			<point x="76" y="62" type="line"/>
		</contour>
	</outline>
</glyph>
<glyph name="L" format="2">
	<unicode hex="004C"/>
	<advance width="642"/>
	<outline>
		<contour>
			<point x="598" y="258" type="line"/>
			<point x="570" y="258" type="line"/>
			<point x="559" y="157"/>
			<point x="545" y="31"/>
			<point x="366" y="31" type="curve" smooth="yes"/>
			<point x="279" y="31" type="line" smooth="yes"/>
			<point x="232" y="31"/>
			<point x="230" y="38"/>
			<point x="230" y="72" type="curve" smooth="yes"/>
			<point x="230" y="603" type="line" smooth="yes"/>
			<point x="230" y="640"/>
			<point x="234" y="652"/>
			<point x="325" y="652" type="curve" smooth="yes"/>
			<point x="357" y="652" type="line"/>
			<point x="357" y="683" type="line"/>
			<point x="322" y="680"/>
			<point x="231" y="680"/>
			<point x="191" y="680" type="curve" smooth="yes"/>
			<point x="145" y="680"/>
			<point x="83" y="680"/>
			<point x="38" y="683" type="curve"/>
			<point x="38" y="652" type="line"/>
			<point x="61" y="652" type="line" smooth="yes"/>
			<point x="138" y="652"/>
			<point x="140" y="641"/>
			<point x="140" y="604" type="curve" smooth="yes"/>
			<point x="140" y="79" type="line" smooth="yes"/>
			<point x="140" y="42"/>
			<point x="138" y="31"/>
			<point x="61" y="31" type="curve" smooth="yes"/>
			<point x="38" y="31" type="line"/>
			<point x="38" y="0" type="line"/>
			<point x="570" y="0" type="line"/>
		</contour>
	</outline>
</glyph>
<glyph name="M" format="2">
	<unicode hex="004D"/>
	<advance width="1882"/>
	<outline>
		<contour>
			<point x="942" y="196" type="line"/>
			<point x="494" y="1322" type="line" smooth="yes"/>
			<point x="478" y="1362"/>
			<point x="476" y="1366"/>
			<point x="422" y="1366" type="curve" smooth="yes"/>
			<point x="86" y="1366" type="line"/>
			<point x="86" y="1304" type="line"/>
			<point x="132" y="1304" type="line" smooth="yes"/>
			<point x="286" y="1304"/>
			<point x="290" y="1282"/>
			<point x="290" y="1208" type="curve" smooth="yes"/>
			<point x="290" y="212" type="line" smooth="yes"/>
			<point x="290" y="158"/>
			<point x="290" y="62"/>
			<point x="86" y="62" type="curve"/>
			<point x="86" y="62" type="line"/>
			<point x="86" y="0" type="line"/>
			<point x="196" y="4"/>
			<point x="224" y="6"/>
			<point x="322" y="6" type="curve" smooth="yes"/>
			<point x="418" y="6"/>
			<point x="448" y="4"/>
			<point x="556" y="0" type="curve"/>
			<point x="556" y="62" type="line"/>
			<point x="556" y="62" type="line"/>
			<point x="352" y="62"/>
			<point x="352" y="158"/>
			<point x="352" y="212" type="curve" smooth="yes"/>
			<point x="352" y="1282" type="line"/>
			<point x="354" y="1284" type="line"/>
			<point x="846" y="44" type="line" smooth="yes"/>
			<point x="856" y="18"/>
			<point x="864" y="0"/>
			<point x="888" y="0" type="curve" smooth="yes"/>
			<point x="910" y="0"/>
			<point x="920" y="18"/>
			<point x="928" y="36" type="curve" smooth="yes"/>
			<point x="1428" y="1300" type="line"/>
			<point x="1430" y="1298" type="line"/>
			<point x="1430" y="158" type="line" smooth="yes"/>
			<point x="1430" y="84"/>
			<point x="1426" y="62"/>
			<point x="1272" y="62" type="curve" smooth="yes"/>
			<point x="1226" y="62" type="line"/>
			<point x="1226" y="0" type="line"/>
			<point x="1346" y="6"/>
			<point x="1480" y="6"/>
			<point x="1510" y="6" type="curve" smooth="yes"/>
			<point x="1522" y="6"/>
			<point x="1670" y="6"/>
			<point x="1796" y="0" type="curve"/>
			<point x="1796" y="62" type="line"/>
			<point x="1750" y="62" type="line" smooth="yes"/>
			<point x="1596" y="62"/>
			<point x="1592" y="84"/>
			<point x="1592" y="158" type="curve" smooth="yes"/>
			<point x="1592" y="1208" type="line" smooth="yes"/>
			<point x="1592" y="1282"/>
			<point x="1596" y="1304"/>
			<point x="1750" y="1304" type="curve" smooth="yes"/>
			<point x="1796" y="1304" type="line"/>
			<point x="1796" y="1366" type="line"/>
			<point x="1460" y="1366" type="line" smooth="yes"/>
			<point x="1418" y="1366"/>
			<point x="1404" y="1366"/>
			<point x="1390" y="1330" type="curve" smooth="yes"/>
		</contour>
	</outline>
</glyph>
<glyph name="N" format="2">
  <advance width="770"/>
  <unicode hex="004E"/>
  <outline>
    <contour>
      <point x="599" y="150" type="line"/>
      <point x="236" y="671" type="line" smooth="yes"/>
      <point x="228" y="683"/>
      <point x="225" y="683"/>
      <point x="206" y="683" type="curve" smooth="yes"/>
      <point x="38" y="683" type="line"/>
      <point x="38" y="652" type="line"/>
      <point x="66" y="652" type="line" smooth="yes"/>
      <point x="114" y="652"/>
      <point x="139" y="645"/>
      <point x="140" y="645" type="curve"/>
      <point x="140" y="645"/>
      <point x="140" y="645"/>
      <point x="140" y="645" type="curve"/>
      <point x="140" y="106" type="line" smooth="yes"/>
      <point x="140" y="79"/>
      <point x="140" y="31"/>
      <point x="38" y="31" type="curve"/>
      <point x="38" y="31" type="line"/>
      <point x="38" y="0" type="line"/>
      <point x="93" y="2"/>
      <point x="107" y="3"/>
      <point x="156" y="3" type="curve" smooth="yes"/>
      <point x="204" y="3"/>
      <point x="219" y="2"/>
      <point x="273" y="0" type="curve"/>
      <point x="273" y="31" type="line"/>
      <point x="273" y="31" type="line"/>
      <point x="171" y="31"/>
      <point x="171" y="79"/>
      <point x="171" y="106" type="curve" smooth="yes"/>
      <point x="171" y="622" type="line"/>
      <point x="171" y="622"/>
      <point x="171" y="622"/>
      <point x="171" y="622" type="curve"/>
      <point x="596" y="12" type="line" smooth="yes"/>
      <point x="604" y="0"/>
      <point x="609" y="0"/>
      <point x="614" y="0" type="curve" smooth="yes"/>
      <point x="630" y="0"/>
      <point x="630" y="8"/>
      <point x="630" y="27" type="curve" smooth="yes"/>
      <point x="630" y="577" type="line" smooth="yes"/>
      <point x="630" y="604"/>
      <point x="630" y="652"/>
      <point x="732" y="652" type="curve"/>
      <point x="732" y="652" type="line"/>
      <point x="732" y="683" type="line"/>
      <point x="678" y="681"/>
      <point x="663" y="680"/>
      <point x="615" y="680" type="curve" smooth="yes"/>
      <point x="566" y="680"/>
      <point x="553" y="681"/>
      <point x="497" y="683" type="curve"/>
      <point x="497" y="652" type="line"/>
      <point x="497" y="652" type="line"/>
      <point x="599" y="652"/>
      <point x="599" y="604"/>
      <point x="599" y="577" type="curve" smooth="yes"/>
    </contour>
  </outline>
</glyph>
<glyph name="O" format="2">
	<unicode hex="004F"/>
	<advance width="1598"/>
	<outline>
		<contour>
			<point x="1482" y="678" type="curve" smooth="yes"/>
			<point x="1482" y="1086"/>
			<point x="1172" y="1410"/>
			<point x="798" y="1410" type="curve" smooth="yes"/>
			<point x="424" y="1410"/>
			<point x="114" y="1084"/>
			<point x="114" y="678" type="curve" smooth="yes"/>
			<point x="114" y="272"/>
			<point x="426" y="-44"/>
			<point x="798" y="-44" type="curve" smooth="yes"/>
			<point x="1170" y="-44"/>
			<point x="1482" y="272"/>
		</contour>
		<contour>
			<point x="798" y="16" type="curve" smooth="yes"/>
			<point x="705" y="16"/>
			<point x="595" y="54"/>
			<point x="504" y="145" type="curve" smooth="yes"/>
			<point x="398" y="252"/>
			<point x="318" y="431"/>
			<point x="318" y="708" type="curve" smooth="yes"/>
			<point x="318" y="958"/>
			<point x="393" y="1122"/>
			<point x="492" y="1221" type="curve" smooth="yes"/>
			<point x="587" y="1316"/>
			<point x="704" y="1354"/>
			<point x="798" y="1354" type="curve" smooth="yes"/>
			<point x="892" y="1354"/>
			<point x="1007" y="1317"/>
			<point x="1101" y="1224" type="curve" smooth="yes"/>
			<point x="1202" y="1124"/>
			<point x="1278" y="960"/>
			<point x="1278" y="708" type="curve" smooth="yes"/>
			<point x="1278" y="431"/>
			<point x="1198" y="252"/>
			<point x="1092" y="145" type="curve" smooth="yes"/>
			<point x="1001" y="54"/>
			<point x="891" y="16"/>
		</contour>
	</outline>
</glyph>
<glyph name="P" format="2">
	<unicode hex="0050"/>
	<advance width="1398"/>
	<outline>
		<contour>
			<point x="464" y="628" type="line"/>
			<point x="798" y="628" type="line" smooth="yes"/>
			<point x="1078" y="628"/>
			<point x="1282" y="802"/>
			<point x="1282" y="994" type="curve" smooth="yes"/>
			<point x="1282" y="1192"/>
			<point x="1076" y="1366"/>
			<point x="798" y="1366" type="curve" smooth="yes"/>
			<point x="80" y="1366" type="line"/>
			<point x="80" y="1304" type="line"/>
			<point x="126" y="1304" type="line" smooth="yes"/>
			<point x="280" y="1304"/>
			<point x="284" y="1282"/>
			<point x="284" y="1208" type="curve" smooth="yes"/>
			<point x="284" y="158" type="line" smooth="yes"/>
			<point x="284" y="84"/>
			<point x="280" y="62"/>
			<point x="126" y="62" type="curve" smooth="yes"/>
			<point x="80" y="62" type="line"/>
			<point x="80" y="0" type="line"/>
			<point x="170" y="6"/>
			<point x="282" y="6"/>
			<point x="374" y="6" type="curve" smooth="yes"/>
			<point x="466" y="6"/>
			<point x="578" y="6"/>
			<point x="668" y="0" type="curve"/>
			<point x="668" y="62" type="line"/>
			<point x="622" y="62" type="line" smooth="yes"/>
			<point x="468" y="62"/>
			<point x="464" y="84"/>
			<point x="464" y="158" type="curve" smooth="yes"/>
		</contour>
		<contour>
			<point x="458" y="684" type="line"/>
			<point x="458" y="1222" type="line" smooth="yes"/>
			<point x="458" y="1290"/>
			<point x="462" y="1304"/>
			<point x="556" y="1304" type="curve" smooth="yes"/>
			<point x="748" y="1304" type="line" smooth="yes"/>
			<point x="1078" y="1304"/>
			<point x="1078" y="1084"/>
			<point x="1078" y="994" type="curve" smooth="yes"/>
			<point x="1078" y="904"/>
			<point x="1078" y="684"/>
			<point x="746" y="684" type="curve" smooth="yes"/>
		</contour>
	</outline>
</glyph>
<glyph name="Q" format="2">
  <advance width="799"/>
  <unicode hex="0051"/>
  <outline>
    <contour>
      <point x="532" y="7" type="curve"/>
      <point x="639" y="51"/>
      <point x="741" y="174"/>
      <point x="741" y="339" type="curve" smooth="yes"/>
      <point x="741" y="543"/>
      <point x="586" y="705"/>
      <point x="399" y="705" type="curve" smooth="yes"/>
      <point x="212" y="705"/>
      <point x="57" y="542"/>
      <point x="57" y="339" type="curve" smooth="yes"/>
      <point x="57" y="136"/>
      <point x="213" y="-22"/>
      <point x="399" y="-22" type="curve" smooth="yes"/>
      <point x="434" y="-22"/>
      <point x="472" y="-15"/>
      <point x="496" y="-8" type="curve"/>
      <point x="514" y="-107"/>
      <point x="529" y="-194"/>
      <point x="622" y="-194" type="curve" smooth="yes"/>
      <point x="726" y="-194"/>
      <point x="747" y="-60"/>
      <point x="747" y="-9" type="curve" smooth="yes"/>
      <point x="747" y="0"/>
      <point x="747" y="12"/>
      <point x="734" y="12" type="curve" smooth="yes"/>
      <point x="727" y="12"/>
      <point x="723" y="6"/>
      <point x="722" y="1" type="curve"/>
      <point x="714" y="-86"/>
      <point x="646" y="-92"/>
      <point x="630" y="-92" type="curve" smooth="yes"/>
      <point x="576" y="-92"/>
      <point x="555" y="-49"/>
    </contour>
    <contour>
      <point x="327" y="20" type="curve"/>
      <point x="230" y="57"/>
      <point x="156" y="160"/>
      <point x="156" y="339" type="curve" smooth="yes"/>
      <point x="156" y="587"/>
      <point x="295" y="677"/>
      <point x="399" y="677" type="curve" smooth="yes"/>
      <point x="503" y="677"/>
      <point x="642" y="588"/>
      <point x="642" y="339" type="curve" smooth="yes"/>
      <point x="642" y="207"/>
      <point x="602" y="101"/>
      <point x="516" y="43" type="curve"/>
      <point x="496" y="93"/>
      <point x="465" y="149"/>
      <point x="400" y="149" type="curve" smooth="yes"/>
      <point x="351" y="149"/>
      <point x="315" y="110"/>
      <point x="315" y="64" type="curve" smooth="yes"/>
      <point x="315" y="40"/>
      <point x="326" y="21"/>
    </contour>
    <contour>
      <point x="488" y="27" type="curve"/>
      <point x="459" y="12"/>
      <point x="425" y="6"/>
      <point x="399" y="6" type="curve" smooth="yes"/>
      <point x="350" y="6"/>
      <point x="340" y="48"/>
      <point x="340" y="64" type="curve" smooth="yes"/>
      <point x="340" y="94"/>
      <point x="362" y="124"/>
      <point x="401" y="124" type="curve" smooth="yes"/>
      <point x="454" y="124"/>
      <point x="475" y="82"/>
    </contour>
  </outline>
</glyph>
<glyph name="S" format="2">
  <advance width="570"/>
  <unicode hex="0053"/>
  <outline>
    <contour>
      <point x="57" y="512" type="curve" smooth="yes"/>
      <point x="57" y="434"/>
      <point x="104" y="386"/>
      <point x="109" y="381" type="curve" smooth="yes"/>
      <point x="154" y="337"/>
      <point x="172" y="332"/>
      <point x="291" y="304" type="curve" smooth="yes"/>
      <point x="372" y="285"/>
      <point x="381" y="283"/>
      <point x="414" y="249" type="curve" smooth="yes"/>
      <point x="415" y="248"/>
      <point x="449" y="211"/>
      <point x="449" y="152" type="curve" smooth="yes"/>
      <point x="449" y="84"/>
      <point x="400" y="9"/>
      <point x="309" y="9" type="curve" smooth="yes"/>
      <point x="232" y="9"/>
      <point x="93" y="41"/>
      <point x="85" y="206" type="curve" smooth="yes"/>
      <point x="84" y="221"/>
      <point x="84" y="227"/>
      <point x="71" y="227" type="curve" smooth="yes"/>
      <point x="57" y="227"/>
      <point x="57" y="219"/>
      <point x="57" y="199" type="curve" smooth="yes"/>
      <point x="57" y="6" type="line" smooth="yes"/>
      <point x="57" y="-14"/>
      <point x="57" y="-22"/>
      <point x="69" y="-22" type="curve" smooth="yes"/>
      <point x="76" y="-22"/>
      <point x="77" y="-21"/>
      <point x="84" y="-9" type="curve" smooth="yes"/>
      <point x="95.988" y="9.981000000000002"/>
      <point x="107.976" y="28.962000000000003"/>
      <point x="120" y="48" type="curve"/>
      <point x="182" y="-12"/>
      <point x="261" y="-22"/>
      <point x="310" y="-22" type="curve" smooth="yes"/>
      <point x="432" y="-22"/>
      <point x="513" y="78"/>
      <point x="513" y="185" type="curve" smooth="yes"/>
      <point x="513" y="242"/>
      <point x="492" y="286"/>
      <point x="468" y="316" type="curve" smooth="yes"/>
      <point x="425" y="371"/>
      <point x="380" y="382"/>
      <point x="315" y="397" type="curve" smooth="yes"/>
      <point x="286" y="404"/>
      <point x="256" y="411"/>
      <point x="227" y="418" type="curve" smooth="yes"/>
      <point x="147" y="438"/>
      <point x="121" y="502"/>
      <point x="121" y="546" type="curve" smooth="yes"/>
      <point x="121" y="613"/>
      <point x="175" y="677"/>
      <point x="259" y="677" type="curve" smooth="yes"/>
      <point x="388" y="677"/>
      <point x="440" y="581"/>
      <point x="454" y="480" type="curve" smooth="yes"/>
      <point x="457" y="461"/>
      <point x="458" y="456"/>
      <point x="470" y="456" type="curve" smooth="yes"/>
      <point x="484" y="456"/>
      <point x="484" y="463"/>
      <point x="484" y="484" type="curve" smooth="yes"/>
      <point x="484" y="677" type="line" smooth="yes"/>
      <point x="484" y="697"/>
      <point x="484" y="705"/>
      <point x="472" y="705" type="curve" smooth="yes"/>
      <point x="465" y="705"/>
      <point x="464" y="704"/>
      <point x="457" y="692" type="curve" smooth="yes"/>
      <point x="445.012" y="673.019"/>
      <point x="433.024" y="654.038"/>
      <point x="421" y="635" type="curve"/>
      <point x="404" y="655"/>
      <point x="352" y="705"/>
      <point x="258" y="705" type="curve" smooth="yes"/>
      <point x="141" y="705"/>
      <point x="57" y="614"/>
    </contour>
  </outline>
</glyph>
<glyph name="T" format="2">
	<unicode hex="0054"/>
	<advance width="1484"/>
	<outline>
		<contour>
			<point x="1368" y="1354" type="line"/>
			<point x="114" y="1354" type="line"/>
			<point x="74" y="904" type="line"/>
			<point x="130" y="904" type="line"/>
			<point x="158" y="1234"/>
			<point x="198" y="1292"/>
			<point x="498" y="1292" type="curve" smooth="yes"/>
			<point x="536" y="1292"/>
			<point x="594" y="1292"/>
			<point x="614" y="1288" type="curve" smooth="yes"/>
			<point x="650" y="1280"/>
			<point x="652" y="1260"/>
			<point x="652" y="1210" type="curve" smooth="yes"/>
			<point x="652" y="160" type="line" smooth="yes"/>
			<point x="652" y="92"/>
			<point x="652" y="62"/>
			<point x="442" y="62" type="curve" smooth="yes"/>
			<point x="364" y="62" type="line"/>
			<point x="364" y="0" type="line"/>
			<point x="436" y="6"/>
			<point x="656" y="6"/>
			<point x="742" y="6" type="curve" smooth="yes"/>
			<point x="828" y="6"/>
			<point x="1048" y="6"/>
			<point x="1120" y="0" type="curve"/>
			<point x="1120" y="62" type="line"/>
			<point x="1042" y="62" type="line" smooth="yes"/>
			<point x="832" y="62"/>
			<point x="832" y="92"/>
			<point x="832" y="160" type="curve" smooth="yes"/>
			<point x="832" y="1210" type="line" smooth="yes"/>
			<point x="832" y="1262"/>
			<point x="834" y="1280"/>
			<point x="874" y="1288" type="curve" smooth="yes"/>
			<point x="894" y="1292"/>
			<point x="948" y="1292"/>
			<point x="984" y="1292" type="curve" smooth="yes"/>
			<point x="1284" y="1292"/>
			<point x="1324" y="1234"/>
			<point x="1352" y="904" type="curve"/>
			<point x="1408" y="904" type="line"/>
		</contour>
	</outline>
</glyph>
<glyph name="U" format="2">
	<unicode hex="0055"/>
	<advance width="1540"/>
	<outline>
		<contour>
			<point x="802" y="18" type="curve" smooth="yes"/>
			<point x="686" y="18"/>
			<point x="460" y="88"/>
			<point x="460" y="448" type="curve" smooth="yes"/>
			<point x="460" y="1208" type="line" smooth="yes"/>
			<point x="460" y="1282"/>
			<point x="464" y="1304"/>
			<point x="618" y="1304" type="curve" smooth="yes"/>
			<point x="664" y="1304" type="line"/>
			<point x="664" y="1366" type="line"/>
			<point x="574" y="1360"/>
			<point x="462" y="1360"/>
			<point x="370" y="1360" type="curve" smooth="yes"/>
			<point x="278" y="1360"/>
			<point x="166" y="1360"/>
			<point x="76" y="1366" type="curve"/>
			<point x="76" y="1304" type="line"/>
			<point x="122" y="1304" type="line" smooth="yes"/>
			<point x="276" y="1304"/>
			<point x="280" y="1282"/>
			<point x="280" y="1208" type="curve" smooth="yes"/>
			<point x="280" y="460" type="line" smooth="yes"/>
			<point x="280" y="168"/>
			<point x="522" y="-44"/>
			<point x="798" y="-44" type="curve" smooth="yes"/>
			<point x="1092" y="-44"/>
			<point x="1260" y="230"/>
			<point x="1260" y="430" type="curve" smooth="yes"/>
			<point x="1260" y="1150" type="line" smooth="yes"/>
			<point x="1260" y="1210"/>
			<point x="1260" y="1304"/>
			<point x="1464" y="1304" type="curve"/>
			<point x="1464" y="1304" type="line"/>
			<point x="1464" y="1366" type="line"/>
			<point x="1356" y="1362"/>
			<point x="1326" y="1360"/>
			<point x="1230" y="1360" type="curve" smooth="yes"/>
			<point x="1132" y="1360"/>
			<point x="1106" y="1362"/>
			<point x="994" y="1366" type="curve"/>
			<point x="994" y="1304" type="line"/>
			<point x="994" y="1304" type="line"/>
			<point x="1198" y="1304"/>
			<point x="1198" y="1208"/>
			<point x="1198" y="1154" type="curve" smooth="yes"/>
			<point x="1198" y="460" type="line" smooth="yes"/>
			<point x="1198" y="188"/>
			<point x="1002" y="18"/>
		</contour>
	</outline>
</glyph>
<glyph name="V" format="2">
	<unicode hex="0056"/>
	<advance width="1540"/>
	<outline>
		<contour>
			<point x="770" y="-44" type="curve" smooth="yes"/>
			<point x="802" y="-44"/>
			<point x="808" y="-32"/>
			<point x="818" y="-4" type="curve" smooth="yes"/>
			<point x="1282" y="1170" type="line" smooth="yes"/>
			<point x="1324" y="1276"/>
			<point x="1406" y="1304"/>
			<point x="1500" y="1304" type="curve"/>
			<point x="1500" y="1304" type="line"/>
			<point x="1500" y="1366" type="line"/>
			<point x="1430" y="1360"/>
			<point x="1372" y="1360"/>
			<point x="1304" y="1360" type="curve" smooth="yes"/>
			<point x="1218" y="1360"/>
			<point x="1178" y="1362"/>
			<point x="1080" y="1366" type="curve"/>
			<point x="1080" y="1304" type="line"/>
			<point x="1178" y="1302"/>
			<point x="1222" y="1256"/>
			<point x="1222" y="1204" type="curve" smooth="yes"/>
			<point x="1222" y="1188"/>
			<point x="1220" y="1184"/>
			<point x="1212" y="1164" type="curve" smooth="yes"/>
			<point x="830" y="194" type="line"/>
			<point x="430" y="1206" type="line" smooth="yes"/>
			<point x="420" y="1230"/>
			<point x="420" y="1242"/>
			<point x="420" y="1244" type="curve" smooth="yes"/>
			<point x="420" y="1304"/>
			<point x="522" y="1304"/>
			<point x="580" y="1304" type="curve"/>
			<point x="580" y="1366" type="line"/>
			<point x="490" y="1360"/>
			<point x="388" y="1360"/>
			<point x="296" y="1360" type="curve" smooth="yes"/>
			<point x="212" y="1360"/>
			<point x="182" y="1362"/>
			<point x="40" y="1366" type="curve"/>
			<point x="40" y="1304" type="line"/>
			<point x="40" y="1304" type="line"/>
			<point x="186" y="1304"/>
			<point x="208" y="1296"/>
			<point x="236" y="1226" type="curve" smooth="yes"/>
			<point x="720" y="0" type="line" smooth="yes"/>
			<point x="732" y="-30"/>
			<point x="738" y="-44"/>
		</contour>
	</outline>
</glyph>
<glyph name="W" format="2">
	<unicode hex="0057"/>
	<advance width="2112"/>
	<outline>
		<contour>
			<point x="734" y="230" type="line"/>
			<point x="408" y="1206" type="line" smooth="yes"/>
			<point x="398" y="1232"/>
			<point x="398" y="1236"/>
			<point x="398" y="1242" type="curve" smooth="yes"/>
			<point x="398" y="1304"/>
			<point x="512" y="1304"/>
			<point x="566" y="1304" type="curve"/>
			<point x="566" y="1366" type="line"/>
			<point x="476" y="1360"/>
			<point x="376" y="1360"/>
			<point x="286" y="1360" type="curve" smooth="yes"/>
			<point x="176" y="1360"/>
			<point x="162" y="1360"/>
			<point x="38" y="1366" type="curve"/>
			<point x="38" y="1304" type="line"/>
			<point x="38" y="1304" type="line"/>
			<point x="152" y="1304"/>
			<point x="192" y="1304"/>
			<point x="218" y="1228" type="curve" smooth="yes"/>
			<point x="628" y="-4" type="line" smooth="yes"/>
			<point x="638" y="-32"/>
			<point x="648" y="-44"/>
			<point x="672" y="-44" type="curve" smooth="yes"/>
			<point x="688" y="-44"/>
			<point x="704" y="-40"/>
			<point x="716" y="-2" type="curve" smooth="yes"/>
			<point x="1054" y="1016" type="line"/>
			<point x="1394" y="4" type="line" smooth="yes"/>
			<point x="1406" y="-30"/>
			<point x="1410" y="-44"/>
			<point x="1438" y="-44" type="curve" smooth="yes"/>
			<point x="1462" y="-44"/>
			<point x="1472" y="-32"/>
			<point x="1482" y="-4" type="curve" smooth="yes"/>
			<point x="1870" y="1162" type="line" smooth="yes"/>
			<point x="1900" y="1252"/>
			<point x="1954" y="1302"/>
			<point x="2072" y="1304" type="curve"/>
			<point x="2072" y="1304" type="line"/>
			<point x="2072" y="1366" type="line"/>
			<point x="2010" y="1360"/>
			<point x="1946" y="1360"/>
			<point x="1884" y="1360" type="curve" smooth="yes"/>
			<point x="1820" y="1360"/>
			<point x="1764" y="1362"/>
			<point x="1648" y="1366" type="curve"/>
			<point x="1648" y="1304" type="line"/>
			<point x="1774" y="1302"/>
			<point x="1820" y="1242"/>
			<point x="1820" y="1196" type="curve" smooth="yes"/>
			<point x="1820" y="1186"/>
			<point x="1816" y="1178"/>
			<point x="1812" y="1164" type="curve" smooth="yes"/>
			<point x="1500" y="230" type="line"/>
			<point x="1172" y="1212" type="line"/>
			<point x="1170" y="1220"/>
			<point x="1164" y="1234"/>
			<point x="1164" y="1242" type="curve" smooth="yes"/>
			<point x="1164" y="1304"/>
			<point x="1278" y="1304"/>
			<point x="1332" y="1304" type="curve"/>
			<point x="1332" y="1366" type="line"/>
			<point x="1242" y="1360"/>
			<point x="1142" y="1360"/>
			<point x="1052" y="1360" type="curve" smooth="yes"/>
			<point x="942" y="1360"/>
			<point x="928" y="1360"/>
			<point x="804" y="1366" type="curve"/>
			<point x="804" y="1304" type="line"/>
			<point x="804" y="1304" type="line"/>
			<point x="906" y="1304"/>
			<point x="944" y="1300"/>
			<point x="966" y="1266" type="curve" smooth="yes"/>
			<point x="984" y="1240"/>
			<point x="1024" y="1104"/>
			<point x="1024" y="1102" type="curve"/>
		</contour>
	</outline>
</glyph>
<glyph name="X" format="2">
	<unicode hex="0058"/>
	<advance width="770"/>
	<outline>
		<contour>
			<point x="413" y="385" type="line"/>
			<point x="555" y="587" type="line" smooth="yes"/>
			<point x="600" y="651"/>
			<point x="680" y="652"/>
			<point x="701" y="652" type="curve"/>
			<point x="701" y="652" type="line"/>
			<point x="701" y="683" type="line"/>
			<point x="650" y="680"/>
			<point x="613" y="680"/>
			<point x="590" y="680" type="curve" smooth="yes"/>
			<point x="551" y="680"/>
			<point x="532" y="681"/>
			<point x="464" y="683" type="curve"/>
			<point x="464" y="652" type="line"/>
			<point x="506" y="651"/>
			<point x="524" y="626"/>
			<point x="524" y="607" type="curve" smooth="yes"/>
			<point x="524" y="598"/>
			<point x="521" y="591"/>
			<point x="513" y="580" type="curve" smooth="yes"/>
			<point x="394" y="412" type="line"/>
			<point x="260" y="605" type="line" smooth="yes"/>
			<point x="257" y="609"/>
			<point x="252" y="616"/>
			<point x="252" y="622" type="curve" smooth="yes"/>
			<point x="252" y="632"/>
			<point x="270" y="651"/>
			<point x="315" y="652" type="curve"/>
			<point x="315" y="683" type="line"/>
			<point x="274" y="680"/>
			<point x="213" y="680"/>
			<point x="170" y="680" type="curve" smooth="yes"/>
			<point x="126" y="680"/>
			<point x="124" y="680"/>
			<point x="40" y="683" type="curve"/>
			<point x="40" y="652" type="line"/>
			<point x="57" y="652" type="line" smooth="yes"/>
			<point x="126" y="652"/>
			<point x="134" y="640"/>
			<point x="154" y="611" type="curve" smooth="yes"/>
			<point x="343" y="339" type="line"/>
			<point x="173" y="97" type="line" smooth="yes"/>
			<point x="127" y="32"/>
			<point x="49" y="31"/>
			<point x="26" y="31" type="curve"/>
			<point x="26" y="31" type="line"/>
			<point x="26" y="0" type="line"/>
			<point x="77" y="3"/>
			<point x="116" y="3"/>
			<point x="138" y="3" type="curve" smooth="yes"/>
			<point x="176" y="3"/>
			<point x="198" y="2"/>
			<point x="263" y="0" type="curve"/>
			<point x="263" y="31" type="line"/>
			<point x="217" y="33"/>
			<point x="203" y="61"/>
			<point x="203" y="76" type="curve" smooth="yes"/>
			<point x="203" y="87"/>
			<point x="208" y="94"/>
			<point x="213" y="101" type="curve" smooth="yes"/>
			<point x="362" y="312" type="line"/>
			<point x="524" y="76" type="line"/>
			<point x="532" y="66"/>
			<point x="532" y="64"/>
			<point x="532" y="61" type="curve" smooth="yes"/>
			<point x="532" y="49"/>
			<point x="510" y="32"/>
			<point x="470" y="31" type="curve"/>
			<point x="470" y="0" type="line"/>
			<point x="515" y="3"/>
			<point x="568" y="3"/>
			<point x="614" y="3" type="curve" smooth="yes"/>
			<point x="658" y="3"/>
			<point x="660" y="3"/>
			<point x="744" y="0" type="curve"/>
			<point x="744" y="31" type="line"/>
			<point x="727" y="31" type="line" smooth="yes"/>
			<point x="679" y="31"/>
			<point x="654" y="35"/>
			<point x="633" y="66" type="curve" smooth="yes"/>
		</contour>
	</outline>
</glyph>
<glyph name="Y" format="2">
	<unicode hex="0059"/>
	<advance width="1540"/>
	<outline>
		<contour>
			<point x="684" y="546" type="line"/>
			<point x="684" y="158" type="line" smooth="yes"/>
			<point x="684" y="84"/>
			<point x="680" y="62"/>
			<point x="526" y="62" type="curve" smooth="yes"/>
			<point x="480" y="62" type="line"/>
			<point x="480" y="0" type="line"/>
			<point x="574" y="6"/>
			<point x="674" y="6"/>
			<point x="770" y="6" type="curve" smooth="yes"/>
			<point x="866" y="6"/>
			<point x="966" y="6"/>
			<point x="1062" y="0" type="curve"/>
			<point x="1062" y="62" type="line"/>
			<point x="1016" y="62" type="line" smooth="yes"/>
			<point x="864" y="62"/>
			<point x="858" y="84"/>
			<point x="858" y="156" type="curve" smooth="yes"/>
			<point x="858" y="546" type="line"/>
			<point x="1254" y="1166" type="line" smooth="yes"/>
			<point x="1294" y="1230"/>
			<point x="1356" y="1302"/>
			<point x="1514" y="1304" type="curve"/>
			<point x="1514" y="1304" type="line"/>
			<point x="1514" y="1366" type="line"/>
			<point x="1444" y="1360"/>
			<point x="1386" y="1360"/>
			<point x="1318" y="1360" type="curve" smooth="yes"/>
			<point x="1248" y="1360"/>
			<point x="1204" y="1362"/>
			<point x="1092" y="1366" type="curve"/>
			<point x="1092" y="1304" type="line"/>
			<point x="1164" y="1304"/>
			<point x="1202" y="1272"/>
			<point x="1202" y="1226" type="curve" smooth="yes"/>
			<point x="1202" y="1202"/>
			<point x="1196" y="1192"/>
			<point x="1180" y="1168" type="curve" smooth="yes"/>
			<point x="838" y="630" type="line"/>
			<point x="462" y="1214" type="line" smooth="yes"/>
			<point x="450" y="1234"/>
			<point x="444" y="1244"/>
			<point x="444" y="1254" type="curve" smooth="yes"/>
			<point x="444" y="1302"/>
			<point x="518" y="1304"/>
			<point x="580" y="1304" type="curve"/>
			<point x="580" y="1366" type="line"/>
			<point x="498" y="1360"/>
			<point x="376" y="1360"/>
			<point x="290" y="1360" type="curve" smooth="yes"/>
			<point x="198" y="1360"/>
			<point x="192" y="1360"/>
			<point x="26" y="1366" type="curve"/>
			<point x="26" y="1304" type="line"/>
			<point x="60" y="1304" type="line" smooth="yes"/>
			<point x="180" y="1304"/>
			<point x="208" y="1288"/>
			<point x="244" y="1232" type="curve" smooth="yes"/>
		</contour>
	</outline>
</glyph>
<glyph name="Z" format="2">
	<unicode hex="005A"/>
	<advance width="1256"/>
	<outline>
		<contour>
			<point x="168" y="0" type="curve" smooth="yes"/>
			<point x="1118" y="0" type="line"/>
			<point x="1152" y="534" type="line"/>
			<point x="1096" y="534" type="line"/>
			<point x="1080" y="258"/>
			<point x="1042" y="68"/>
			<point x="666" y="68" type="curve" smooth="yes"/>
			<point x="324" y="68" type="line"/>
			<point x="1124" y="1292" type="line" smooth="yes"/>
			<point x="1140" y="1316"/>
			<point x="1140" y="1320"/>
			<point x="1140" y="1332" type="curve" smooth="yes"/>
			<point x="1140" y="1366"/>
			<point x="1124" y="1366"/>
			<point x="1086" y="1366" type="curve" smooth="yes"/>
			<point x="164" y="1366" type="line"/>
			<point x="142" y="916" type="line"/>
			<point x="198" y="916" type="line"/>
			<point x="212" y="1170"/>
			<point x="300" y="1304"/>
			<point x="608" y="1304" type="curve" smooth="yes"/>
			<point x="932" y="1304" type="line"/>
			<point x="130" y="78" type="line" smooth="yes"/>
			<point x="114" y="54"/>
			<point x="114" y="50"/>
			<point x="114" y="36" type="curve" smooth="yes"/>
			<point x="114" y="0"/>
			<point x="128" y="0"/>
		</contour>
	</outline>
</glyph>
<glyph name="bracketleft" format="2">
	<unicode hex="005B"/>
	<advance width="285"/>
	<outline>
		<contour>
			<point x="262" y="707" type="line"/>
			<point x="262" y="750" type="line"/>
			<point x="120" y="750" type="line"/>
			<point x="120" y="-250" type="line"/>
			<point x="262" y="-250" type="line"/>
			<point x="262" y="-207" type="line"/>
			<point x="163" y="-207" type="line"/>
			<point x="163" y="707" type="line"/>
		</contour>
	</outline>
</glyph>
<glyph name="bracketright" format="2">
	<unicode hex="005D"/>
	<advance width="570"/>
	<outline>
		<contour>
			<point x="328" y="1500" type="line"/>
			<point x="44" y="1500" type="line"/>
			<point x="44" y="1414" type="line"/>
			<point x="242" y="1414" type="line"/>
			<point x="242" y="-414" type="line"/>
			<point x="44" y="-414" type="line"/>
			<point x="44" y="-500" type="line"/>
			<point x="328" y="-500" type="line"/>
		</contour>
	</outline>
</glyph>
<glyph name="grave" format="2">
	<unicode hex="0060"/>
	<advance width="1026"/>
	<outline>
		<contour>
			<point x="564" y="1016" type="line"/>
			<point x="602" y="1058" type="line"/>
			<point x="364" y="1354" type="line" smooth="yes"/>
			<point x="344" y="1378"/>
			<point x="330" y="1396"/>
			<point x="296" y="1396" type="curve" smooth="yes"/>
			<point x="260" y="1396"/>
			<point x="220" y="1362"/>
			<point x="220" y="1318" type="curve" smooth="yes"/>
			<point x="220" y="1286"/>
			<point x="238" y="1272"/>
			<point x="258" y="1256" type="curve" smooth="yes"/>
		</contour>
	</outline>
</glyph>
<glyph name="a" format="2">
	<unicode hex="0061"/>
	<advance width="1026"/>
	<outline>
		<contour>
			<point x="86" y="196" type="curve" smooth="yes"/>
			<point x="86" y="32"/>
			<point x="280" y="-22"/>
			<point x="414" y="-22" type="curve" smooth="yes"/>
			<point x="580" y="-22"/>
			<point x="656" y="88"/>
			<point x="684" y="144" type="curve"/>
			<point x="694" y="60"/>
			<point x="752" y="-12"/>
			<point x="838" y="-12" type="curve" smooth="yes"/>
			<point x="888" y="-12"/>
			<point x="1014" y="18"/>
			<point x="1014" y="178" type="curve" smooth="yes"/>
			<point x="1014" y="290" type="line"/>
			<point x="958" y="290" type="line"/>
			<point x="958" y="180" type="line" smooth="yes"/>
			<point x="958" y="158"/>
			<point x="958" y="58"/>
			<point x="886" y="58" type="curve" smooth="yes"/>
			<point x="814" y="58"/>
			<point x="814" y="154"/>
			<point x="814" y="186" type="curve" smooth="yes"/>
			<point x="814" y="536" type="line" smooth="yes"/>
			<point x="814" y="650"/>
			<point x="814" y="718"/>
			<point x="724" y="800" type="curve" smooth="yes"/>
			<point x="650" y="866"/>
			<point x="554" y="896"/>
			<point x="454" y="896" type="curve" smooth="yes"/>
			<point x="286" y="896"/>
			<point x="146" y="812"/>
			<point x="146" y="684" type="curve" smooth="yes"/>
			<point x="146" y="622"/>
			<point x="188" y="588"/>
			<point x="240" y="588" type="curve" smooth="yes"/>
			<point x="294" y="588"/>
			<point x="332" y="628"/>
			<point x="332" y="680" type="curve" smooth="yes"/>
			<point x="332" y="766"/>
			<point x="244" y="776"/>
			<point x="242" y="776" type="curve"/>
			<point x="296" y="828"/>
			<point x="392" y="846"/>
			<point x="450" y="846" type="curve" smooth="yes"/>
			<point x="552" y="846"/>
			<point x="666" y="770"/>
			<point x="666" y="594" type="curve" smooth="yes"/>
			<point x="666" y="528" type="line"/>
			<point x="558" y="524"/>
			<point x="408" y="514"/>
			<point x="274" y="450" type="curve" smooth="yes"/>
			<point x="130" y="380"/>
			<point x="86" y="276"/>
		</contour>
		<contour>
			<point x="246" y="196" type="curve" smooth="yes"/>
			<point x="246" y="328"/>
			<point x="360" y="468"/>
			<point x="666" y="480" type="curve"/>
			<point x="666" y="282" type="line" smooth="yes"/>
			<point x="666" y="197"/>
			<point x="637" y="138"/>
			<point x="598" y="98" type="curve" smooth="yes"/>
			<point x="547" y="47"/>
			<point x="478" y="28"/>
			<point x="428" y="28" type="curve" smooth="yes"/>
			<point x="334" y="28"/>
			<point x="246" y="96"/>
		</contour>
	</outline>
</glyph>
<glyph name="b" format="2">
	<unicode hex="0062"/>
	<advance width="1140"/>
	<outline>
		<contour>
			<point x="214" y="0" type="line"/>
			<point x="270" y="0" type="line"/>
			<point x="295" y="41"/>
			<point x="319" y="81"/>
			<point x="344" y="122" type="curve"/>
			<point x="406" y="34"/>
			<point x="506" y="-22"/>
			<point x="614" y="-22" type="curve" smooth="yes"/>
			<point x="852" y="-22"/>
			<point x="1072" y="170"/>
			<point x="1072" y="432" type="curve" smooth="yes"/>
			<point x="1072" y="682"/>
			<point x="874" y="884"/>
			<point x="634" y="884" type="curve" smooth="yes"/>
			<point x="498" y="884"/>
			<point x="404" y="814"/>
			<point x="356" y="760" type="curve"/>
			<point x="356" y="1388" type="line"/>
			<point x="60" y="1366" type="line"/>
			<point x="60" y="1304" type="line"/>
			<point x="196" y="1304"/>
			<point x="214" y="1290"/>
			<point x="214" y="1192" type="curve" smooth="yes"/>
		</contour>
		<contour>
			<point x="604" y="28" type="curve" smooth="yes"/>
			<point x="514" y="28"/>
			<point x="438" y="76"/>
			<point x="390" y="150" type="curve" smooth="yes"/>
			<point x="362" y="192"/>
			<point x="362" y="194"/>
			<point x="362" y="232" type="curve" smooth="yes"/>
			<point x="362" y="638" type="line" smooth="yes"/>
			<point x="362" y="676"/>
			<point x="362" y="678"/>
			<point x="384" y="710" type="curve" smooth="yes"/>
			<point x="452" y="802"/>
			<point x="550" y="834"/>
			<point x="626" y="834" type="curve" smooth="yes"/>
			<point x="712" y="834"/>
			<point x="792" y="786"/>
			<point x="844" y="702" type="curve" smooth="yes"/>
			<point x="896" y="616"/>
			<point x="900" y="498"/>
			<point x="900" y="434" type="curve" smooth="yes"/>
			<point x="900" y="340"/>
			<point x="888" y="234"/>
			<point x="836" y="154" type="curve" smooth="yes"/>
			<point x="792" y="90"/>
			<point x="710" y="28"/>
		</contour>
	</outline>
</glyph>
<glyph name="c" format="2">
	<unicode hex="0063"/>
	<advance width="456"/>
	<outline>
		<contour>
			<point x="120" y="217" type="curve" smooth="yes"/>
			<point x="120" y="373"/>
			<point x="200" y="420"/>
			<point x="260" y="420" type="curve" smooth="yes"/>
			<point x="273" y="420"/>
			<point x="327" y="418"/>
			<point x="364" y="393" type="curve"/>
			<point x="343" y="389"/>
			<point x="323" y="375"/>
			<point x="323" y="346" type="curve" smooth="yes"/>
			<point x="323" y="320"/>
			<point x="343" y="300"/>
			<point x="369" y="300" type="curve" smooth="yes"/>
			<point x="395" y="300"/>
			<point x="416" y="317"/>
			<point x="416" y="348" type="curve" smooth="yes"/>
			<point x="416" y="410"/>
			<point x="346" y="448"/>
			<point x="258" y="448" type="curve" smooth="yes"/>
			<point x="130" y="448"/>
			<point x="34" y="341"/>
			<point x="34" y="216" type="curve" smooth="yes"/>
			<point x="34" y="87"/>
			<point x="138" y="-11"/>
			<point x="256" y="-11" type="curve" smooth="yes"/>
			<point x="395" y="-11"/>
			<point x="427" y="110"/>
			<point x="427" y="119" type="curve" smooth="yes"/>
			<point x="427" y="131"/>
			<point x="416" y="131"/>
			<point x="413" y="131" type="curve" smooth="yes"/>
			<point x="402" y="131"/>
			<point x="402" y="129"/>
			<point x="396" y="112" type="curve" smooth="yes"/>
			<point x="373" y="43"/>
			<point x="317" y="17"/>
			<point x="266" y="17" type="curve" smooth="yes"/>
			<point x="202" y="17"/>
			<point x="120" y="69"/>
		</contour>
	</outline>
</glyph>
<glyph name="d" format="2">
	<unicode hex="0064"/>
	<advance width="1140"/>
	<outline>
		<contour>
			<point x="778" y="106" type="curve"/>
			<point x="778" y="-22" type="line"/>
			<point x="1080" y="0" type="line"/>
			<point x="1080" y="62" type="line"/>
			<point x="944" y="62"/>
			<point x="926" y="76"/>
			<point x="926" y="174" type="curve" smooth="yes"/>
			<point x="926" y="1388" type="line"/>
			<point x="630" y="1366" type="line"/>
			<point x="630" y="1304" type="line"/>
			<point x="766" y="1304"/>
			<point x="784" y="1290"/>
			<point x="784" y="1192" type="curve" smooth="yes"/>
			<point x="784" y="766" type="line"/>
			<point x="774" y="778"/>
			<point x="684" y="884"/>
			<point x="528" y="884" type="curve" smooth="yes"/>
			<point x="282" y="884"/>
			<point x="68" y="688"/>
			<point x="68" y="430" type="curve" smooth="yes"/>
			<point x="68" y="180"/>
			<point x="268" y="-22"/>
			<point x="506" y="-22" type="curve" smooth="yes"/>
			<point x="652" y="-22"/>
			<point x="742" y="64"/>
		</contour>
		<contour>
			<point x="240" y="428" type="curve" smooth="yes"/>
			<point x="240" y="522"/>
			<point x="252" y="628"/>
			<point x="304" y="708" type="curve" smooth="yes"/>
			<point x="348" y="772"/>
			<point x="430" y="834"/>
			<point x="536" y="834" type="curve" smooth="yes"/>
			<point x="620" y="834"/>
			<point x="700" y="792"/>
			<point x="754" y="716" type="curve" smooth="yes"/>
			<point x="778" y="684"/>
			<point x="778" y="682"/>
			<point x="778" y="644" type="curve" smooth="yes"/>
			<point x="778" y="240" type="line" smooth="yes"/>
			<point x="778" y="204"/>
			<point x="778" y="198"/>
			<point x="748" y="156" type="curve" smooth="yes"/>
			<point x="686" y="66"/>
			<point x="594" y="28"/>
			<point x="514" y="28" type="curve" smooth="yes"/>
			<point x="428" y="28"/>
			<point x="348" y="76"/>
			<point x="296" y="160" type="curve" smooth="yes"/>
			<point x="244" y="246"/>
			<point x="240" y="364"/>
		</contour>
	</outline>
</glyph>
<glyph name="e" format="2">
	<unicode hex="0065"/>
	<advance width="457"/>
	<outline>
		<contour>
			<point x="115" y="229" type="curve"/>
			<point x="400" y="229" type="line" smooth="yes"/>
			<point x="422" y="229"/>
			<point x="427" y="229"/>
			<point x="427" y="250" type="curve" smooth="yes"/>
			<point x="427" y="353"/>
			<point x="371" y="448"/>
			<point x="243" y="448" type="curve" smooth="yes"/>
			<point x="123" y="448"/>
			<point x="29" y="344"/>
			<point x="29" y="220" type="curve" smooth="yes"/>
			<point x="29" y="89"/>
			<point x="134" y="-11"/>
			<point x="256" y="-11" type="curve" smooth="yes"/>
			<point x="378" y="-11"/>
			<point x="427" y="96"/>
			<point x="427" y="119" type="curve" smooth="yes"/>
			<point x="427" y="126"/>
			<point x="422" y="132"/>
			<point x="413" y="132" type="curve" smooth="yes"/>
			<point x="403" y="132"/>
			<point x="400" y="125"/>
			<point x="399" y="121" type="curve"/>
			<point x="365" y="19"/>
			<point x="276" y="17"/>
			<point x="261" y="17" type="curve" smooth="yes"/>
			<point x="213" y="17"/>
			<point x="172" y="44"/>
			<point x="149" y="78" type="curve" smooth="yes"/>
			<point x="116" y="127"/>
			<point x="115" y="187"/>
		</contour>
		<contour>
			<point x="116" y="253" type="line"/>
			<point x="125" y="407"/>
			<point x="215" y="423"/>
			<point x="243" y="423" type="curve" smooth="yes"/>
			<point x="298" y="423"/>
			<point x="358" y="381"/>
			<point x="359" y="253" type="curve"/>
		</contour>
	</outline>
</glyph>
<glyph name="f" format="2">
	<unicode hex="0066"/>
	<advance width="628"/>
	<outline>
		<contour>
			<point x="226" y="154" type="line" smooth="yes"/>
			<point x="226" y="62"/>
			<point x="204" y="62"/>
			<point x="72" y="62" type="curve"/>
			<point x="72" y="62" type="line"/>
			<point x="72" y="0" type="line"/>
			<point x="178" y="4"/>
			<point x="204" y="6"/>
			<point x="306" y="6" type="curve" smooth="yes"/>
			<point x="386" y="6"/>
			<point x="434" y="4"/>
			<point x="560" y="0" type="curve"/>
			<point x="560" y="62" type="line"/>
			<point x="520" y="62" type="line" smooth="yes"/>
			<point x="374" y="62"/>
			<point x="368" y="84"/>
			<point x="368" y="158" type="curve" smooth="yes"/>
			<point x="368" y="800" type="line"/>
			<point x="600" y="800" type="line"/>
			<point x="600" y="862" type="line"/>
			<point x="362" y="862" type="line"/>
			<point x="362" y="1088" type="line" smooth="yes"/>
			<point x="362" y="1270"/>
			<point x="460" y="1360"/>
			<point x="546" y="1360" type="curve" smooth="yes"/>
			<point x="566" y="1360"/>
			<point x="586" y="1356"/>
			<point x="606" y="1348" type="curve"/>
			<point x="586" y="1340"/>
			<point x="554" y="1316"/>
			<point x="554" y="1266" type="curve" smooth="yes"/>
			<point x="554" y="1214"/>
			<point x="592" y="1178"/>
			<point x="642" y="1178" type="curve" smooth="yes"/>
			<point x="696" y="1178"/>
			<point x="732" y="1216"/>
			<point x="732" y="1268" type="curve" smooth="yes"/>
			<point x="732" y="1344"/>
			<point x="656" y="1410"/>
			<point x="546" y="1410" type="curve" smooth="yes"/>
			<point x="390" y="1410"/>
			<point x="226" y="1292"/>
			<point x="226" y="1092" type="curve" smooth="yes"/>
			<point x="226" y="862" type="line"/>
			<point x="68" y="862" type="line"/>
			<point x="68" y="800" type="line"/>
			<point x="226" y="800" type="line"/>
		</contour>
	</outline>
</glyph>
<glyph name="g" format="2">
	<unicode hex="0067"/>
	<advance width="1026"/>
	<outline>
		<contour>
			<point x="512" y="-412" type="curve" smooth="yes"/>
			<point x="758" y="-412"/>
			<point x="968" y="-306"/>
			<point x="968" y="-152" type="curve" smooth="yes"/>
			<point x="968" y="-70"/>
			<point x="930" y="18"/>
			<point x="856" y="66" type="curve" smooth="yes"/>
			<point x="744" y="136"/>
			<point x="628" y="136"/>
			<point x="438" y="136" type="curve" smooth="yes"/>
			<point x="398" y="136"/>
			<point x="334" y="136"/>
			<point x="318" y="140" type="curve" smooth="yes"/>
			<point x="260" y="152"/>
			<point x="222" y="206"/>
			<point x="222" y="270" type="curve" smooth="yes"/>
			<point x="222" y="302"/>
			<point x="232" y="332"/>
			<point x="250" y="358" type="curve"/>
			<point x="300" y="326"/>
			<point x="362" y="296"/>
			<point x="454" y="296" type="curve" smooth="yes"/>
			<point x="644" y="296"/>
			<point x="788" y="432"/>
			<point x="788" y="590" type="curve" smooth="yes"/>
			<point x="788" y="688"/>
			<point x="732" y="756"/>
			<point x="706" y="784" type="curve"/>
			<point x="786" y="856"/>
			<point x="880" y="856"/>
			<point x="904" y="856" type="curve"/>
			<point x="894" y="850"/>
			<point x="878" y="840"/>
			<point x="878" y="804" type="curve" smooth="yes"/>
			<point x="878" y="782"/>
			<point x="892" y="744"/>
			<point x="938" y="744" type="curve" smooth="yes"/>
			<point x="966" y="744"/>
			<point x="998" y="764"/>
			<point x="998" y="806" type="curve" smooth="yes"/>
			<point x="998" y="844"/>
			<point x="970" y="906"/>
			<point x="890" y="906" type="curve" smooth="yes"/>
			<point x="832" y="906"/>
			<point x="742" y="884"/>
			<point x="672" y="812" type="curve"/>
			<point x="618" y="856"/>
			<point x="540" y="884"/>
			<point x="456" y="884" type="curve" smooth="yes"/>
			<point x="266" y="884"/>
			<point x="122" y="748"/>
			<point x="122" y="590" type="curve" smooth="yes"/>
			<point x="122" y="488"/>
			<point x="182" y="416"/>
			<point x="214" y="386" type="curve"/>
			<point x="210" y="382"/>
			<point x="154" y="312"/>
			<point x="154" y="220" type="curve" smooth="yes"/>
			<point x="154" y="152"/>
			<point x="186" y="80"/>
			<point x="240" y="44" type="curve"/>
			<point x="138" y="12"/>
			<point x="58" y="-62"/>
			<point x="58" y="-156" type="curve" smooth="yes"/>
			<point x="58" y="-298"/>
			<point x="256" y="-412"/>
		</contour>
		<contour>
			<point x="454" y="350" type="curve" smooth="yes"/>
			<point x="276" y="350"/>
			<point x="276" y="546"/>
			<point x="276" y="590" type="curve" smooth="yes"/>
			<point x="276" y="644"/>
			<point x="280" y="712"/>
			<point x="314" y="760" type="curve" smooth="yes"/>
			<point x="344" y="800"/>
			<point x="398" y="830"/>
			<point x="454" y="830" type="curve" smooth="yes"/>
			<point x="634" y="830"/>
			<point x="634" y="636"/>
			<point x="634" y="590" type="curve" smooth="yes"/>
			<point x="634" y="558"/>
			<point x="634" y="453"/>
			<point x="572" y="393" type="curve" smooth="yes"/>
			<point x="546" y="367"/>
			<point x="508" y="350"/>
		</contour>
		<contour>
			<point x="514" y="-358" type="curve" smooth="yes"/>
			<point x="318" y="-358"/>
			<point x="170" y="-264"/>
			<point x="170" y="-154" type="curve" smooth="yes"/>
			<point x="170" y="-132"/>
			<point x="179" y="-65"/>
			<point x="238" y="-23" type="curve" smooth="yes"/>
			<point x="267" y="-4"/>
			<point x="306" y="10"/>
			<point x="362" y="10" type="curve" smooth="yes"/>
			<point x="546" y="10" type="line" smooth="yes"/>
			<point x="610" y="10"/>
			<point x="856" y="8"/>
			<point x="856" y="-154" type="curve" smooth="yes"/>
			<point x="856" y="-268"/>
			<point x="702" y="-358"/>
		</contour>
	</outline>
</glyph>
<glyph name="k" format="2">
	<unicode hex="006B"/>
	<advance width="1084"/>
	<outline>
		<contour>
			<point x="578" y="546" type="line"/>
			<point x="578" y="546" type="line"/>
			<point x="774" y="716"/>
			<point x="866" y="794"/>
			<point x="1002" y="800" type="curve"/>
			<point x="1002" y="862" type="line"/>
			<point x="932" y="856"/>
			<point x="928" y="856"/>
			<point x="854" y="856" type="curve" smooth="yes"/>
			<point x="794" y="856"/>
			<point x="742" y="858"/>
			<point x="634" y="862" type="curve"/>
			<point x="634" y="800" type="line"/>
			<point x="664" y="798"/>
			<point x="688" y="784"/>
			<point x="688" y="752" type="curve" smooth="yes"/>
			<point x="688" y="714"/>
			<point x="656" y="688"/>
			<point x="638" y="672" type="curve" smooth="yes"/>
			<point x="356" y="434" type="line"/>
			<point x="356" y="1388" type="line"/>
			<point x="60" y="1366" type="line"/>
			<point x="60" y="1304" type="line"/>
			<point x="196" y="1304"/>
			<point x="214" y="1290"/>
			<point x="214" y="1192" type="curve" smooth="yes"/>
			<point x="214" y="154" type="line" smooth="yes"/>
			<point x="214" y="62"/>
			<point x="192" y="62"/>
			<point x="60" y="62" type="curve"/>
			<point x="60" y="62" type="line"/>
			<point x="60" y="0" type="line"/>
			<point x="148" y="4"/>
			<point x="198" y="6"/>
			<point x="282" y="6" type="curve" smooth="yes"/>
			<point x="364" y="6"/>
			<point x="414" y="4"/>
			<point x="504" y="0" type="curve"/>
			<point x="504" y="62" type="line"/>
			<point x="504" y="62" type="line"/>
			<point x="372" y="62"/>
			<point x="350" y="62"/>
			<point x="350" y="154" type="curve" smooth="yes"/>
			<point x="350" y="356" type="line"/>
			<point x="393" y="392"/>
			<point x="435" y="428"/>
			<point x="478" y="464" type="curve"/>
			<point x="672" y="202" type="line" smooth="yes"/>
			<point x="704" y="158"/>
			<point x="720" y="134"/>
			<point x="720" y="106" type="curve" smooth="yes"/>
			<point x="720" y="86"/>
			<point x="714" y="62"/>
			<point x="652" y="62" type="curve"/>
			<point x="652" y="0" type="line"/>
			<point x="742" y="4"/>
			<point x="790" y="6"/>
			<point x="868" y="6" type="curve" smooth="yes"/>
			<point x="926" y="6"/>
			<point x="990" y="6"/>
			<point x="1048" y="0" type="curve"/>
			<point x="1048" y="62" type="line"/>
			<point x="982" y="62"/>
			<point x="934" y="64"/>
			<point x="862" y="160" type="curve" smooth="yes"/>
		</contour>
	</outline>
</glyph>
<glyph name="l" format="2">
	<unicode hex="006C"/>
	<advance width="570"/>
	<outline>
		<contour>
			<point x="368" y="1388" type="line"/>
			<point x="72" y="1366" type="line"/>
			<point x="72" y="1304" type="line"/>
			<point x="208" y="1304"/>
			<point x="226" y="1290"/>
			<point x="226" y="1192" type="curve" smooth="yes"/>
			<point x="226" y="154" type="line" smooth="yes"/>
			<point x="226" y="62"/>
			<point x="204" y="62"/>
			<point x="72" y="62" type="curve"/>
			<point x="72" y="62" type="line"/>
			<point x="72" y="0" type="line"/>
			<point x="166" y="4"/>
			<point x="204" y="6"/>
			<point x="296" y="6" type="curve" smooth="yes"/>
			<point x="390" y="6"/>
			<point x="424" y="4"/>
			<point x="522" y="0" type="curve"/>
			<point x="522" y="62" type="line"/>
			<point x="522" y="62" type="line"/>
			<point x="390" y="62"/>
			<point x="368" y="62"/>
			<point x="368" y="154" type="curve" smooth="yes"/>
		</contour>
	</outline>
</glyph>
<glyph name="m" format="2">
	<unicode hex="006D"/>
	<advance width="1712"/>
	<outline>
		<contour>
			<point x="224" y="154" type="line" smooth="yes"/>
			<point x="224" y="62"/>
			<point x="202" y="62"/>
			<point x="70" y="62" type="curve"/>
			<point x="70" y="62" type="line"/>
			<point x="70" y="0" type="line"/>
			<point x="164" y="4"/>
			<point x="202" y="6"/>
			<point x="298" y="6" type="curve" smooth="yes"/>
			<point x="394" y="6"/>
			<point x="420" y="4"/>
			<point x="526" y="0" type="curve"/>
			<point x="526" y="62" type="line"/>
			<point x="526" y="62" type="line"/>
			<point x="394" y="62"/>
			<point x="372" y="62"/>
			<point x="372" y="154" type="curve" smooth="yes"/>
			<point x="372" y="518" type="line" smooth="yes"/>
			<point x="372" y="734"/>
			<point x="528" y="834"/>
			<point x="648" y="834" type="curve" smooth="yes"/>
			<point x="758" y="834"/>
			<point x="794" y="756"/>
			<point x="794" y="616" type="curve" smooth="yes"/>
			<point x="794" y="154" type="line" smooth="yes"/>
			<point x="794" y="62"/>
			<point x="772" y="62"/>
			<point x="640" y="62" type="curve"/>
			<point x="640" y="62" type="line"/>
			<point x="640" y="0" type="line"/>
			<point x="734" y="4"/>
			<point x="772" y="6"/>
			<point x="868" y="6" type="curve" smooth="yes"/>
			<point x="964" y="6"/>
			<point x="990" y="4"/>
			<point x="1096" y="0" type="curve"/>
			<point x="1096" y="62" type="line"/>
			<point x="1096" y="62" type="line"/>
			<point x="964" y="62"/>
			<point x="942" y="62"/>
			<point x="942" y="154" type="curve" smooth="yes"/>
			<point x="942" y="518" type="line" smooth="yes"/>
			<point x="942" y="734"/>
			<point x="1098" y="834"/>
			<point x="1218" y="834" type="curve" smooth="yes"/>
			<point x="1328" y="834"/>
			<point x="1364" y="756"/>
			<point x="1364" y="616" type="curve" smooth="yes"/>
			<point x="1364" y="154" type="line" smooth="yes"/>
			<point x="1364" y="62"/>
			<point x="1342" y="62"/>
			<point x="1210" y="62" type="curve"/>
			<point x="1210" y="62" type="line"/>
			<point x="1210" y="0" type="line"/>
			<point x="1304" y="4"/>
			<point x="1342" y="6"/>
			<point x="1438" y="6" type="curve" smooth="yes"/>
			<point x="1534" y="6"/>
			<point x="1560" y="4"/>
			<point x="1666" y="0" type="curve"/>
			<point x="1666" y="62" type="line"/>
			<point x="1666" y="62" type="line"/>
			<point x="1564" y="62"/>
			<point x="1514" y="62"/>
			<point x="1512" y="124" type="curve" smooth="yes"/>
			<point x="1512" y="508" type="line" smooth="yes"/>
			<point x="1512" y="682"/>
			<point x="1512" y="738"/>
			<point x="1446" y="812" type="curve" smooth="yes"/>
			<point x="1404" y="860"/>
			<point x="1324" y="884"/>
			<point x="1232" y="884" type="curve" smooth="yes"/>
			<point x="1088" y="884"/>
			<point x="990" y="800"/>
			<point x="934" y="694" type="curve"/>
			<point x="910" y="812"/>
			<point x="830" y="884"/>
			<point x="662" y="884" type="curve" smooth="yes"/>
			<point x="502" y="884"/>
			<point x="404" y="780"/>
			<point x="362" y="688" type="curve"/>
			<point x="360" y="688" type="line"/>
			<point x="360" y="884" type="line"/>
			<point x="70" y="862" type="line"/>
			<point x="70" y="800" type="line"/>
			<point x="206" y="800"/>
			<point x="224" y="786"/>
			<point x="224" y="688" type="curve" smooth="yes"/>
		</contour>
	</outline>
</glyph>
<glyph name="n" format="2">
	<unicode hex="006E"/>
	<advance width="1140"/>
	<outline>
		<contour>
			<point x="224" y="154" type="line" smooth="yes"/>
			<point x="224" y="62"/>
			<point x="202" y="62"/>
			<point x="70" y="62" type="curve"/>
			<point x="70" y="62" type="line"/>
			<point x="70" y="0" type="line"/>
			<point x="164" y="4"/>
			<point x="202" y="6"/>
			<point x="298" y="6" type="curve" smooth="yes"/>
			<point x="394" y="6"/>
			<point x="420" y="4"/>
			<point x="526" y="0" type="curve"/>
			<point x="526" y="62" type="line"/>
			<point x="526" y="62" type="line"/>
			<point x="394" y="62"/>
			<point x="372" y="62"/>
			<point x="372" y="154" type="curve" smooth="yes"/>
			<point x="372" y="518" type="line" smooth="yes"/>
			<point x="372" y="730"/>
			<point x="522" y="834"/>
			<point x="648" y="834" type="curve" smooth="yes"/>
			<point x="766" y="834"/>
			<point x="792" y="736"/>
			<point x="792" y="616" type="curve" smooth="yes"/>
			<point x="792" y="154" type="line" smooth="yes"/>
			<point x="792" y="62"/>
			<point x="770" y="62"/>
			<point x="638" y="62" type="curve"/>
			<point x="638" y="62" type="line"/>
			<point x="638" y="0" type="line"/>
			<point x="732" y="4"/>
			<point x="770" y="6"/>
			<point x="866" y="6" type="curve" smooth="yes"/>
			<point x="962" y="6"/>
			<point x="988" y="4"/>
			<point x="1094" y="0" type="curve"/>
			<point x="1094" y="62" type="line"/>
			<point x="1094" y="62" type="line"/>
			<point x="992" y="62"/>
			<point x="942" y="62"/>
			<point x="940" y="124" type="curve" smooth="yes"/>
			<point x="940" y="508" type="line" smooth="yes"/>
			<point x="940" y="674"/>
			<point x="940" y="732"/>
			<point x="884" y="802" type="curve" smooth="yes"/>
			<point x="838" y="858"/>
			<point x="762" y="884"/>
			<point x="662" y="884" type="curve" smooth="yes"/>
			<point x="476" y="884"/>
			<point x="390" y="746"/>
			<point x="362" y="690" type="curve"/>
			<point x="360" y="690" type="line"/>
			<point x="360" y="884" type="line"/>
			<point x="70" y="862" type="line"/>
			<point x="70" y="800" type="line"/>
			<point x="206" y="800"/>
			<point x="224" y="786"/>
			<point x="224" y="688" type="curve" smooth="yes"/>
		</contour>
	</outline>
</glyph>
<glyph name="o" format="2">
	<unicode hex="006F"/>
	<advance width="1026"/>
	<outline>
		<contour>
			<point x="968" y="426" type="curve" smooth="yes"/>
			<point x="968" y="688"/>
			<point x="760" y="896"/>
			<point x="514" y="896" type="curve" smooth="yes"/>
			<point x="260" y="896"/>
			<point x="58" y="682"/>
			<point x="58" y="426" type="curve" smooth="yes"/>
			<point x="58" y="176"/>
			<point x="266" y="-22"/>
			<point x="512" y="-22" type="curve" smooth="yes"/>
			<point x="766" y="-22"/>
			<point x="968" y="180"/>
		</contour>
		<contour>
			<point x="514" y="34" type="curve" smooth="yes"/>
			<point x="414" y="34"/>
			<point x="330" y="84"/>
			<point x="284" y="162" type="curve" smooth="yes"/>
			<point x="232" y="246"/>
			<point x="230" y="352"/>
			<point x="230" y="444" type="curve" smooth="yes"/>
			<point x="230" y="518"/>
			<point x="230" y="632"/>
			<point x="280" y="714" type="curve" smooth="yes"/>
			<point x="340" y="816"/>
			<point x="440" y="846"/>
			<point x="512" y="846" type="curve" smooth="yes"/>
			<point x="626" y="846"/>
			<point x="708" y="782"/>
			<point x="748" y="714" type="curve" smooth="yes"/>
			<point x="794" y="630"/>
			<point x="796" y="528"/>
			<point x="796" y="444" type="curve" smooth="yes"/>
			<point x="796" y="370"/>
			<point x="796" y="254"/>
			<point x="746" y="166" type="curve" smooth="yes"/>
			<point x="690" y="74"/>
			<point x="598" y="34"/>
		</contour>
	</outline>
</glyph>
<glyph name="p" format="2">
	<unicode hex="0070"/>
	<advance width="1140"/>
	<outline>
		<contour>
			<point x="60" y="800" type="line"/>
			<point x="60" y="800" type="line"/>
			<point x="202" y="800"/>
			<point x="214" y="788"/>
			<point x="214" y="702" type="curve" smooth="yes"/>
			<point x="214" y="-234" type="line" smooth="yes"/>
			<point x="214" y="-326"/>
			<point x="192" y="-326"/>
			<point x="60" y="-326" type="curve"/>
			<point x="60" y="-326" type="line"/>
			<point x="60" y="-388" type="line"/>
			<point x="154" y="-384"/>
			<point x="192" y="-382"/>
			<point x="288" y="-382" type="curve" smooth="yes"/>
			<point x="384" y="-382"/>
			<point x="410" y="-384"/>
			<point x="516" y="-388" type="curve"/>
			<point x="516" y="-326" type="line"/>
			<point x="384" y="-326"/>
			<point x="362" y="-326"/>
			<point x="362" y="-234" type="curve" smooth="yes"/>
			<point x="362" y="96" type="line"/>
			<point x="414" y="44"/>
			<point x="482" y="-22"/>
			<point x="614" y="-22" type="curve" smooth="yes"/>
			<point x="852" y="-22"/>
			<point x="1072" y="170"/>
			<point x="1072" y="432" type="curve" smooth="yes"/>
			<point x="1072" y="684"/>
			<point x="876" y="884"/>
			<point x="640" y="884" type="curve" smooth="yes"/>
			<point x="532" y="884"/>
			<point x="432" y="840"/>
			<point x="356" y="758" type="curve"/>
			<point x="356" y="884" type="line"/>
			<point x="60" y="862" type="line"/>
		</contour>
		<contour>
			<point x="900" y="432" type="curve" smooth="yes"/>
			<point x="900" y="204"/>
			<point x="764" y="28"/>
			<point x="602" y="28" type="curve" smooth="yes"/>
			<point x="512" y="28"/>
			<point x="436" y="80"/>
			<point x="388" y="150" type="curve" smooth="yes"/>
			<point x="362" y="190"/>
			<point x="362" y="194"/>
			<point x="362" y="232" type="curve" smooth="yes"/>
			<point x="362" y="672" type="line"/>
			<point x="362" y="672"/>
			<point x="362" y="672"/>
			<point x="362" y="672" type="curve"/>
			<point x="430" y="788"/>
			<point x="540" y="828"/>
			<point x="624" y="828" type="curve" smooth="yes"/>
			<point x="780" y="828"/>
			<point x="900" y="648"/>
		</contour>
	</outline>
</glyph>
<glyph name="q" format="2">
	<unicode hex="0071"/>
	<advance width="1084"/>
	<outline>
		<contour>
			<point x="68" y="430" type="curve" smooth="yes"/>
			<point x="68" y="176"/>
			<point x="272" y="-22"/>
			<point x="506" y="-22" type="curve" smooth="yes"/>
			<point x="590" y="-22"/>
			<point x="692" y="8"/>
			<point x="778" y="118" type="curve"/>
			<point x="778" y="-234" type="line" smooth="yes"/>
			<point x="778" y="-326"/>
			<point x="756" y="-326"/>
			<point x="624" y="-326" type="curve"/>
			<point x="624" y="-326" type="line"/>
			<point x="624" y="-388" type="line"/>
			<point x="718" y="-384"/>
			<point x="756" y="-382"/>
			<point x="852" y="-382" type="curve" smooth="yes"/>
			<point x="948" y="-382"/>
			<point x="974" y="-384"/>
			<point x="1080" y="-388" type="curve"/>
			<point x="1080" y="-326" type="line"/>
			<point x="1080" y="-326" type="line"/>
			<point x="948" y="-326"/>
			<point x="926" y="-326"/>
			<point x="926" y="-234" type="curve" smooth="yes"/>
			<point x="926" y="884" type="line"/>
			<point x="876" y="884" type="line"/>
			<point x="800" y="708" type="line"/>
			<point x="706" y="866"/>
			<point x="592" y="884"/>
			<point x="522" y="884" type="curve" smooth="yes"/>
			<point x="286" y="884"/>
			<point x="68" y="692"/>
		</contour>
		<contour>
			<point x="240" y="430" type="curve" smooth="yes"/>
			<point x="240" y="662"/>
			<point x="382" y="828"/>
			<point x="536" y="828" type="curve" smooth="yes"/>
			<point x="692" y="828"/>
			<point x="784" y="662"/>
			<point x="784" y="552" type="curve" smooth="yes"/>
			<point x="784" y="276" type="line" smooth="yes"/>
			<point x="784" y="240"/>
			<point x="784" y="232"/>
			<point x="754" y="178" type="curve" smooth="yes"/>
			<point x="704" y="92"/>
			<point x="620" y="28"/>
			<point x="514" y="28" type="curve" smooth="yes"/>
			<point x="366" y="28"/>
			<point x="240" y="204"/>
		</contour>
	</outline>
</glyph>
<glyph name="r" format="2">
	<unicode hex="0072"/>
	<advance width="804"/>
	<outline>
		<contour>
			<point x="214" y="154" type="line" smooth="yes"/>
			<point x="214" y="62"/>
			<point x="192" y="62"/>
			<point x="60" y="62" type="curve"/>
			<point x="60" y="62" type="line"/>
			<point x="60" y="0" type="line"/>
			<point x="166" y="4"/>
			<point x="192" y="6"/>
			<point x="294" y="6" type="curve" smooth="yes"/>
			<point x="374" y="6"/>
			<point x="422" y="4"/>
			<point x="548" y="0" type="curve"/>
			<point x="548" y="62" type="line"/>
			<point x="508" y="62" type="line" smooth="yes"/>
			<point x="362" y="62"/>
			<point x="356" y="84"/>
			<point x="356" y="158" type="curve" smooth="yes"/>
			<point x="356" y="458" type="line" smooth="yes"/>
			<point x="356" y="540"/>
			<point x="378" y="834"/>
			<point x="606" y="834" type="curve"/>
			<point x="606" y="834"/>
			<point x="606" y="834"/>
			<point x="606" y="834" type="curve"/>
			<point x="602" y="832"/>
			<point x="570" y="806"/>
			<point x="570" y="758" type="curve" smooth="yes"/>
			<point x="570" y="704"/>
			<point x="612" y="670"/>
			<point x="658" y="670" type="curve" smooth="yes"/>
			<point x="700" y="670"/>
			<point x="746" y="700"/>
			<point x="746" y="760" type="curve" smooth="yes"/>
			<point x="746" y="824"/>
			<point x="686" y="884"/>
			<point x="596" y="884" type="curve" smooth="yes"/>
			<point x="476" y="884"/>
			<point x="392" y="800"/>
			<point x="346" y="676" type="curve"/>
			<point x="344" y="676" type="line"/>
			<point x="344" y="884" type="line"/>
			<point x="60" y="862" type="line"/>
			<point x="60" y="800" type="line"/>
			<point x="196" y="800"/>
			<point x="214" y="786"/>
			<point x="214" y="688" type="curve" smooth="yes"/>
		</contour>
	</outline>
</glyph>
<glyph name="t" format="2">
	<unicode hex="0074"/>
	<advance width="798"/>
	<outline>
		<contour>
			<point x="360" y="800" type="line"/>
			<point x="650" y="800" type="line"/>
			<point x="650" y="862" type="line"/>
			<point x="360" y="862" type="line"/>
			<point x="360" y="1230" type="line"/>
			<point x="304" y="1230" type="line"/>
			<point x="302" y="1062"/>
			<point x="232" y="856"/>
			<point x="38" y="850" type="curve"/>
			<point x="38" y="800" type="line"/>
			<point x="212" y="800" type="line"/>
			<point x="212" y="248" type="line" smooth="yes"/>
			<point x="212" y="24"/>
			<point x="374" y="-22"/>
			<point x="480" y="-22" type="curve" smooth="yes"/>
			<point x="614" y="-22"/>
			<point x="684" y="106"/>
			<point x="684" y="248" type="curve" smooth="yes"/>
			<point x="684" y="362" type="line"/>
			<point x="628" y="362" type="line"/>
			<point x="628" y="254" type="line" smooth="yes"/>
			<point x="628" y="106"/>
			<point x="566" y="34"/>
			<point x="494" y="34" type="curve" smooth="yes"/>
			<point x="360" y="34"/>
			<point x="360" y="210"/>
			<point x="360" y="246" type="curve" smooth="yes"/>
		</contour>
	</outline>
</glyph>
<glyph name="u" format="2">
	<unicode hex="0075"/>
	<advance width="1140"/>
	<outline>
		<contour>
			<point x="224" y="616" type="curve" smooth="yes"/>
			<point x="224" y="316" type="line" smooth="yes"/>
			<point x="224" y="186"/>
			<point x="224" y="102"/>
			<point x="316" y="32" type="curve" smooth="yes"/>
			<point x="374" y="-8"/>
			<point x="456" y="-22"/>
			<point x="536" y="-22" type="curve" smooth="yes"/>
			<point x="640" y="-22"/>
			<point x="738" y="24"/>
			<point x="796" y="144" type="curve"/>
			<point x="798" y="144" type="line"/>
			<point x="798" y="-22" type="line"/>
			<point x="1094" y="0" type="line"/>
			<point x="1094" y="62" type="line"/>
			<point x="958" y="62"/>
			<point x="940" y="76"/>
			<point x="940" y="174" type="curve" smooth="yes"/>
			<point x="940" y="884" type="line"/>
			<point x="638" y="862" type="line"/>
			<point x="638" y="800" type="line"/>
			<point x="774" y="800"/>
			<point x="792" y="786"/>
			<point x="792" y="688" type="curve" smooth="yes"/>
			<point x="792" y="334" type="line" smooth="yes"/>
			<point x="792" y="156"/>
			<point x="692" y="28"/>
			<point x="548" y="28" type="curve" smooth="yes"/>
			<point x="382" y="28"/>
			<point x="372" y="114"/>
			<point x="372" y="222" type="curve" smooth="yes"/>
			<point x="372" y="884" type="line"/>
			<point x="70" y="862" type="line"/>
			<point x="70" y="800" type="line"/>
			<point x="224" y="800"/>
			<point x="224" y="794"/>
		</contour>
	</outline>
</glyph>
<glyph name="v" format="2">
	<unicode hex="0076"/>
	<advance width="1084"/>
	<outline>
		<contour>
			<point x="540" y="-22" type="curve" smooth="yes"/>
			<point x="558" y="-22"/>
			<point x="574" y="-18"/>
			<point x="588" y="16" type="curve" smooth="yes"/>
			<point x="679" y="234"/>
			<point x="769" y="453"/>
			<point x="860" y="672" type="curve" smooth="yes"/>
			<point x="902" y="774"/>
			<point x="972" y="798"/>
			<point x="1042" y="800" type="curve"/>
			<point x="1042" y="821"/>
			<point x="1042" y="841"/>
			<point x="1042" y="862" type="curve"/>
			<point x="982" y="856"/>
			<point x="892" y="856"/>
			<point x="888" y="856" type="curve" smooth="yes"/>
			<point x="832" y="856"/>
			<point x="770" y="858"/>
			<point x="714" y="862" type="curve"/>
			<point x="714" y="841"/>
			<point x="714" y="821"/>
			<point x="714" y="800" type="curve"/>
			<point x="772" y="796"/>
			<point x="806" y="766"/>
			<point x="806" y="714" type="curve" smooth="yes"/>
			<point x="806" y="694"/>
			<point x="804" y="690"/>
			<point x="796" y="668" type="curve" smooth="yes"/>
			<point x="727" y="500"/>
			<point x="657" y="332"/>
			<point x="588" y="164" type="curve"/>
			<point x="512" y="346"/>
			<point x="436" y="528"/>
			<point x="360" y="710" type="curve"/>
			<point x="354" y="722"/>
			<point x="350" y="734"/>
			<point x="350" y="748" type="curve" smooth="yes"/>
			<point x="350" y="800"/>
			<point x="422" y="800"/>
			<point x="460" y="800" type="curve"/>
			<point x="460" y="821"/>
			<point x="460" y="841"/>
			<point x="460" y="862" type="curve"/>
			<point x="374" y="858"/>
			<point x="328" y="856"/>
			<point x="240" y="856" type="curve" smooth="yes"/>
			<point x="170" y="856"/>
			<point x="112" y="856"/>
			<point x="40" y="862" type="curve"/>
			<point x="40" y="841"/>
			<point x="40" y="821"/>
			<point x="40" y="800" type="curve"/>
			<point x="134" y="800"/>
			<point x="172" y="800"/>
			<point x="202" y="726" type="curve" smooth="yes"/>
			<point x="299" y="490"/>
			<point x="396" y="253"/>
			<point x="494" y="16" type="curve" smooth="yes"/>
			<point x="506" y="-16"/>
			<point x="522" y="-22"/>
		</contour>
	</outline>
</glyph>
<glyph name="w" format="2">
	<unicode hex="0077"/>
	<advance width="1484"/>
	<outline>
		<contour>
			<point x="1274" y="668" type="line" smooth="yes"/>
			<point x="1318" y="790"/>
			<point x="1400" y="798"/>
			<point x="1442" y="800" type="curve"/>
			<point x="1442" y="821"/>
			<point x="1442" y="841"/>
			<point x="1442" y="862" type="curve"/>
			<point x="1362" y="856"/>
			<point x="1358" y="856"/>
			<point x="1292" y="856" type="curve" smooth="yes"/>
			<point x="1216" y="856"/>
			<point x="1188" y="856"/>
			<point x="1108" y="862" type="curve"/>
			<point x="1108" y="841"/>
			<point x="1108" y="821"/>
			<point x="1108" y="800" type="curve"/>
			<point x="1194" y="798"/>
			<point x="1222" y="744"/>
			<point x="1222" y="704" type="curve" smooth="yes"/>
			<point x="1222" y="684"/>
			<point x="1218" y="672"/>
			<point x="1212" y="658" type="curve"/>
			<point x="1028" y="158" type="line"/>
			<point x="826" y="706" type="line" smooth="yes"/>
			<point x="816" y="732"/>
			<point x="816" y="738"/>
			<point x="816" y="744" type="curve" smooth="yes"/>
			<point x="816" y="796"/>
			<point x="878" y="800"/>
			<point x="930" y="800" type="curve"/>
			<point x="930" y="862" type="line"/>
			<point x="838" y="856"/>
			<point x="756" y="856"/>
			<point x="724" y="856" type="curve" smooth="yes"/>
			<point x="662" y="856"/>
			<point x="604" y="856"/>
			<point x="540" y="862" type="curve"/>
			<point x="540" y="800" type="line"/>
			<point x="604" y="800"/>
			<point x="644" y="798"/>
			<point x="666" y="770" type="curve" smooth="yes"/>
			<point x="684" y="748"/>
			<point x="710" y="668"/>
			<point x="710" y="662" type="curve"/>
			<point x="536" y="184" type="line"/>
			<point x="346" y="704" type="line" smooth="yes"/>
			<point x="334" y="734"/>
			<point x="334" y="738"/>
			<point x="334" y="746" type="curve" smooth="yes"/>
			<point x="334" y="800"/>
			<point x="412" y="800"/>
			<point x="450" y="800" type="curve"/>
			<point x="450" y="862" type="line"/>
			<point x="358" y="858"/>
			<point x="312" y="856"/>
			<point x="232" y="856" type="curve" smooth="yes"/>
			<point x="166" y="856"/>
			<point x="108" y="856"/>
			<point x="40" y="862" type="curve"/>
			<point x="40" y="800" type="line"/>
			<point x="136" y="800"/>
			<point x="162" y="796"/>
			<point x="186" y="728" type="curve" smooth="yes"/>
			<point x="444" y="22" type="line" smooth="yes"/>
			<point x="454" y="-2"/>
			<point x="460" y="-22"/>
			<point x="490" y="-22" type="curve" smooth="yes"/>
			<point x="520" y="-22"/>
			<point x="528" y="0"/>
			<point x="536" y="20" type="curve" smooth="yes"/>
			<point x="740" y="580" type="line"/>
			<point x="946" y="20" type="line" smooth="yes"/>
			<point x="954" y="0"/>
			<point x="962" y="-22"/>
			<point x="992" y="-22" type="curve" smooth="yes"/>
			<point x="1022" y="-22"/>
			<point x="1028" y="-2"/>
			<point x="1036" y="18" type="curve" smooth="yes"/>
		</contour>
	</outline>
</glyph>
<glyph name="x" format="2">
	<unicode hex="0078"/>
	<advance width="1084"/>
	<outline>
		<contour>
			<point x="478" y="420" type="line"/>
			<point x="284" y="186" type="line" smooth="yes"/>
			<point x="184" y="66"/>
			<point x="70" y="62"/>
			<point x="28" y="62" type="curve"/>
			<point x="28" y="0" type="line"/>
			<point x="86" y="6"/>
			<point x="140" y="6"/>
			<point x="198" y="6" type="curve" smooth="yes"/>
			<point x="262" y="6"/>
			<point x="326" y="4"/>
			<point x="390" y="0" type="curve"/>
			<point x="390" y="62" type="line"/>
			<point x="340" y="68"/>
			<point x="334" y="102"/>
			<point x="334" y="122" type="curve" smooth="yes"/>
			<point x="334" y="128"/>
			<point x="334" y="156"/>
			<point x="364" y="192" type="curve" smooth="yes"/>
			<point x="414" y="253"/>
			<point x="464" y="313"/>
			<point x="514" y="374" type="curve"/>
			<point x="672" y="172" type="line" smooth="yes"/>
			<point x="710" y="128"/>
			<point x="710" y="124"/>
			<point x="710" y="112" type="curve" smooth="yes"/>
			<point x="710" y="90"/>
			<point x="690" y="64"/>
			<point x="642" y="62" type="curve"/>
			<point x="642" y="0" type="line"/>
			<point x="726" y="4"/>
			<point x="774" y="6"/>
			<point x="860" y="6" type="curve" smooth="yes"/>
			<point x="864" y="6"/>
			<point x="978" y="6"/>
			<point x="1056" y="0" type="curve"/>
			<point x="1056" y="62" type="line"/>
			<point x="976" y="62"/>
			<point x="916" y="62"/>
			<point x="872" y="118" type="curve" smooth="yes"/>
			<point x="594" y="470" type="line"/>
			<point x="760" y="670" type="line" smooth="yes"/>
			<point x="824" y="750"/>
			<point x="898" y="798"/>
			<point x="1020" y="800" type="curve"/>
			<point x="1020" y="862" type="line"/>
			<point x="962" y="856"/>
			<point x="908" y="856"/>
			<point x="850" y="856" type="curve" smooth="yes"/>
			<point x="774" y="856"/>
			<point x="738" y="856"/>
			<point x="658" y="862" type="curve"/>
			<point x="658" y="800" type="line"/>
			<point x="688" y="796"/>
			<point x="714" y="780"/>
			<point x="714" y="740" type="curve" smooth="yes"/>
			<point x="714" y="708"/>
			<point x="696" y="686"/>
			<point x="686" y="674" type="curve" smooth="yes"/>
			<point x="558" y="516" type="line"/>
			<point x="402" y="714" type="line" smooth="yes"/>
			<point x="388" y="732"/>
			<point x="384" y="736"/>
			<point x="384" y="750" type="curve" smooth="yes"/>
			<point x="384" y="774"/>
			<point x="406" y="798"/>
			<point x="452" y="800" type="curve"/>
			<point x="452" y="862" type="line"/>
			<point x="376" y="858"/>
			<point x="324" y="856"/>
			<point x="234" y="856" type="curve" smooth="yes"/>
			<point x="230" y="856"/>
			<point x="116" y="856"/>
			<point x="38" y="862" type="curve"/>
			<point x="38" y="800" type="line"/>
			<point x="176" y="800"/>
			<point x="180" y="796"/>
			<point x="272" y="678" type="curve" smooth="yes"/>
		</contour>
	</outline>
</glyph>
<glyph name="y" format="2">
	<unicode hex="0079"/>
	<advance width="1084"/>
	<outline>
		<contour>
			<point x="228" y="-410" type="curve" smooth="yes"/>
			<point x="358" y="-410"/>
			<point x="444" y="-294"/>
			<point x="492" y="-184" type="curve" smooth="yes"/>
			<point x="854" y="662" type="line" smooth="yes"/>
			<point x="876" y="714"/>
			<point x="912" y="796"/>
			<point x="1040" y="800" type="curve"/>
			<point x="1040" y="862" type="line"/>
			<point x="976" y="856"/>
			<point x="914" y="856"/>
			<point x="888" y="856" type="curve" smooth="yes"/>
			<point x="832" y="856"/>
			<point x="770" y="858"/>
			<point x="714" y="862" type="curve"/>
			<point x="714" y="800" type="line"/>
			<point x="806" y="796"/>
			<point x="806" y="724"/>
			<point x="806" y="716" type="curve" smooth="yes"/>
			<point x="806" y="694"/>
			<point x="798" y="674"/>
			<point x="790" y="658" type="curve"/>
			<point x="588" y="182" type="line"/>
			<point x="364" y="706" type="line" smooth="yes"/>
			<point x="352" y="734"/>
			<point x="352" y="744"/>
			<point x="352" y="748" type="curve" smooth="yes"/>
			<point x="352" y="800"/>
			<point x="420" y="800"/>
			<point x="462" y="800" type="curve"/>
			<point x="462" y="862" type="line"/>
			<point x="364" y="858"/>
			<point x="324" y="856"/>
			<point x="240" y="856" type="curve" smooth="yes"/>
			<point x="234" y="856"/>
			<point x="120" y="856"/>
			<point x="42" y="862" type="curve"/>
			<point x="42" y="800" type="line"/>
			<point x="132" y="800"/>
			<point x="170" y="796"/>
			<point x="194" y="742" type="curve" smooth="yes"/>
			<point x="510" y="0" type="line"/>
			<point x="493" y="-39"/>
			<point x="477" y="-79"/>
			<point x="460" y="-118" type="curve" smooth="yes"/>
			<point x="416" y="-224"/>
			<point x="358" y="-360"/>
			<point x="228" y="-360" type="curve" smooth="yes"/>
			<point x="178" y="-360"/>
			<point x="144" y="-334"/>
			<point x="138" y="-330" type="curve"/>
			<point x="154" y="-328"/>
			<point x="210" y="-312"/>
			<point x="210" y="-244" type="curve" smooth="yes"/>
			<point x="210" y="-192"/>
			<point x="172" y="-160"/>
			<point x="126" y="-160" type="curve" smooth="yes"/>
			<point x="76" y="-160"/>
			<point x="40" y="-192"/>
			<point x="40" y="-246" type="curve" smooth="yes"/>
			<point x="40" y="-336"/>
			<point x="124" y="-410"/>
		</contour>
	</outline>
</glyph>
<glyph name="z" format="2">
  <advance width="456"/>
  <unicode hex="007A"/>
  <outline>
    <contour>
      <point x="320" y="406" type="line"/>
      <point x="38" y="34" type="line" smooth="yes"/>
      <point x="29" y="23"/>
      <point x="29" y="21"/>
      <point x="29" y="16" type="curve" smooth="yes"/>
      <point x="29" y="0"/>
      <point x="38" y="0"/>
      <point x="56" y="0" type="curve" smooth="yes"/>
      <point x="396" y="0" type="line"/>
      <point x="413" y="190" type="line"/>
      <point x="385" y="190" type="line"/>
      <point x="375" y="79"/>
      <point x="362" y="28"/>
      <point x="237" y="28" type="curve" smooth="yes"/>
      <point x="120" y="28" type="line"/>
      <point x="401" y="399" type="line" smooth="yes"/>
      <point x="410" y="410"/>
      <point x="410" y="412"/>
      <point x="410" y="416" type="curve" smooth="yes"/>
      <point x="410" y="431"/>
      <point x="400" y="431"/>
      <point x="383" y="431" type="curve" smooth="yes"/>
      <point x="54" y="431" type="line"/>
      <point x="43" y="267" type="line"/>
      <point x="71" y="267" type="line"/>
      <point x="77" y="369"/>
      <point x="95" y="406"/>
      <point x="208" y="406" type="curve" smooth="yes"/>
    </contour>
  </outline>
</glyph>
<glyph name="exclamdown" format="2">
	<unicode hex="00A1"/>
	<advance width="570"/>
	<outline>
		<contour>
			<point x="284" y="-432" type="curve" smooth="yes"/>
			<point x="332" y="-432"/>
			<point x="392" y="-398"/>
			<point x="392" y="-328" type="curve"/>
			<point x="366" y="-26"/>
			<point x="340" y="277"/>
			<point x="314" y="580" type="curve" smooth="yes"/>
			<point x="312" y="608"/>
			<point x="310" y="622"/>
			<point x="284" y="622" type="curve" smooth="yes"/>
			<point x="258" y="622"/>
			<point x="256" y="608"/>
			<point x="254" y="580" type="curve" smooth="yes"/>
			<point x="228" y="278"/>
			<point x="202" y="-25"/>
			<point x="176" y="-328" type="curve"/>
			<point x="176" y="-398"/>
			<point x="236" y="-432"/>
		</contour>
		<contour>
			<point x="392" y="892" type="curve" smooth="yes"/>
			<point x="392" y="952"/>
			<point x="344" y="1000"/>
			<point x="284" y="1000" type="curve" smooth="yes"/>
			<point x="224" y="1000"/>
			<point x="176" y="952"/>
			<point x="176" y="892" type="curve" smooth="yes"/>
			<point x="176" y="832"/>
			<point x="224" y="784"/>
			<point x="284" y="784" type="curve" smooth="yes"/>
			<point x="344" y="784"/>
			<point x="392" y="832"/>
		</contour>
	</outline>
</glyph>
<glyph name="dieresis" format="2">
	<unicode hex="00A8"/>
	<advance width="513"/>
	<outline>
		<contour>
			<point x="208" y="619" type="curve" smooth="yes"/>
			<point x="208" y="647"/>
			<point x="185" y="670"/>
			<point x="157" y="670" type="curve" smooth="yes"/>
			<point x="129" y="670"/>
			<point x="106" y="647"/>
			<point x="106" y="619" type="curve" smooth="yes"/>
			<point x="106" y="591"/>
			<point x="129" y="568"/>
			<point x="157" y="568" type="curve" smooth="yes"/>
			<point x="185" y="568"/>
			<point x="208" y="591"/>
		</contour>
		<contour>
			<point x="407" y="619" type="curve" smooth="yes"/>
			<point x="407" y="647"/>
			<point x="384" y="670"/>
			<point x="356" y="670" type="curve" smooth="yes"/>
			<point x="328" y="670"/>
			<point x="305" y="647"/>
			<point x="305" y="619" type="curve" smooth="yes"/>
			<point x="305" y="591"/>
			<point x="328" y="568"/>
			<point x="356" y="568" type="curve" smooth="yes"/>
			<point x="384" y="568"/>
			<point x="407" y="591"/>
		</contour>
	</outline>
</glyph>
<glyph name="macron" format="2">
	<unicode hex="00AF"/>
	<advance width="1026"/>
	<outline>
		<contour>
			<point x="884" y="1116" type="line"/>
			<point x="884" y="1186" type="line"/>
			<point x="142" y="1186" type="line"/>
			<point x="142" y="1116" type="line"/>
		</contour>
	</outline>
</glyph>
<glyph name="acute" format="2">
	<unicode hex="00B4"/>
	<advance width="1026"/>
	<outline>
		<contour>
			<point x="462" y="1016" type="line"/>
			<point x="764" y="1252" type="line" smooth="yes"/>
			<point x="790" y="1272"/>
			<point x="806" y="1288"/>
			<point x="806" y="1318" type="curve" smooth="yes"/>
			<point x="806" y="1364"/>
			<point x="766" y="1396"/>
			<point x="730" y="1396" type="curve" smooth="yes"/>
			<point x="696" y="1396"/>
			<point x="686" y="1382"/>
			<point x="668" y="1360" type="curve" smooth="yes"/>
			<point x="587" y="1259"/>
			<point x="505" y="1159"/>
			<point x="424" y="1058" type="curve"/>
		</contour>
	</outline>
</glyph>
<glyph name="cedilla" format="2">
	<unicode hex="00B8"/>
	<advance width="912"/>
	<outline>
		<contour>
			<point x="610" y="-250" type="curve" smooth="yes"/>
			<point x="610" y="-356"/>
			<point x="422" y="-358"/>
			<point x="358" y="-358" type="curve" smooth="yes"/>
			<point x="328" y="-358"/>
			<point x="298" y="-358"/>
			<point x="268" y="-358" type="curve"/>
			<point x="268" y="-408" type="line"/>
			<point x="285" y="-408"/>
			<point x="303" y="-408"/>
			<point x="320" y="-408" type="curve" smooth="yes"/>
			<point x="422" y="-408"/>
			<point x="498" y="-404"/>
			<point x="558" y="-396" type="curve" smooth="yes"/>
			<point x="680" y="-378"/>
			<point x="758" y="-338"/>
			<point x="758" y="-250" type="curve" smooth="yes"/>
			<point x="758" y="-162"/>
			<point x="682" y="-120"/>
			<point x="588" y="-104" type="curve"/>
			<point x="588" y="-44" type="line"/>
			<point x="440" y="-44" type="line"/>
			<point x="440" y="-142" type="line"/>
			<point x="556" y="-144"/>
			<point x="610" y="-194"/>
		</contour>
	</outline>
</glyph>
<glyph name="questiondown" format="2">
	<unicode hex="00BF"/>
	<advance width="970"/>
	<outline>
		<contour>
			<point x="114" y="-138" type="curve" smooth="yes"/>
			<point x="114" y="-266"/>
			<point x="192" y="-410"/>
			<point x="456" y="-410" type="curve" smooth="yes"/>
			<point x="684" y="-410"/>
			<point x="854" y="-300"/>
			<point x="854" y="-144" type="curve" smooth="yes"/>
			<point x="854" y="-74"/>
			<point x="806" y="-46"/>
			<point x="760" y="-46" type="curve" smooth="yes"/>
			<point x="708" y="-46"/>
			<point x="668" y="-84"/>
			<point x="668" y="-138" type="curve" smooth="yes"/>
			<point x="668" y="-212"/>
			<point x="730" y="-234"/>
			<point x="770" y="-234" type="curve"/>
			<point x="710" y="-324"/>
			<point x="568" y="-360"/>
			<point x="460" y="-360" type="curve" smooth="yes"/>
			<point x="288" y="-360"/>
			<point x="286" y="-248"/>
			<point x="286" y="-152" type="curve" smooth="yes"/>
			<point x="286" y="-112"/>
			<point x="286" y="-36"/>
			<point x="328" y="24" type="curve" smooth="yes"/>
			<point x="420" y="150"/>
			<point x="484" y="274"/>
			<point x="484" y="530" type="curve" smooth="yes"/>
			<point x="484" y="550"/>
			<point x="484" y="570"/>
			<point x="484" y="590" type="curve" smooth="yes"/>
			<point x="484" y="604"/>
			<point x="484" y="622"/>
			<point x="456" y="622" type="curve" smooth="yes"/>
			<point x="428" y="622"/>
			<point x="428" y="608"/>
			<point x="428" y="572" type="curve" smooth="yes"/>
			<point x="428" y="510" type="line" smooth="yes"/>
			<point x="428" y="314"/>
			<point x="336" y="170"/>
			<point x="214" y="68" type="curve" smooth="yes"/>
			<point x="184" y="44"/>
			<point x="114" y="-14"/>
		</contour>
		<contour>
			<point x="564" y="892" type="curve" smooth="yes"/>
			<point x="564" y="952"/>
			<point x="516" y="1000"/>
			<point x="456" y="1000" type="curve" smooth="yes"/>
			<point x="396" y="1000"/>
			<point x="348" y="952"/>
			<point x="348" y="892" type="curve" smooth="yes"/>
			<point x="348" y="832"/>
			<point x="396" y="784"/>
			<point x="456" y="784" type="curve" smooth="yes"/>
			<point x="516" y="784"/>
			<point x="564" y="832"/>
		</contour>
	</outline>
</glyph>
<glyph name="AE" format="2">
	<unicode hex="00C6"/>
	<advance width="1854"/>
	<outline>
		<contour>
			<point x="1684" y="1366" type="line"/>
			<point x="538" y="1366" type="line"/>
			<point x="538" y="1304" type="line"/>
			<point x="710" y="1304" type="line"/>
			<point x="296" y="202" type="line" smooth="yes"/>
			<point x="270" y="134"/>
			<point x="224" y="62"/>
			<point x="68" y="62" type="curve"/>
			<point x="68" y="62" type="line"/>
			<point x="68" y="0" type="line"/>
			<point x="154" y="6"/>
			<point x="258" y="6"/>
			<point x="272" y="6" type="curve" smooth="yes"/>
			<point x="360" y="6"/>
			<point x="398" y="4"/>
			<point x="498" y="0" type="curve"/>
			<point x="498" y="62" type="line"/>
			<point x="416" y="64"/>
			<point x="354" y="100"/>
			<point x="354" y="164" type="curve" smooth="yes"/>
			<point x="354" y="180"/>
			<point x="354" y="182"/>
			<point x="364" y="206" type="curve" smooth="yes"/>
			<point x="522" y="626" type="line"/>
			<point x="856" y="626" type="line"/>
			<point x="856" y="154" type="line" smooth="yes"/>
			<point x="856" y="62"/>
			<point x="834" y="62"/>
			<point x="704" y="62" type="curve"/>
			<point x="704" y="62" type="line"/>
			<point x="704" y="0" type="line"/>
			<point x="1710" y="0" type="line"/>
			<point x="1796" y="516" type="line"/>
			<point x="1740" y="516" type="line"/>
			<point x="1690" y="206"/>
			<point x="1648" y="62"/>
			<point x="1322" y="62" type="curve" smooth="yes"/>
			<point x="1122" y="62" type="line" smooth="yes"/>
			<point x="1028" y="62"/>
			<point x="1024" y="76"/>
			<point x="1024" y="144" type="curve" smooth="yes"/>
			<point x="1024" y="626" type="line"/>
			<point x="1200" y="626" type="line" smooth="yes"/>
			<point x="1390" y="626"/>
			<point x="1410" y="562"/>
			<point x="1410" y="392" type="curve"/>
			<point x="1466" y="392" type="line"/>
			<point x="1466" y="922" type="line"/>
			<point x="1410" y="922" type="line"/>
			<point x="1410" y="754"/>
			<point x="1390" y="688"/>
			<point x="1200" y="688" type="curve" smooth="yes"/>
			<point x="1024" y="688" type="line"/>
			<point x="1024" y="1222" type="line" smooth="yes"/>
			<point x="1024" y="1290"/>
			<point x="1028" y="1304"/>
			<point x="1122" y="1304" type="curve" smooth="yes"/>
			<point x="1326" y="1304" type="line" smooth="yes"/>
			<point x="1612" y="1304"/>
			<point x="1652" y="1184"/>
			<point x="1684" y="916" type="curve"/>
			<point x="1740" y="916" type="line"/>
		</contour>
		<contour>
			<point x="546" y="688" type="line"/>
			<point x="774" y="1296" type="line"/>
			<point x="856" y="1292"/>
			<point x="856" y="1242"/>
			<point x="856" y="1204" type="curve" smooth="yes"/>
			<point x="856" y="688" type="line"/>
		</contour>
	</outline>
</glyph>
<glyph name="Oslash" format="2">
	<unicode hex="00D8"/>
	<advance width="1598"/>
	<outline>
		<contour>
			<point x="1364" y="1448" type="line"/>
			<point x="1320" y="1480" type="line"/>
			<point x="1184" y="1284" type="line"/>
			<point x="1102" y="1338"/>
			<point x="976" y="1410"/>
			<point x="798" y="1410" type="curve" smooth="yes"/>
			<point x="424" y="1410"/>
			<point x="114" y="1084"/>
			<point x="114" y="678" type="curve" smooth="yes"/>
			<point x="114" y="434"/>
			<point x="226" y="236"/>
			<point x="368" y="116" type="curve"/>
			<point x="232" y="-82" type="line"/>
			<point x="247" y="-93"/>
			<point x="261" y="-103"/>
			<point x="276" y="-114" type="curve"/>
			<point x="412" y="82" type="line"/>
			<point x="564" y="-26"/>
			<point x="710" y="-44"/>
			<point x="798" y="-44" type="curve" smooth="yes"/>
			<point x="1170" y="-44"/>
			<point x="1482" y="272"/>
			<point x="1482" y="678" type="curve" smooth="yes"/>
			<point x="1482" y="904"/>
			<point x="1384" y="1114"/>
			<point x="1226" y="1248" type="curve"/>
		</contour>
		<contour>
			<point x="798" y="6" type="curve" smooth="yes"/>
			<point x="638" y="6"/>
			<point x="516" y="88"/>
			<point x="462" y="150" type="curve"/>
			<point x="1172" y="1170" type="line"/>
			<point x="1258" y="1054"/>
			<point x="1302" y="904"/>
			<point x="1302" y="678" type="curve" smooth="yes"/>
			<point x="1302" y="554"/>
			<point x="1292" y="356"/>
			<point x="1182" y="204" type="curve" smooth="yes"/>
			<point x="1080" y="66"/>
			<point x="932" y="6"/>
		</contour>
		<contour>
			<point x="422" y="194" type="line"/>
			<point x="338" y="306"/>
			<point x="294" y="450"/>
			<point x="294" y="678" type="curve" smooth="yes"/>
			<point x="294" y="964"/>
			<point x="375" y="1131"/>
			<point x="472" y="1227" type="curve" smooth="yes"/>
			<point x="599" y="1352"/>
			<point x="753" y="1360"/>
			<point x="798" y="1360" type="curve" smooth="yes"/>
			<point x="958" y="1360"/>
			<point x="1074" y="1278"/>
			<point x="1134" y="1216" type="curve"/>
		</contour>
	</outline>
</glyph>
<glyph name="germandbls" format="2">
	<unicode hex="00DF"/>
	<advance width="1026"/>
	<outline>
		<contour>
			<point x="650" y="834" type="curve"/>
			<point x="790" y="876"/>
			<point x="912" y="984"/>
			<point x="912" y="1124" type="curve" smooth="yes"/>
			<point x="912" y="1274"/>
			<point x="762" y="1410"/>
			<point x="560" y="1410" type="curve" smooth="yes"/>
			<point x="390" y="1410"/>
			<point x="214" y="1304"/>
			<point x="214" y="1112" type="curve" smooth="yes"/>
			<point x="214" y="862" type="line"/>
			<point x="60" y="862" type="line"/>
			<point x="60" y="800" type="line"/>
			<point x="214" y="800" type="line"/>
			<point x="214" y="154" type="line" smooth="yes"/>
			<point x="214" y="62"/>
			<point x="192" y="62"/>
			<point x="60" y="62" type="curve"/>
			<point x="60" y="0" type="line"/>
			<point x="116" y="2"/>
			<point x="192" y="6"/>
			<point x="250" y="6" type="curve" smooth="yes"/>
			<point x="298" y="6"/>
			<point x="326" y="6"/>
			<point x="356" y="0" type="curve"/>
			<point x="356" y="1112" type="line" smooth="yes"/>
			<point x="356" y="1352"/>
			<point x="534" y="1360"/>
			<point x="558" y="1360" type="curve" smooth="yes"/>
			<point x="648" y="1360"/>
			<point x="754" y="1294"/>
			<point x="754" y="1126" type="curve" smooth="yes"/>
			<point x="754" y="980"/>
			<point x="664" y="876"/>
			<point x="508" y="862" type="curve" smooth="yes"/>
			<point x="484" y="860"/>
			<point x="470" y="860"/>
			<point x="470" y="836" type="curve" smooth="yes"/>
			<point x="470" y="814"/>
			<point x="482" y="814"/>
			<point x="512" y="812" type="curve" smooth="yes"/>
			<point x="664" y="796"/>
			<point x="810" y="638"/>
			<point x="810" y="348" type="curve" smooth="yes"/>
			<point x="810" y="82"/>
			<point x="670" y="28"/>
			<point x="604" y="28" type="curve" smooth="yes"/>
			<point x="572" y="28"/>
			<point x="534" y="40"/>
			<point x="508" y="60" type="curve"/>
			<point x="526" y="66"/>
			<point x="564" y="76"/>
			<point x="564" y="134" type="curve" smooth="yes"/>
			<point x="564" y="176"/>
			<point x="530" y="208"/>
			<point x="490" y="208" type="curve" smooth="yes"/>
			<point x="466" y="208"/>
			<point x="416" y="192"/>
			<point x="416" y="130" type="curve" smooth="yes"/>
			<point x="416" y="54"/>
			<point x="490" y="-22"/>
			<point x="608" y="-22" type="curve" smooth="yes"/>
			<point x="794" y="-22"/>
			<point x="968" y="130"/>
			<point x="968" y="348" type="curve" smooth="yes"/>
			<point x="968" y="562"/>
			<point x="844" y="756"/>
		</contour>
	</outline>
</glyph>
<glyph name="ae" format="2">
	<unicode hex="00E6"/>
	<advance width="1484"/>
	<outline>
		<contour>
			<point x="92" y="188" type="curve" smooth="yes"/>
			<point x="92" y="32"/>
			<point x="274" y="-22"/>
			<point x="418" y="-22" type="curve" smooth="yes"/>
			<point x="664" y="-22"/>
			<point x="754" y="130"/>
			<point x="766" y="150" type="curve"/>
			<point x="852" y="36"/>
			<point x="984" y="-22"/>
			<point x="1106" y="-22" type="curve" smooth="yes"/>
			<point x="1336" y="-22"/>
			<point x="1424" y="198"/>
			<point x="1424" y="238" type="curve" smooth="yes"/>
			<point x="1424" y="252"/>
			<point x="1414" y="264"/>
			<point x="1396" y="264" type="curve" smooth="yes"/>
			<point x="1374" y="264"/>
			<point x="1370" y="250"/>
			<point x="1368" y="242" type="curve"/>
			<point x="1304" y="40"/>
			<point x="1148" y="34"/>
			<point x="1116" y="34" type="curve" smooth="yes"/>
			<point x="1092" y="34"/>
			<point x="816" y="36"/>
			<point x="816" y="458" type="curve"/>
			<point x="1370" y="458" type="line" smooth="yes"/>
			<point x="1416" y="458"/>
			<point x="1424" y="458"/>
			<point x="1424" y="502" type="curve" smooth="yes"/>
			<point x="1424" y="718"/>
			<point x="1308" y="896"/>
			<point x="1082" y="896" type="curve" smooth="yes"/>
			<point x="908" y="896"/>
			<point x="814" y="788"/>
			<point x="776" y="746" type="curve"/>
			<point x="730" y="808"/>
			<point x="626" y="896"/>
			<point x="456" y="896" type="curve" smooth="yes"/>
			<point x="284" y="896"/>
			<point x="146" y="810"/>
			<point x="146" y="684" type="curve" smooth="yes"/>
			<point x="146" y="622"/>
			<point x="188" y="588"/>
			<point x="240" y="588" type="curve" smooth="yes"/>
			<point x="294" y="588"/>
			<point x="332" y="628"/>
			<point x="332" y="680" type="curve" smooth="yes"/>
			<point x="332" y="766"/>
			<point x="244" y="776"/>
			<point x="242" y="776" type="curve"/>
			<point x="316" y="840"/>
			<point x="418" y="846"/>
			<point x="452" y="846" type="curve" smooth="yes"/>
			<point x="554" y="846"/>
			<point x="668" y="770"/>
			<point x="668" y="594" type="curve" smooth="yes"/>
			<point x="668" y="502" type="line"/>
			<point x="344" y="502"/>
			<point x="92" y="384"/>
		</contour>
		<contour>
			<point x="432" y="28" type="curve" smooth="yes"/>
			<point x="328" y="28"/>
			<point x="252" y="100"/>
			<point x="252" y="188" type="curve" smooth="yes"/>
			<point x="252" y="296"/>
			<point x="342" y="442"/>
			<point x="668" y="454" type="curve"/>
			<point x="668" y="408"/>
			<point x="668" y="378"/>
			<point x="686" y="304" type="curve"/>
			<point x="692" y="288"/>
			<point x="692" y="284"/>
			<point x="692" y="264" type="curve" smooth="yes"/>
			<point x="692" y="122"/>
			<point x="558" y="28"/>
		</contour>
		<contour>
			<point x="818" y="506" type="line"/>
			<point x="836" y="770"/>
			<point x="988" y="846"/>
			<point x="1080" y="846" type="curve" smooth="yes"/>
			<point x="1276" y="846"/>
			<point x="1286" y="578"/>
			<point x="1290" y="506" type="curve"/>
		</contour>
	</outline>
</glyph>
<glyph name="oslash" format="2">
	<unicode hex="00F8"/>
	<advance width="513"/>
	<outline>
		<contour>
			<point x="81" y="-103" type="line"/>
			<point x="152" y="15" type="line"/>
			<point x="177" y="3"/>
			<point x="211" y="-11"/>
			<point x="256" y="-11" type="curve" smooth="yes"/>
			<point x="380" y="-11"/>
			<point x="479" y="89"/>
			<point x="479" y="213" type="curve" smooth="yes"/>
			<point x="479" y="310"/>
			<point x="424" y="378"/>
			<point x="384" y="405" type="curve"/>
			<point x="453" y="522" type="line"/>
			<point x="431" y="534" type="line"/>
			<point x="363" y="419" type="line"/>
			<point x="325" y="441"/>
			<point x="288" y="448"/>
			<point x="257" y="448" type="curve" smooth="yes"/>
			<point x="132" y="448"/>
			<point x="34" y="341"/>
			<point x="34" y="213" type="curve" smooth="yes"/>
			<point x="34" y="166"/>
			<point x="49" y="88"/>
			<point x="130" y="28" type="curve"/>
			<point x="60" y="-90" type="line"/>
		</contour>
		<contour>
			<point x="256" y="14" type="curve" smooth="yes"/>
			<point x="213" y="14"/>
			<point x="180" y="34"/>
			<point x="169" y="42" type="curve"/>
			<point x="364" y="372" type="line"/>
			<point x="398" y="330"/>
			<point x="405" y="278"/>
			<point x="405" y="214" type="curve" smooth="yes"/>
			<point x="405" y="173"/>
			<point x="403" y="114"/>
			<point x="371" y="70" type="curve" smooth="yes"/>
			<point x="349" y="40"/>
			<point x="310" y="14"/>
		</contour>
		<contour>
			<point x="150" y="61" type="line"/>
			<point x="113" y="102"/>
			<point x="108" y="157"/>
			<point x="108" y="214" type="curve" smooth="yes"/>
			<point x="108" y="249"/>
			<point x="109" y="310"/>
			<point x="137" y="356" type="curve" smooth="yes"/>
			<point x="171" y="411"/>
			<point x="224" y="423"/>
			<point x="256" y="423" type="curve" smooth="yes"/>
			<point x="294" y="423"/>
			<point x="325" y="408"/>
			<point x="346" y="391" type="curve"/>
		</contour>
	</outline>
</glyph>
<glyph name="dotlessi" format="2">
	<unicode hex="0131"/>
	<advance width="570"/>
	<outline>
		<contour>
			<point x="368" y="884" type="line"/>
			<point x="80" y="862" type="line"/>
			<point x="80" y="800" type="line"/>
			<point x="208" y="800"/>
			<point x="226" y="788"/>
			<point x="226" y="690" type="curve" smooth="yes"/>
			<point x="226" y="154" type="line" smooth="yes"/>
			<point x="226" y="62"/>
			<point x="204" y="62"/>
			<point x="72" y="62" type="curve"/>
			<point x="72" y="62" type="line"/>
			<point x="72" y="0" type="line"/>
			<point x="162" y="4"/>
			<point x="204" y="6"/>
			<point x="292" y="6" type="curve" smooth="yes"/>
			<point x="324" y="6"/>
			<point x="408" y="6"/>
			<point x="506" y="0" type="curve"/>
			<point x="506" y="62" type="line"/>
			<point x="376" y="62"/>
			<point x="368" y="72"/>
			<point x="368" y="150" type="curve" smooth="yes"/>
		</contour>
	</outline>
</glyph>
<glyph name="oe" format="2">
	<unicode hex="0153"/>
	<advance width="1598"/>
	<outline>
		<contour>
			<point x="496" y="-22" type="curve" smooth="yes"/>
			<point x="640" y="-22"/>
			<point x="776" y="52"/>
			<point x="856" y="182" type="curve"/>
			<point x="914" y="90"/>
			<point x="1044" y="-22"/>
			<point x="1220" y="-22" type="curve" smooth="yes"/>
			<point x="1450" y="-22"/>
			<point x="1538" y="198"/>
			<point x="1538" y="238" type="curve" smooth="yes"/>
			<point x="1538" y="252"/>
			<point x="1528" y="264"/>
			<point x="1510" y="264" type="curve" smooth="yes"/>
			<point x="1488" y="264"/>
			<point x="1484" y="250"/>
			<point x="1482" y="242" type="curve"/>
			<point x="1418" y="40"/>
			<point x="1262" y="34"/>
			<point x="1230" y="34" type="curve" smooth="yes"/>
			<point x="1206" y="34"/>
			<point x="930" y="36"/>
			<point x="930" y="458" type="curve"/>
			<point x="1484" y="458" type="line" smooth="yes"/>
			<point x="1530" y="458"/>
			<point x="1538" y="458"/>
			<point x="1538" y="502" type="curve" smooth="yes"/>
			<point x="1538" y="718"/>
			<point x="1422" y="896"/>
			<point x="1196" y="896" type="curve" smooth="yes"/>
			<point x="1018" y="896"/>
			<point x="904" y="778"/>
			<point x="854" y="698" type="curve"/>
			<point x="804" y="776"/>
			<point x="682" y="896"/>
			<point x="496" y="896" type="curve" smooth="yes"/>
			<point x="260" y="896"/>
			<point x="58" y="698"/>
			<point x="58" y="438" type="curve" smooth="yes"/>
			<point x="58" y="182"/>
			<point x="258" y="-22"/>
		</contour>
		<contour>
			<point x="498" y="28" type="curve" smooth="yes"/>
			<point x="436" y="28"/>
			<point x="218" y="60"/>
			<point x="218" y="446" type="curve" smooth="yes"/>
			<point x="218" y="828"/>
			<point x="448" y="846"/>
			<point x="498" y="846" type="curve" smooth="yes"/>
			<point x="554" y="846"/>
			<point x="782" y="816"/>
			<point x="782" y="446" type="curve" smooth="yes"/>
			<point x="782" y="64"/>
			<point x="556" y="28"/>
		</contour>
		<contour>
			<point x="932" y="506" type="line"/>
			<point x="950" y="770"/>
			<point x="1102" y="846"/>
			<point x="1194" y="846" type="curve" smooth="yes"/>
			<point x="1390" y="846"/>
			<point x="1400" y="578"/>
			<point x="1404" y="506" type="curve"/>
		</contour>
	</outline>
</glyph>
<glyph name="circumflex" format="2">
	<unicode hex="02C6"/>
	<advance width="1026"/>
	<outline>
		<contour>
			<point x="514" y="1388" type="line"/>
			<point x="238" y="1118" type="line"/>
			<point x="274" y="1076" type="line"/>
			<point x="514" y="1278" type="line"/>
			<point x="752" y="1076" type="line"/>
			<point x="788" y="1118" type="line"/>
		</contour>
	</outline>
</glyph>
<glyph name="caron" format="2">
	<unicode hex="02C7"/>
	<advance width="1026"/>
	<outline>
		<contour>
			<point x="514" y="1142" type="line"/>
			<point x="272" y="1280" type="line"/>
			<point x="240" y="1232" type="line"/>
			<point x="512" y="1032" type="line"/>
			<point x="786" y="1232" type="line"/>
			<point x="754" y="1280" type="line"/>
		</contour>
	</outline>
</glyph>
<glyph name="breve" format="2">
	<unicode hex="02D8"/>
	<advance width="1026"/>
	<outline>
		<contour>
			<point x="772" y="1388" type="line"/>
			<point x="766" y="1212"/>
			<point x="632" y="1122"/>
			<point x="514" y="1122" type="curve" smooth="yes"/>
			<point x="388" y="1122"/>
			<point x="258" y="1216"/>
			<point x="254" y="1388" type="curve"/>
			<point x="204" y="1388" type="line"/>
			<point x="208" y="1172"/>
			<point x="358" y="1040"/>
			<point x="512" y="1040" type="curve" smooth="yes"/>
			<point x="674" y="1040"/>
			<point x="818" y="1178"/>
			<point x="822" y="1388" type="curve"/>
		</contour>
	</outline>
</glyph>
<glyph name="dotaccent" format="2">
	<unicode hex="02D9"/>
	<advance width="570"/>
	<outline>
		<contour>
			<point x="392" y="1232" type="curve" smooth="yes"/>
			<point x="392" y="1292"/>
			<point x="344" y="1340"/>
			<point x="284" y="1340" type="curve" smooth="yes"/>
			<point x="224" y="1340"/>
			<point x="176" y="1292"/>
			<point x="176" y="1232" type="curve" smooth="yes"/>
			<point x="176" y="1172"/>
			<point x="224" y="1124"/>
			<point x="284" y="1124" type="curve" smooth="yes"/>
			<point x="344" y="1124"/>
			<point x="392" y="1172"/>
		</contour>
	</outline>
</glyph>
<glyph name="ring" format="2">
	<unicode hex="02DA"/>
	<advance width="1540"/>
	<outline>
		<contour>
			<point x="970" y="1256" type="curve" smooth="yes"/>
			<point x="970" y="1354"/>
			<point x="880" y="1432"/>
			<point x="770" y="1432" type="curve" smooth="yes"/>
			<point x="654" y="1432"/>
			<point x="570" y="1350"/>
			<point x="570" y="1258" type="curve" smooth="yes"/>
			<point x="570" y="1160"/>
			<point x="660" y="1082"/>
			<point x="770" y="1082" type="curve" smooth="yes"/>
			<point x="886" y="1082"/>
			<point x="970" y="1164"/>
		</contour>
		<contour>
			<point x="770" y="1132" type="curve" smooth="yes"/>
			<point x="726" y="1132"/>
			<point x="626" y="1138"/>
			<point x="626" y="1256" type="curve" smooth="yes"/>
			<point x="626" y="1368"/>
			<point x="708" y="1382"/>
			<point x="770" y="1382" type="curve" smooth="yes"/>
			<point x="814" y="1382"/>
			<point x="914" y="1376"/>
			<point x="914" y="1258" type="curve" smooth="yes"/>
			<point x="914" y="1146"/>
			<point x="832" y="1132"/>
		</contour>
	</outline>
</glyph>
<glyph name="tilde" format="2">
	<unicode hex="02DC"/>
	<advance width="1026"/>
	<outline>
		<contour>
			<point x="208" y="1146" type="line"/>
			<point x="262" y="1200"/>
			<point x="308" y="1238"/>
			<point x="370" y="1238" type="curve" smooth="yes"/>
			<point x="414" y="1238"/>
			<point x="452" y="1220"/>
			<point x="514" y="1186" type="curve" smooth="yes"/>
			<point x="540" y="1172"/>
			<point x="586" y="1146"/>
			<point x="634" y="1146" type="curve" smooth="yes"/>
			<point x="683" y="1146"/>
			<point x="716" y="1164"/>
			<point x="765" y="1210" type="curve" smooth="yes"/>
			<point x="789" y="1233"/>
			<point x="818" y="1264"/>
			<point x="854" y="1304" type="curve"/>
			<point x="818" y="1338" type="line"/>
			<point x="764" y="1284"/>
			<point x="718" y="1246"/>
			<point x="656" y="1246" type="curve" smooth="yes"/>
			<point x="612" y="1246"/>
			<point x="574" y="1264"/>
			<point x="512" y="1298" type="curve" smooth="yes"/>
			<point x="486" y="1312"/>
			<point x="440" y="1338"/>
			<point x="392" y="1338" type="curve" smooth="yes"/>
			<point x="344" y="1338"/>
			<point x="311" y="1321"/>
			<point x="265" y="1278" type="curve" smooth="yes"/>
			<point x="240" y="1254"/>
			<point x="210" y="1222"/>
			<point x="172" y="1180" type="curve"/>
		</contour>
	</outline>
</glyph>
<glyph name="hungarumlaut" format="2">
	<unicode hex="02DD"/>
	<advance width="513"/>
	<outline>
		<contour>
			<point x="131" y="525" type="line"/>
			<point x="155" y="512" type="line"/>
			<point x="185.969" y="552.626"/>
			<point x="216.938" y="593.252"/>
			<point x="248" y="634" type="curve" smooth="yes"/>
			<point x="259" y="648"/>
			<point x="260" y="657"/>
			<point x="260" y="662" type="curve" smooth="yes"/>
			<point x="260" y="686"/>
			<point x="236" y="700"/>
			<point x="220" y="700" type="curve" smooth="yes"/>
			<point x="204" y="700"/>
			<point x="194" y="690"/>
			<point x="189" y="681" type="curve"/>
		</contour>
		<contour>
			<point x="302" y="525" type="line"/>
			<point x="309.992" y="520.671"/>
			<point x="317.984" y="516.342"/>
			<point x="326" y="512" type="curve"/>
			<point x="356.969" y="552.626"/>
			<point x="387.938" y="593.252"/>
			<point x="419" y="634" type="curve" smooth="yes"/>
			<point x="430" y="648"/>
			<point x="431" y="657"/>
			<point x="431" y="662" type="curve" smooth="yes"/>
			<point x="431" y="686"/>
			<point x="407" y="700"/>
			<point x="391" y="700" type="curve" smooth="yes"/>
			<point x="375" y="700"/>
			<point x="365" y="690"/>
			<point x="360" y="681" type="curve"/>
		</contour>
	</outline>
</glyph>
<glyph name="endash" format="2">
  <advance width="513"/>
  <unicode hex="2013"/>
  <outline>
    <contour>
      <point x="513" y="254" type="line"/>
      <point x="513" y="279" type="line"/>
      <point x="0" y="279" type="line"/>
      <point x="0" y="254" type="line"/>
    </contour>
  </outline>
</glyph>
<glyph name="emdash" format="2">
	<unicode hex="2014"/>
	<advance width="1027"/>
	<outline>
		<contour>
			<point x="1027" y="254" type="line"/>
			<point x="1027" y="279" type="line"/>
			<point x="0" y="279" type="line"/>
			<point x="0" y="254" type="line"/>
		</contour>
	</outline>
</glyph>
<glyph name="quoteleft" format="2">
	<unicode hex="2018"/>
	<advance width="570"/>
	<outline>
		<contour>
			<point x="284" y="784" type="curve" smooth="yes"/>
			<point x="354" y="784"/>
			<point x="392" y="838"/>
			<point x="392" y="892" type="curve" smooth="yes"/>
			<point x="392" y="946"/>
			<point x="354" y="1000"/>
			<point x="284" y="1000" type="curve" smooth="yes"/>
			<point x="232" y="1000"/>
			<point x="206" y="968"/>
			<point x="202" y="968" type="curve" smooth="yes"/>
			<point x="192" y="968"/>
			<point x="182" y="1186"/>
			<point x="354" y="1342" type="curve" smooth="yes"/>
			<point x="358" y="1346"/>
			<point x="364" y="1352"/>
			<point x="364" y="1362" type="curve" smooth="yes"/>
			<point x="364" y="1372"/>
			<point x="352" y="1386"/>
			<point x="338" y="1386" type="curve" smooth="yes"/>
			<point x="318" y="1386"/>
			<point x="148" y="1236"/>
			<point x="148" y="996" type="curve" smooth="yes"/>
			<point x="148" y="868"/>
			<point x="200" y="784"/>
		</contour>
	</outline>
</glyph>
<glyph name="quoteright" format="2">
	<unicode hex="2019"/>
	<advance width="570"/>
	<outline>
		<contour>
			<point x="230" y="786" type="curve" smooth="yes"/>
			<point x="250" y="786"/>
			<point x="420" y="936"/>
			<point x="420" y="1176" type="curve" smooth="yes"/>
			<point x="420" y="1304"/>
			<point x="368" y="1388"/>
			<point x="284" y="1388" type="curve" smooth="yes"/>
			<point x="214" y="1388"/>
			<point x="176" y="1334"/>
			<point x="176" y="1280" type="curve" smooth="yes"/>
			<point x="176" y="1226"/>
			<point x="214" y="1172"/>
			<point x="284" y="1172" type="curve" smooth="yes"/>
			<point x="336" y="1172"/>
			<point x="362" y="1204"/>
			<point x="366" y="1204" type="curve" smooth="yes"/>
			<point x="376" y="1204"/>
			<point x="386" y="986"/>
			<point x="214" y="830" type="curve" smooth="yes"/>
			<point x="210" y="826"/>
			<point x="204" y="820"/>
			<point x="204" y="810" type="curve" smooth="yes"/>
			<point x="204" y="800"/>
			<point x="216" y="786"/>
		</contour>
	</outline>
</glyph>
<glyph name="quotedblleft" format="2">
	<unicode hex="201C"/>
	<advance width="1026"/>
	<outline>
		<contour>
			<point x="450" y="784" type="curve" smooth="yes"/>
			<point x="520" y="784"/>
			<point x="558" y="838"/>
			<point x="558" y="892" type="curve" smooth="yes"/>
			<point x="558" y="946"/>
			<point x="520" y="1000"/>
			<point x="450" y="1000" type="curve" smooth="yes"/>
			<point x="398" y="1000"/>
			<point x="372" y="968"/>
			<point x="368" y="968" type="curve" smooth="yes"/>
			<point x="358" y="968"/>
			<point x="348" y="1186"/>
			<point x="520" y="1342" type="curve" smooth="yes"/>
			<point x="524" y="1346"/>
			<point x="530" y="1352"/>
			<point x="530" y="1362" type="curve" smooth="yes"/>
			<point x="530" y="1372"/>
			<point x="518" y="1386"/>
			<point x="504" y="1386" type="curve" smooth="yes"/>
			<point x="484" y="1386"/>
			<point x="314" y="1236"/>
			<point x="314" y="996" type="curve" smooth="yes"/>
			<point x="314" y="868"/>
			<point x="366" y="784"/>
		</contour>
		<contour>
			<point x="850" y="784" type="curve" smooth="yes"/>
			<point x="920" y="784"/>
			<point x="958" y="838"/>
			<point x="958" y="892" type="curve" smooth="yes"/>
			<point x="958" y="946"/>
			<point x="920" y="1000"/>
			<point x="850" y="1000" type="curve" smooth="yes"/>
			<point x="798" y="1000"/>
			<point x="772" y="968"/>
			<point x="768" y="968" type="curve" smooth="yes"/>
			<point x="758" y="968"/>
			<point x="748" y="1186"/>
			<point x="920" y="1342" type="curve" smooth="yes"/>
			<point x="924" y="1346"/>
			<point x="930" y="1352"/>
			<point x="930" y="1362" type="curve" smooth="yes"/>
			<point x="930" y="1372"/>
			<point x="918" y="1386"/>
			<point x="904" y="1386" type="curve" smooth="yes"/>
			<point x="884" y="1386"/>
			<point x="714" y="1236"/>
			<point x="714" y="996" type="curve" smooth="yes"/>
			<point x="714" y="868"/>
			<point x="766" y="784"/>
		</contour>
	</outline>
</glyph>
<glyph name="quotedblright" format="2">
	<unicode hex="201D"/>
	<advance width="1026"/>
	<outline>
		<contour>
			<point x="122" y="786" type="curve" smooth="yes"/>
			<point x="142" y="786"/>
			<point x="312" y="936"/>
			<point x="312" y="1176" type="curve" smooth="yes"/>
			<point x="312" y="1304"/>
			<point x="260" y="1388"/>
			<point x="176" y="1388" type="curve" smooth="yes"/>
			<point x="106" y="1388"/>
			<point x="68" y="1334"/>
			<point x="68" y="1280" type="curve" smooth="yes"/>
			<point x="68" y="1226"/>
			<point x="106" y="1172"/>
			<point x="176" y="1172" type="curve" smooth="yes"/>
			<point x="228" y="1172"/>
			<point x="254" y="1204"/>
			<point x="258" y="1204" type="curve" smooth="yes"/>
			<point x="268" y="1204"/>
			<point x="278" y="986"/>
			<point x="106" y="830" type="curve" smooth="yes"/>
			<point x="102" y="826"/>
			<point x="96" y="820"/>
			<point x="96" y="810" type="curve" smooth="yes"/>
			<point x="96" y="800"/>
			<point x="108" y="786"/>
		</contour>
		<contour>
			<point x="522" y="786" type="curve" smooth="yes"/>
			<point x="542" y="786"/>
			<point x="712" y="936"/>
			<point x="712" y="1176" type="curve" smooth="yes"/>
			<point x="712" y="1304"/>
			<point x="660" y="1388"/>
			<point x="576" y="1388" type="curve" smooth="yes"/>
			<point x="506" y="1388"/>
			<point x="468" y="1334"/>
			<point x="468" y="1280" type="curve" smooth="yes"/>
			<point x="468" y="1226"/>
			<point x="506" y="1172"/>
			<point x="576" y="1172" type="curve" smooth="yes"/>
			<point x="628" y="1172"/>
			<point x="654" y="1204"/>
			<point x="658" y="1204" type="curve" smooth="yes"/>
			<point x="668" y="1204"/>
			<point x="678" y="986"/>
			<point x="506" y="830" type="curve" smooth="yes"/>
			<point x="502" y="826"/>
			<point x="496" y="820"/>
			<point x="496" y="810" type="curve" smooth="yes"/>
			<point x="496" y="800"/>
			<point x="508" y="786"/>
		</contour>
	</outline>
</glyph>
<glyph name="a.alt" format="2">
	<advance width="1026"/>
	<outline>
		<contour>
			<point x="86" y="196" type="curve" smooth="yes"/>
			<point x="86" y="32"/>
			<point x="280" y="-22"/>
			<point x="414" y="-22" type="curve" smooth="yes"/>
			<point x="584" y="-22"/>
			<point x="662" y="86"/>
			<point x="690" y="156" type="curve"/>
			<point x="690" y="56"/>
			<point x="732" y="0"/>
			<point x="846" y="0" type="curve" smooth="yes"/>
			<point x="872" y="0"/>
			<point x="898" y="0"/>
			<point x="924" y="0" type="curve" smooth="yes"/>
			<point x="964" y="0"/>
			<point x="978" y="4"/>
			<point x="978" y="28" type="curve" smooth="yes"/>
			<point x="978" y="46"/>
			<point x="962" y="50"/>
			<point x="930" y="50" type="curve" smooth="yes"/>
			<point x="814" y="52"/>
			<point x="814" y="76"/>
			<point x="814" y="128" type="curve" smooth="yes"/>
			<point x="814" y="536" type="line" smooth="yes"/>
			<point x="814" y="650"/>
			<point x="814" y="718"/>
			<point x="724" y="800" type="curve" smooth="yes"/>
			<point x="650" y="866"/>
			<point x="554" y="896"/>
			<point x="454" y="896" type="curve" smooth="yes"/>
			<point x="286" y="896"/>
			<point x="146" y="812"/>
			<point x="146" y="684" type="curve" smooth="yes"/>
			<point x="146" y="622"/>
			<point x="188" y="588"/>
			<point x="240" y="588" type="curve" smooth="yes"/>
			<point x="294" y="588"/>
			<point x="332" y="628"/>
			<point x="332" y="680" type="curve" smooth="yes"/>
			<point x="332" y="766"/>
			<point x="244" y="776"/>
			<point x="242" y="776" type="curve"/>
			<point x="296" y="828"/>
			<point x="392" y="846"/>
			<point x="450" y="846" type="curve" smooth="yes"/>
			<point x="552" y="846"/>
			<point x="666" y="770"/>
			<point x="666" y="594" type="curve" smooth="yes"/>
			<point x="666" y="528" type="line"/>
			<point x="558" y="524"/>
			<point x="408" y="514"/>
			<point x="274" y="450" type="curve" smooth="yes"/>
			<point x="130" y="380"/>
			<point x="86" y="276"/>
		</contour>
		<contour>
			<point x="666" y="282" type="line" smooth="yes"/>
			<point x="666" y="196"/>
			<point x="636" y="136"/>
			<point x="595" y="96" type="curve" smooth="yes"/>
			<point x="545" y="46"/>
			<point x="477" y="28"/>
			<point x="428" y="28" type="curve" smooth="yes"/>
			<point x="334" y="28"/>
			<point x="246" y="96"/>
			<point x="246" y="196" type="curve" smooth="yes"/>
			<point x="246" y="328"/>
			<point x="360" y="468"/>
			<point x="666" y="480" type="curve"/>
		</contour>
	</outline>
</glyph>
<glyph name="dotlessj" format="2">
	<advance width="628"/>
	<outline>
		<contour>
			<point x="294" y="688" type="curve" smooth="yes"/>
			<point x="294" y="-102" type="line" smooth="yes"/>
			<point x="294" y="-160"/>
			<point x="286" y="-360"/>
			<point x="150" y="-360" type="curve" smooth="yes"/>
			<point x="144" y="-360"/>
			<point x="92" y="-360"/>
			<point x="44" y="-336" type="curve"/>
			<point x="108" y="-316"/>
			<point x="108" y="-260"/>
			<point x="108" y="-248" type="curve" smooth="yes"/>
			<point x="108" y="-196"/>
			<point x="70" y="-156"/>
			<point x="16" y="-156" type="curve" smooth="yes"/>
			<point x="-42" y="-156"/>
			<point x="-78" y="-196"/>
			<point x="-78" y="-250" type="curve" smooth="yes"/>
			<point x="-78" y="-354"/>
			<point x="38" y="-410"/>
			<point x="152" y="-410" type="curve" smooth="yes"/>
			<point x="310" y="-410"/>
			<point x="436" y="-280"/>
			<point x="436" y="-96" type="curve" smooth="yes"/>
			<point x="436" y="884" type="line"/>
			<point x="124" y="862" type="line"/>
			<point x="124" y="800" type="line"/>
			<point x="276" y="800"/>
			<point x="294" y="786"/>
		</contour>
	</outline>
</glyph>
<glyph name="ff" format="2">
	<advance width="1198"/>
	<outline>
		<contour>
			<point x="926" y="800" type="line"/>
			<point x="1160" y="800" type="line"/>
			<point x="1160" y="862" type="line"/>
			<point x="920" y="862" type="line"/>
			<point x="920" y="1088" type="line" smooth="yes"/>
			<point x="920" y="1268"/>
			<point x="1016" y="1360"/>
			<point x="1106" y="1360" type="curve" smooth="yes"/>
			<point x="1112" y="1360"/>
			<point x="1136" y="1360"/>
			<point x="1166" y="1348" type="curve"/>
			<point x="1146" y="1340"/>
			<point x="1114" y="1316"/>
			<point x="1114" y="1266" type="curve" smooth="yes"/>
			<point x="1114" y="1214"/>
			<point x="1152" y="1178"/>
			<point x="1202" y="1178" type="curve" smooth="yes"/>
			<point x="1256" y="1178"/>
			<point x="1292" y="1216"/>
			<point x="1292" y="1268" type="curve" smooth="yes"/>
			<point x="1292" y="1342"/>
			<point x="1220" y="1410"/>
			<point x="1104" y="1410" type="curve" smooth="yes"/>
			<point x="1058" y="1410"/>
			<point x="966" y="1398"/>
			<point x="886" y="1326" type="curve"/>
			<point x="844" y="1376"/>
			<point x="764" y="1410"/>
			<point x="652" y="1410" type="curve" smooth="yes"/>
			<point x="444" y="1410"/>
			<point x="214" y="1298"/>
			<point x="214" y="1088" type="curve" smooth="yes"/>
			<point x="214" y="862" type="line"/>
			<point x="56" y="862" type="line"/>
			<point x="56" y="800" type="line"/>
			<point x="214" y="800" type="line"/>
			<point x="214" y="154" type="line" smooth="yes"/>
			<point x="214" y="62"/>
			<point x="192" y="62"/>
			<point x="60" y="62" type="curve"/>
			<point x="60" y="0" type="line"/>
			<point x="154" y="4"/>
			<point x="192" y="6"/>
			<point x="284" y="6" type="curve" smooth="yes"/>
			<point x="378" y="6"/>
			<point x="412" y="4"/>
			<point x="510" y="0" type="curve"/>
			<point x="510" y="62" type="line"/>
			<point x="378" y="62"/>
			<point x="356" y="62"/>
			<point x="356" y="154" type="curve" smooth="yes"/>
			<point x="356" y="800" type="line"/>
			<point x="784" y="800" type="line"/>
			<point x="784" y="154" type="line" smooth="yes"/>
			<point x="784" y="62"/>
			<point x="762" y="62"/>
			<point x="630" y="62" type="curve"/>
			<point x="630" y="0" type="line"/>
			<point x="736" y="4"/>
			<point x="762" y="6"/>
			<point x="864" y="6" type="curve" smooth="yes"/>
			<point x="944" y="6"/>
			<point x="992" y="4"/>
			<point x="1118" y="0" type="curve"/>
			<point x="1118" y="62" type="line"/>
			<point x="1078" y="62" type="line" smooth="yes"/>
			<point x="932" y="62"/>
			<point x="926" y="84"/>
			<point x="926" y="158" type="curve" smooth="yes"/>
		</contour>
		<contour>
			<point x="350" y="862" type="line"/>
			<point x="350" y="1082" type="line" smooth="yes"/>
			<point x="350" y="1284"/>
			<point x="522" y="1360"/>
			<point x="652" y="1360" type="curve" smooth="yes"/>
			<point x="676" y="1360"/>
			<point x="744" y="1358"/>
			<point x="804" y="1326" type="curve"/>
			<point x="786" y="1320"/>
			<point x="738" y="1300"/>
			<point x="738" y="1238" type="curve" smooth="yes"/>
			<point x="738" y="1218"/>
			<point x="744" y="1178"/>
			<point x="790" y="1158" type="curve"/>
			<point x="784" y="1134"/>
			<point x="784" y="1116"/>
			<point x="784" y="1092" type="curve" smooth="yes"/>
			<point x="784" y="862" type="line"/>
		</contour>
	</outline>
</glyph>
<glyph name="ffi" format="2">
	<advance width="1712"/>
	<outline>
		<contour>
			<point x="650" y="1410" type="curve" smooth="yes"/>
			<point x="448" y="1410"/>
			<point x="214" y="1300"/>
			<point x="214" y="1088" type="curve" smooth="yes"/>
			<point x="214" y="1013"/>
			<point x="214" y="937"/>
			<point x="214" y="862" type="curve"/>
			<point x="161" y="862"/>
			<point x="109" y="862"/>
			<point x="56" y="862" type="curve"/>
			<point x="56" y="841"/>
			<point x="56" y="821"/>
			<point x="56" y="800" type="curve"/>
			<point x="109" y="800"/>
			<point x="161" y="800"/>
			<point x="214" y="800" type="curve"/>
			<point x="214" y="585"/>
			<point x="214" y="370"/>
			<point x="214" y="154" type="curve" smooth="yes"/>
			<point x="214" y="62"/>
			<point x="192" y="62"/>
			<point x="60" y="62" type="curve"/>
			<point x="60" y="41"/>
			<point x="60" y="21"/>
			<point x="60" y="0" type="curve"/>
			<point x="154" y="4"/>
			<point x="192" y="6"/>
			<point x="284" y="6" type="curve" smooth="yes"/>
			<point x="378" y="6"/>
			<point x="412" y="4"/>
			<point x="510" y="0" type="curve"/>
			<point x="510" y="21"/>
			<point x="510" y="41"/>
			<point x="510" y="62" type="curve"/>
			<point x="378" y="62"/>
			<point x="356" y="62"/>
			<point x="356" y="154" type="curve" smooth="yes"/>
			<point x="356" y="369"/>
			<point x="356" y="584"/>
			<point x="356" y="800" type="curve"/>
			<point x="499" y="800"/>
			<point x="641" y="800"/>
			<point x="784" y="800" type="curve"/>
			<point x="784" y="585"/>
			<point x="784" y="370"/>
			<point x="784" y="154" type="curve" smooth="yes"/>
			<point x="784" y="62"/>
			<point x="762" y="62"/>
			<point x="630" y="62" type="curve"/>
			<point x="630" y="41"/>
			<point x="630" y="21"/>
			<point x="630" y="0" type="curve"/>
			<point x="724" y="4"/>
			<point x="762" y="6"/>
			<point x="854" y="6" type="curve" smooth="yes"/>
			<point x="948" y="6"/>
			<point x="982" y="4"/>
			<point x="1080" y="0" type="curve"/>
			<point x="1080" y="21"/>
			<point x="1080" y="41"/>
			<point x="1080" y="62" type="curve"/>
			<point x="948" y="62"/>
			<point x="926" y="62"/>
			<point x="926" y="154" type="curve" smooth="yes"/>
			<point x="926" y="369"/>
			<point x="926" y="584"/>
			<point x="926" y="800" type="curve"/>
			<point x="1033" y="800"/>
			<point x="1140" y="800"/>
			<point x="1248" y="800" type="curve" smooth="yes"/>
			<point x="1342" y="800"/>
			<point x="1354" y="774"/>
			<point x="1354" y="692" type="curve" smooth="yes"/>
			<point x="1354" y="513"/>
			<point x="1354" y="334"/>
			<point x="1354" y="154" type="curve" smooth="yes"/>
			<point x="1354" y="62"/>
			<point x="1332" y="62"/>
			<point x="1200" y="62" type="curve"/>
			<point x="1200" y="41"/>
			<point x="1200" y="21"/>
			<point x="1200" y="0" type="curve"/>
			<point x="1294" y="4"/>
			<point x="1332" y="6"/>
			<point x="1424" y="6" type="curve" smooth="yes"/>
			<point x="1518" y="6"/>
			<point x="1552" y="4"/>
			<point x="1650" y="0" type="curve"/>
			<point x="1650" y="21"/>
			<point x="1650" y="41"/>
			<point x="1650" y="62" type="curve"/>
			<point x="1518" y="62"/>
			<point x="1496" y="62"/>
			<point x="1496" y="154" type="curve" smooth="yes"/>
			<point x="1496" y="398"/>
			<point x="1496" y="642"/>
			<point x="1496" y="886" type="curve"/>
			<point x="1409" y="878"/>
			<point x="1323" y="870"/>
			<point x="1236" y="862" type="curve"/>
			<point x="920" y="862" type="line"/>
			<point x="920" y="935"/>
			<point x="920" y="1009"/>
			<point x="920" y="1082" type="curve" smooth="yes"/>
			<point x="920" y="1290"/>
			<point x="1108" y="1360"/>
			<point x="1222" y="1360" type="curve" smooth="yes"/>
			<point x="1268" y="1360"/>
			<point x="1344" y="1348"/>
			<point x="1394" y="1300" type="curve"/>
			<point x="1316" y="1292"/>
			<point x="1304" y="1230"/>
			<point x="1304" y="1206" type="curve" smooth="yes"/>
			<point x="1304" y="1146"/>
			<point x="1352" y="1112"/>
			<point x="1398" y="1112" type="curve" smooth="yes"/>
			<point x="1452" y="1112"/>
			<point x="1494" y="1150"/>
			<point x="1494" y="1206" type="curve" smooth="yes"/>
			<point x="1494" y="1320"/>
			<point x="1384" y="1410"/>
			<point x="1224" y="1410" type="curve" smooth="yes"/>
			<point x="1104" y="1410"/>
			<point x="986" y="1376"/>
			<point x="888" y="1302" type="curve"/>
			<point x="848" y="1362"/>
			<point x="768" y="1410"/>
		</contour>
		<contour>
			<point x="350" y="862" type="line"/>
			<point x="350" y="935"/>
			<point x="350" y="1009"/>
			<point x="350" y="1082" type="curve" smooth="yes"/>
			<point x="350" y="1294"/>
			<point x="538" y="1360"/>
			<point x="648" y="1360" type="curve" smooth="yes"/>
			<point x="672" y="1360"/>
			<point x="756" y="1358"/>
			<point x="818" y="1300" type="curve"/>
			<point x="728" y="1290"/>
			<point x="728" y="1214"/>
			<point x="728" y="1206" type="curve" smooth="yes"/>
			<point x="728" y="1174"/>
			<point x="746" y="1136"/>
			<point x="784" y="1120" type="curve" smooth="yes"/>
			<point x="784" y="1120"/>
			<point x="784" y="1120"/>
			<point x="784" y="1120" type="curve"/>
			<point x="784" y="862" type="line"/>
		</contour>
	</outline>
</glyph>
